<svg xmlns="http://www.w3.org/2000/svg" xmlns:xlink="http://www.w3.org/1999/xlink" width="850" height="370" fill="#000" fill-opacity="1" stroke="#000" stroke-dasharray="none" stroke-dashoffset="0" stroke-linecap="square" stroke-linejoin="miter" stroke-miterlimit="10" stroke-opacity="1" stroke-width="1" color-interpolation="auto" color-rendering="auto" font-family="'Dialog'" font-size="12" font-style="normal" font-weight="normal" image-rendering="auto" shape-rendering="auto" text-rendering="auto" viewBox="20 10 850 370"><g><defs id="defs1"><clipPath id="clipPath1" clipPathUnits="userSpaceOnUse"><path d="M0 0 L2147483647 0 L2147483647 2147483647 L0 2147483647 L0 0 Z"/></clipPath><clipPath id="clipPath2" clipPathUnits="userSpaceOnUse"><path d="M0 0 L0 30 L280 30 L280 0 Z"/></clipPath><clipPath id="clipPath3" clipPathUnits="userSpaceOnUse"><path d="M0 0 L0 40 L100 40 L100 0 Z"/></clipPath><clipPath id="clipPath4" clipPathUnits="userSpaceOnUse"><path d="M0 0 L0 70 L100 70 L100 0 Z"/></clipPath><clipPath id="clipPath5" clipPathUnits="userSpaceOnUse"><path d="M0 0 L0 80 L190 80 L190 0 Z"/></clipPath><clipPath id="clipPath6" clipPathUnits="userSpaceOnUse"><path d="M0 0 L0 80 L180 80 L180 0 Z"/></clipPath><clipPath id="clipPath7" clipPathUnits="userSpaceOnUse"><path d="M0 0 L0 70 L220 70 L220 0 Z"/></clipPath><clipPath id="clipPath8" clipPathUnits="userSpaceOnUse"><path d="M0 0 L0 80 L130 80 L130 0 Z"/></clipPath><clipPath id="clipPath9" clipPathUnits="userSpaceOnUse"><path d="M0 0 L0 30 L80 30 L80 0 Z"/></clipPath><clipPath id="clipPath10" clipPathUnits="userSpaceOnUse"><path d="M0 0 L0 140 L120 140 L120 0 Z"/></clipPath><clipPath id="clipPath11" clipPathUnits="userSpaceOnUse"><path d="M0 0 L0 30 L140 30 L140 0 Z"/></clipPath><clipPath id="clipPath12" clipPathUnits="userSpaceOnUse"><path d="M0 0 L0 160 L220 160 L220 0 Z"/></clipPath></defs><g font-family="sans-serif" font-size="14" font-weight="bold"><text x="5" y="18.109" stroke="none" clip-path="url(#clipPath2)" transform="translate(40,30)" xml:space="preserve">Address Encoding</text></g><g fill="#FFF" fill-opacity="0" stroke="#FFF" stroke-opacity="0"><path stroke="none" d="M0.5 0.5 L80.5 0.5 L99 20.5 L80.5 39 L0.5 39 Z" clip-path="url(#clipPath3)" transform="translate(570,180)"/></g><g><path fill="none" d="M0.5 0.5 L80.5 0.5 L99 20.5 L80.5 39 L0.5 39 Z" clip-path="url(#clipPath3)" transform="translate(570,180)"/><text x="24" y="25.055" stroke="none" clip-path="url(#clipPath3)" font-family="sans-serif" font-size="14" transform="translate(570,180)" xml:space="preserve">base58</text></g><g fill="#FFF" fill-opacity="0" stroke="#FFF" stroke-opacity="0" transform="translate(380,290)"><rect width="98.5" height="68.5" x=".5" y=".5" stroke="none" clip-path="url(#clipPath4)"/></g><g transform="translate(380,290)"><rect width="98.5" height="68.5" x=".5" y=".5" fill="none" clip-path="url(#clipPath4)"/><text x="13" y="29.5" stroke="none" clip-path="url(#clipPath4)" font-family="sans-serif" font-size="14" xml:space="preserve">Checksum</text><path fill="none" d="M1 35.5 L99 35.5" clip-path="url(#clipPath4)"/><text x="18" y="50.609" stroke="none" clip-path="url(#clipPath4)" font-family="sans-serif" font-size="14" xml:space="preserve">(4 bytes)</text></g><g fill="#FFF" fill-opacity="0" stroke="#FFF" stroke-opacity="0" transform="translate(40,160)"><rect width="188.5" height="78.5" x=".5" y=".5" stroke="none" clip-path="url(#clipPath5)"/></g><g transform="translate(40,160)"><rect width="188.5" height="78.5" x=".5" y=".5" fill="none" clip-path="url(#clipPath5)"/><text x="55" y="26.445" stroke="none" clip-path="url(#clipPath5)" font-family="sans-serif" font-size="14" xml:space="preserve">Type Prefix</text><path fill="none" d="M1 32.4453 L189 32.4453" clip-path="url(#clipPath5)"/><text x="77" y="47.555" stroke="none" clip-path="url(#clipPath5)" font-family="sans-serif" font-size="14" xml:space="preserve">0x00</text><text x="23" y="63.664" stroke="none" clip-path="url(#clipPath5)" font-family="sans-serif" font-size="14" xml:space="preserve">(&quot;r&quot; in XRPL base58)</text></g><g fill="#FFF" fill-opacity="0" stroke="#FFF" stroke-opacity="0" transform="translate(670,160)"><rect width="178.5" height="78.5" x=".5" y=".5" stroke="none" clip-path="url(#clipPath6)"/></g><g transform="translate(670,160)"><rect width="178.5" height="78.5" x=".5" y=".5" fill="none" clip-path="url(#clipPath6)"/><text x="61" y="26.445" stroke="none" clip-path="url(#clipPath6)" font-family="sans-serif" font-size="14" xml:space="preserve">Address</text><path fill="none" d="M1 32.4453 L179 32.4453" clip-path="url(#clipPath6)"/><text x="16" y="47.555" stroke="none" clip-path="url(#clipPath6)" font-family="sans-serif" font-size="14" xml:space="preserve">AccountID (20 bytes)</text><text x="19" y="63.664" stroke="none" clip-path="url(#clipPath6)" font-family="sans-serif" font-size="14" xml:space="preserve">Checksum (4 bytes)</text></g><g fill="#FFF" fill-opacity="0" stroke="#FFF" stroke-opacity="0" transform="translate(340,160)"><rect width="178.5" height="78.5" x=".5" y=".5" stroke="none" clip-path="url(#clipPath6)"/></g><g transform="translate(340,160)"><rect width="178.5" height="78.5" x=".5" y=".5" fill="none" clip-path="url(#clipPath6)"/><text x="51" y="34.5" stroke="none" clip-path="url(#clipPath6)" font-family="sans-serif" font-size="14" xml:space="preserve">Account ID</text><path fill="none" d="M1 40.5 L179 40.5" clip-path="url(#clipPath6)"/><text x="54" y="55.609" stroke="none" clip-path="url(#clipPath6)" font-family="sans-serif" font-size="14" xml:space="preserve">(20 bytes)</text></g><g fill="#FFF" fill-opacity="0" stroke="#FFF" stroke-opacity="0" transform="translate(40,70)"><rect width="218.5" height="68.5" x=".5" y=".5" stroke="none" clip-path="url(#clipPath7)"/></g><g transform="translate(40,70)"><rect width="218.5" height="68.5" x=".5" y=".5" fill="none" clip-path="url(#clipPath7)"/><text x="47" y="21.445" stroke="none" clip-path="url(#clipPath7)" font-family="sans-serif" font-size="14" xml:space="preserve">Master Public Key</text><path fill="none" d="M1 27.4453 L219 27.4453" clip-path="url(#clipPath7)"/><text x="33" y="42.555" stroke="none" clip-path="url(#clipPath7)" font-family="sans-serif" font-size="14" xml:space="preserve">33 bytes (secp256k1)</text><text x="12" y="58.664" stroke="none" clip-path="url(#clipPath7)" font-family="sans-serif" font-size="14" xml:space="preserve">0xED + 32 bytes (Ed25519)</text></g><g><path fill="none" d="M10.5 59.5 L10.5 10.5" clip-path="url(#clipPath8)" transform="translate(400,230)"/><path fill="none" d="M17 48.7417 L10.5 60 L4 48.7417" clip-path="url(#clipPath8)" transform="translate(400,230)"/><text x="14" y="43.055" stroke="none" clip-path="url(#clipPath8)" font-family="sans-serif" font-size="14" transform="translate(400,230)" xml:space="preserve">SHA-256 twice</text></g><g><path fill="none" d="M59.5 10.5 L10.5 10.5" clip-path="url(#clipPath9)" transform="translate(510,180)"/><path fill="none" d="M48.7417 4 L60 10.5 L48.7417 17" clip-path="url(#clipPath9)" transform="translate(510,180)"/></g><g><path fill="none" d="M99.5 10.5 L80.5 10.5" clip-path="url(#clipPath10)" transform="translate(470,200)"/><path fill="none" d="M80.5 10.5 L80.5 120.5" clip-path="url(#clipPath10)" transform="translate(470,200)"/><path fill="none" d="M80.5 120.5 L10.5 120.5" clip-path="url(#clipPath10)" transform="translate(470,200)"/><path fill="none" d="M88.7417 4 L100 10.5 L88.7417 17" clip-path="url(#clipPath10)" transform="translate(470,200)"/></g><g><path fill="none" d="M119.5 10.5 L10.5 10.5" clip-path="url(#clipPath11)" transform="translate(220,200)"/><path fill="none" d="M108.7417 4 L120 10.5 L108.7417 17" clip-path="url(#clipPath11)" transform="translate(220,200)"/></g><g><path fill="none" d="M89.5 110.5 L40.5 110.5" clip-path="url(#clipPath12)" transform="translate(250,70)"/><path fill="none" d="M40.5 110.5 L40.5 40.5" clip-path="url(#clipPath12)" transform="translate(250,70)"/><path fill="none" d="M40.5 40.5 L10.5 40.5" clip-path="url(#clipPath12)" transform="translate(250,70)"/><path fill="none" d="M78.7417 104 L90 110.5 L78.7417 117" clip-path="url(#clipPath12)" transform="translate(250,70)"/><text x="44" y="66.945" stroke="none" clip-path="url(#clipPath12)" font-family="sans-serif" font-size="14" transform="translate(250,70)" xml:space="preserve">RIPEMD160 of SHA-256</text></g></g></svg>