<svg xmlns="http://www.w3.org/2000/svg" xmlns:xlink="http://www.w3.org/1999/xlink" width="1040" height="170" fill="#000" fill-opacity="1" stroke="#000" stroke-dasharray="none" stroke-dashoffset="0" stroke-linecap="square" stroke-linejoin="miter" stroke-miterlimit="10" stroke-opacity="1" stroke-width="1" color-interpolation="auto" color-rendering="auto" font-family="'Dialog'" font-size="12" font-style="normal" font-weight="normal" image-rendering="auto" shape-rendering="auto" text-rendering="auto" viewBox="40 40 1040 170"><g><defs id="defs1"><clipPath id="clipPath1" clipPathUnits="userSpaceOnUse"><path d="M0 0 L2147483647 0 L2147483647 2147483647 L0 2147483647 L0 0 Z"/></clipPath><clipPath id="clipPath2" clipPathUnits="userSpaceOnUse"><path d="M0 0 L0 70 L160 70 L160 0 Z"/></clipPath><clipPath id="clipPath3" clipPathUnits="userSpaceOnUse"><path d="M0 0 L0 30 L440 30 L440 0 Z"/></clipPath><clipPath id="clipPath4" clipPathUnits="userSpaceOnUse"><path d="M0 0 L0 130 L500 130 L500 0 Z"/></clipPath><clipPath id="clipPath5" clipPathUnits="userSpaceOnUse"><path d="M0 0 L0 70 L120 70 L120 0 Z"/></clipPath><clipPath id="clipPath6" clipPathUnits="userSpaceOnUse"><path d="M0 0 L0 70 L140 70 L140 0 Z"/></clipPath><clipPath id="clipPath7" clipPathUnits="userSpaceOnUse"><path d="M0 0 L0 30 L70 30 L70 0 Z"/></clipPath></defs><g fill="#FFF" fill-opacity="0" stroke="#FFF" stroke-opacity="0" transform="translate(900,100)"><rect width="158.5" height="68.5" x=".5" y=".5" stroke="none" clip-path="url(#clipPath2)"/></g><g transform="translate(900,100)"><rect width="158.5" height="68.5" x=".5" y=".5" fill="none" clip-path="url(#clipPath2)"/><text x="51" y="18.109" stroke="none" clip-path="url(#clipPath2)" font-family="sans-serif" font-size="14" xml:space="preserve">Address</text><path fill="none" d="M1 24.1094 L159 24.1094" clip-path="url(#clipPath2)"/><text x="5" y="39.219" stroke="none" clip-path="url(#clipPath2)" font-family="sans-serif" font-size="14" xml:space="preserve">24 bytes (classic)</text><text x="5" y="55.328" stroke="none" clip-path="url(#clipPath2)" font-family="sans-serif" font-size="14" xml:space="preserve">32 bytes (X-address)</text></g><g font-family="sans-serif" font-size="14"><text x="156" y="18.109" stroke="none" clip-path="url(#clipPath3)" transform="translate(580,60)" xml:space="preserve">Public information</text></g><g fill="#FFF" fill-opacity="0" stroke="#FFF" stroke-opacity="0"><path stroke="none" d="M0.5 0.5 L488.5 0.5 L499 12.5 L499 129 L0.5 129 Z" clip-path="url(#clipPath4)" transform="translate(60,60)"/></g><g fill="red" stroke="red"><path fill="none" d="M0.5 0.5 L488.5 0.5 L499 12.5 L499 129 L0.5 129 Z" clip-path="url(#clipPath4)" transform="translate(60,60)"/><path fill="none" d="M488.5 0.5 L488.5 12.5 L499 12.5" clip-path="url(#clipPath4)" transform="translate(60,60)"/><text x="5" y="18.109" stroke="none" clip-path="url(#clipPath4)" font-family="sans-serif" font-size="14" transform="translate(60,60)" xml:space="preserve">Secrets</text></g><g fill="#FFF" fill-opacity="0" stroke="#FFF" stroke-opacity="0" transform="translate(740,100)"><rect width="118.5" height="68.5" x=".5" y=".5" stroke="none" clip-path="url(#clipPath5)"/></g><g transform="translate(740,100)"><rect width="118.5" height="68.5" x=".5" y=".5" fill="none" clip-path="url(#clipPath5)"/><text x="21" y="18.109" stroke="none" clip-path="url(#clipPath5)" font-family="sans-serif" font-size="14" xml:space="preserve">Account ID</text><path fill="none" d="M1 24.1094 L119 24.1094" clip-path="url(#clipPath5)"/><text x="5" y="39.219" stroke="none" clip-path="url(#clipPath5)" font-family="sans-serif" font-size="14" xml:space="preserve">20 bytes</text></g><g fill="#FFF" fill-opacity="0" stroke="#FFF" stroke-opacity="0" transform="translate(580,100)"><rect width="118.5" height="68.5" x=".5" y=".5" stroke="none" clip-path="url(#clipPath5)"/></g><g transform="translate(580,100)"><rect width="118.5" height="68.5" x=".5" y=".5" fill="none" clip-path="url(#clipPath5)"/><text x="23" y="18.109" stroke="none" clip-path="url(#clipPath5)" font-family="sans-serif" font-size="14" xml:space="preserve">Public Key</text><path fill="none" d="M1 24.1094 L119 24.1094" clip-path="url(#clipPath5)"/><text x="5" y="39.219" stroke="none" clip-path="url(#clipPath5)" font-family="sans-serif" font-size="14" xml:space="preserve">33 bytes</text></g><g fill="#FFF" fill-opacity="0" stroke="#FFF" stroke-opacity="0" transform="translate(420,100)"><rect width="118.5" height="68.5" x=".5" y=".5" stroke="none" clip-path="url(#clipPath5)"/></g><g transform="translate(420,100)"><rect width="118.5" height="68.5" x=".5" y=".5" fill="none" clip-path="url(#clipPath5)"/><text x="20" y="18.109" stroke="none" clip-path="url(#clipPath5)" font-family="sans-serif" font-size="14" xml:space="preserve">Private Key</text><path fill="none" d="M1 24.1094 L119 24.1094" clip-path="url(#clipPath5)"/><text x="5" y="39.219" stroke="none" clip-path="url(#clipPath5)" font-family="sans-serif" font-size="14" xml:space="preserve">32 bytes</text></g><g fill="#FFF" fill-opacity="0" stroke="#FFF" stroke-opacity="0" transform="translate(80,100)"><rect width="138.5" height="68.5" x=".5" y=".5" stroke="none" clip-path="url(#clipPath6)"/></g><g stroke-dasharray="8 5" stroke-linecap="butt" stroke-miterlimit="5" transform="translate(80,100)"><rect width="138.5" height="68.5" x=".5" y=".5" fill="none" clip-path="url(#clipPath6)"/><text x="30" y="13.391" stroke="none" clip-path="url(#clipPath6)" font-family="sans-serif" font-size="14" xml:space="preserve">Passphrase</text><text x="28" y="29.5" stroke="none" clip-path="url(#clipPath6)" font-family="sans-serif" font-size="14" xml:space="preserve">or source of</text><text x="26" y="45.609" stroke="none" clip-path="url(#clipPath6)" font-family="sans-serif" font-size="14" xml:space="preserve">randomness</text></g><g font-family="sans-serif" font-size="14"><path fill="none" d="M1 51.6094 L139 51.6094" clip-path="url(#clipPath6)" transform="translate(80,100)"/><text x="34" y="66.719" stroke="none" clip-path="url(#clipPath6)" transform="translate(80,100)" xml:space="preserve">(Optional)</text></g><g fill="#FFF" fill-opacity="0" stroke="#FFF" stroke-opacity="0" transform="translate(260,100)"><rect width="118.5" height="68.5" x=".5" y=".5" stroke="none" clip-path="url(#clipPath5)"/></g><g stroke-dasharray="8 5" stroke-linecap="butt" stroke-miterlimit="5" transform="translate(260,100)"><rect width="118.5" height="68.5" x=".5" y=".5" fill="none" clip-path="url(#clipPath5)"/><text x="42" y="18.109" stroke="none" clip-path="url(#clipPath5)" font-family="sans-serif" font-size="14" xml:space="preserve">Seed</text></g><g font-family="sans-serif" font-size="14"><path fill="none" d="M1 24.1094 L119 24.1094" clip-path="url(#clipPath5)" transform="translate(260,100)"/><text x="5" y="39.219" stroke="none" clip-path="url(#clipPath5)" transform="translate(260,100)" xml:space="preserve">(Optional)</text><text x="5" y="55.328" stroke="none" clip-path="url(#clipPath5)" transform="translate(260,100)" xml:space="preserve">16 bytes</text></g><g><path fill="none" d="M11.5 10.5 L50.5 10.5" clip-path="url(#clipPath7)" transform="translate(850,130)"/><path fill="none" d="M22.2583 17 L11 10.5 L22.2583 4" clip-path="url(#clipPath7)" transform="translate(850,130)"/><path fill="none" d="M38.7417 17 L50 10.5 L38.7417 4" clip-path="url(#clipPath7)" transform="translate(850,130)"/></g><g><path fill="none" d="M10.5 10.5 L49.5 10.5" clip-path="url(#clipPath7)" transform="translate(690,130)"/><path fill="none" d="M38.7417 17 L50 10.5 L38.7417 4" clip-path="url(#clipPath7)" transform="translate(690,130)"/></g><g><path fill="none" d="M10.5 10.5 L49.5 10.5" clip-path="url(#clipPath7)" transform="translate(530,130)"/><path fill="none" d="M38.7417 17 L50 10.5 L38.7417 4" clip-path="url(#clipPath7)" transform="translate(530,130)"/></g><g><path fill="none" d="M10.5 10.5 L49.5 10.5" clip-path="url(#clipPath7)" transform="translate(370,130)"/><path fill="none" d="M38.7417 17 L50 10.5 L38.7417 4" clip-path="url(#clipPath7)" transform="translate(370,130)"/></g><g><path fill="none" d="M10.5 10.5 L49.5 10.5" clip-path="url(#clipPath7)" transform="translate(210,130)"/><path fill="none" d="M38.7417 17 L50 10.5 L38.7417 4" clip-path="url(#clipPath7)" transform="translate(210,130)"/></g></g></svg>