<svg xmlns="http://www.w3.org/2000/svg" xmlns:xlink="http://www.w3.org/1999/xlink" width="700" height="380" fill="#000" fill-opacity="1" stroke="#000" stroke-dasharray="none" stroke-dashoffset="0" stroke-linecap="square" stroke-linejoin="miter" stroke-miterlimit="10" stroke-opacity="1" stroke-width="1" color-interpolation="auto" color-rendering="auto" font-family="'Dialog'" font-size="12" font-style="normal" font-weight="normal" image-rendering="auto" shape-rendering="auto" text-rendering="auto" viewBox="0 0 700 380"><g><defs id="defs1"><clipPath id="clipPath1" clipPathUnits="userSpaceOnUse"><path d="M0 0 L2147483647 0 L2147483647 2147483647 L0 2147483647 L0 0 Z"/></clipPath><clipPath id="clipPath2" clipPathUnits="userSpaceOnUse"><path d="M0 0 L0 30 L280 30 L280 0 Z"/></clipPath><clipPath id="clipPath3" clipPathUnits="userSpaceOnUse"><path d="M0 0 L0 30 L630 30 L630 0 Z"/></clipPath><clipPath id="clipPath4" clipPathUnits="userSpaceOnUse"><path d="M0 0 L0 70 L650 70 L650 0 Z"/></clipPath><clipPath id="clipPath5" clipPathUnits="userSpaceOnUse"><path d="M0 0 L0 90 L150 90 L150 0 Z"/></clipPath><clipPath id="clipPath6" clipPathUnits="userSpaceOnUse"><path d="M0 0 L0 30 L270 30 L270 0 Z"/></clipPath><clipPath id="clipPath7" clipPathUnits="userSpaceOnUse"><path d="M0 0 L0 30 L260 30 L260 0 Z"/></clipPath><clipPath id="clipPath8" clipPathUnits="userSpaceOnUse"><path d="M0 0 L0 30 L410 30 L410 0 Z"/></clipPath><clipPath id="clipPath9" clipPathUnits="userSpaceOnUse"><path d="M0 0 L0 30 L150 30 L150 0 Z"/></clipPath><clipPath id="clipPath10" clipPathUnits="userSpaceOnUse"><path d="M0 0 L0 30 L20 30 L20 0 Z"/></clipPath><clipPath id="clipPath11" clipPathUnits="userSpaceOnUse"><path d="M0 0 L0 60 L90 60 L90 0 Z"/></clipPath><clipPath id="clipPath12" clipPathUnits="userSpaceOnUse"><path d="M0 0 L0 100 L50 100 L50 0 Z"/></clipPath><clipPath id="clipPath13" clipPathUnits="userSpaceOnUse"><path d="M0 0 L0 130 L50 130 L50 0 Z"/></clipPath><clipPath id="clipPath14" clipPathUnits="userSpaceOnUse"><path d="M0 0 L0 90 L40 90 L40 0 Z"/></clipPath></defs><g font-family="sans-serif" font-size="14"><text x="5" y="18.109" stroke="none" clip-path="url(#clipPath2)" transform="translate(130,330)" xml:space="preserve">Most significant bit is 1, the rest is 0&apos;s</text></g><g fill="#FFF" fill-opacity="0" stroke="#FFF" stroke-opacity="0" transform="translate(40,280)"><rect width="628.5" height="28.5" x=".5" y=".5" stroke="none" clip-path="url(#clipPath3)"/></g><g transform="translate(40,280)"><rect width="628.5" height="28.5" x=".5" y=".5" fill="none" clip-path="url(#clipPath3)"/><text x="128" y="18.109" stroke="none" clip-path="url(#clipPath3)" font-family="sans-serif" font-size="14" xml:space="preserve">0x8000000000000000000000000000000000000000</text></g><g fill="#FFF" fill-opacity="0" stroke="#FFF" stroke-opacity="0"><path stroke="none" d="M0.5 0.5 L260.5 0.5 L260.5 21.6094 L649 21.6094 L649 69 L0.5 69 Z" clip-path="url(#clipPath4)" transform="translate(20,20)"/></g><g><path fill="none" d="M0.5 0.5 L260.5 0.5 L260.5 21.6094 L649 21.6094 L649 69 L0.5 69 Z" clip-path="url(#clipPath4)" transform="translate(20,20)"/><path fill="none" d="M0.5 21.6094 L260.5 21.6094" clip-path="url(#clipPath4)" transform="translate(20,20)"/><text x="5" y="16.109" stroke="none" clip-path="url(#clipPath4)" font-family="sans-serif" font-size="14" transform="translate(20,20)" xml:space="preserve">Issued Currency Number Format</text></g><g font-family="sans-serif" font-size="14"><text x="5" y="18.109" stroke="none" clip-path="url(#clipPath5)" transform="translate(530,110)" xml:space="preserve">Normalized to the</text><text x="5" y="34.219" stroke="none" clip-path="url(#clipPath5)" transform="translate(530,110)" xml:space="preserve">range</text><text x="5" y="50.328" stroke="none" clip-path="url(#clipPath5)" transform="translate(530,110)" xml:space="preserve">(10¹⁵, 10¹⁶-1)</text><text x="5" y="66.438" stroke="none" clip-path="url(#clipPath5)" transform="translate(530,110)" xml:space="preserve">inclusive</text></g><g font-family="sans-serif" font-size="14"><text x="5" y="18.109" stroke="none" clip-path="url(#clipPath2)" transform="translate(210,100)" xml:space="preserve">Unsigned integer; original value +97</text></g><g font-family="sans-serif" font-size="14"><text x="5" y="18.109" stroke="none" clip-path="url(#clipPath6)" transform="translate(60,170)" xml:space="preserve">&quot;Not XRP&quot; bit (0=XRP, 1=not XRP)</text></g><g font-family="sans-serif" font-size="14"><text x="5" y="18.109" stroke="none" clip-path="url(#clipPath7)" transform="translate(80,130)" xml:space="preserve">Sign bit (0=negative, 1=positive)</text></g><g fill="#FFF" fill-opacity="0" stroke="#FFF" stroke-opacity="0" transform="translate(250,50)"><rect width="408.5" height="28.5" x=".5" y=".5" stroke="none" clip-path="url(#clipPath8)"/></g><g transform="translate(250,50)"><rect width="408.5" height="28.5" x=".5" y=".5" fill="none" clip-path="url(#clipPath8)"/><text x="141" y="18.109" stroke="none" clip-path="url(#clipPath8)" font-family="sans-serif" font-size="14" xml:space="preserve">mantissa (54 bits)</text></g><g fill="#FFF" fill-opacity="0" stroke="#FFF" stroke-opacity="0" transform="translate(90,50)"><rect width="148.5" height="28.5" x=".5" y=".5" stroke="none" clip-path="url(#clipPath9)"/></g><g transform="translate(90,50)"><rect width="148.5" height="28.5" x=".5" y=".5" fill="none" clip-path="url(#clipPath9)"/><text x="14" y="18.109" stroke="none" clip-path="url(#clipPath9)" font-family="sans-serif" font-size="14" xml:space="preserve">exponent (8 bits)</text></g><g fill="#FFF" fill-opacity="0" stroke="#FFF" stroke-opacity="0" transform="translate(60,50)"><rect width="18.5" height="28.5" x=".5" y=".5" stroke="none" clip-path="url(#clipPath10)"/></g><g transform="translate(60,50)"><rect width="18.5" height="28.5" x=".5" y=".5" fill="none" clip-path="url(#clipPath10)"/></g><g fill="#FFF" fill-opacity="0" stroke="#FFF" stroke-opacity="0" transform="translate(30,50)"><rect width="18.5" height="28.5" x=".5" y=".5" stroke="none" clip-path="url(#clipPath10)"/></g><g transform="translate(30,50)"><rect width="18.5" height="28.5" x=".5" y=".5" fill="none" clip-path="url(#clipPath10)"/></g><g fill="#FFF" fill-opacity="0" stroke="#FFF" stroke-opacity="0"><path stroke="none" d="M0.5 0.5 L312.0068 0.5 L312.0068 21.6094 L649 21.6094 L649 69 L0.5 69 Z" clip-path="url(#clipPath4)" transform="translate(30,250)"/></g><g><path fill="none" d="M0.5 0.5 L312.0068 0.5 L312.0068 21.6094 L649 21.6094 L649 69 L0.5 69 Z" clip-path="url(#clipPath4)" transform="translate(30,250)"/><path fill="none" d="M0.5 21.6094 L312.0068 21.6094" clip-path="url(#clipPath4)" transform="translate(30,250)"/><text x="5" y="16.109" stroke="none" clip-path="url(#clipPath4)" font-family="sans-serif" font-size="14" transform="translate(30,250)" xml:space="preserve">Special Case (Issued currency amount = 0)</text></g><g><path fill="none" d="M10.5 11.5 L10.5 40.5" clip-path="url(#clipPath11)" transform="translate(60,300)"/><path fill="none" d="M10.5 40.5 L70.5 40.5" clip-path="url(#clipPath11)" transform="translate(60,300)"/><path fill="#fff" stroke="none" d="M4 22.2583 L10.5 11 L17 22.2583 Z" clip-path="url(#clipPath11)" transform="translate(60,300)"/><path fill="none" d="M4 22.2583 L10.5 11 L17 22.2583 Z" clip-path="url(#clipPath11)" transform="translate(60,300)"/></g><g><path fill="none" d="M10.5 11.5 L10.5 80.5" clip-path="url(#clipPath12)" transform="translate(500,70)"/><path fill="none" d="M10.5 80.5 L30.5 80.5" clip-path="url(#clipPath12)" transform="translate(500,70)"/><path fill="#fff" stroke="none" d="M4 22.2583 L10.5 11 L17 22.2583 Z" clip-path="url(#clipPath12)" transform="translate(500,70)"/><path fill="none" d="M4 22.2583 L10.5 11 L17 22.2583 Z" clip-path="url(#clipPath12)" transform="translate(500,70)"/></g><g><path fill="none" d="M10.5 11.5 L10.5 40.5" clip-path="url(#clipPath11)" transform="translate(140,70)"/><path fill="none" d="M10.5 40.5 L70.5 40.5" clip-path="url(#clipPath11)" transform="translate(140,70)"/><path fill="#fff" stroke="none" d="M4 22.2583 L10.5 11 L17 22.2583 Z" clip-path="url(#clipPath11)" transform="translate(140,70)"/><path fill="none" d="M4 22.2583 L10.5 11 L17 22.2583 Z" clip-path="url(#clipPath11)" transform="translate(140,70)"/></g><g><path fill="none" d="M10.5 11.5 L10.5 110.5" clip-path="url(#clipPath13)" transform="translate(30,70)"/><path fill="none" d="M10.5 110.5 L30.5 110.5" clip-path="url(#clipPath13)" transform="translate(30,70)"/><path fill="#fff" stroke="none" d="M4 22.2583 L10.5 11 L17 22.2583 Z" clip-path="url(#clipPath13)" transform="translate(30,70)"/><path fill="none" d="M4 22.2583 L10.5 11 L17 22.2583 Z" clip-path="url(#clipPath13)" transform="translate(30,70)"/></g><g><path fill="none" d="M10.5 11.5 L10.5 70.5" clip-path="url(#clipPath14)" transform="translate(60,70)"/><path fill="none" d="M10.5 70.5 L20.5 70.5" clip-path="url(#clipPath14)" transform="translate(60,70)"/><path fill="#fff" stroke="none" d="M4 22.2583 L10.5 11 L17 22.2583 Z" clip-path="url(#clipPath14)" transform="translate(60,70)"/><path fill="none" d="M4 22.2583 L10.5 11 L17 22.2583 Z" clip-path="url(#clipPath14)" transform="translate(60,70)"/></g></g></svg>