<svg xmlns="http://www.w3.org/2000/svg" xmlns:xlink="http://www.w3.org/1999/xlink" width="660" height="290" fill="#000" fill-opacity="1" stroke="#000" stroke-dasharray="none" stroke-dashoffset="0" stroke-linecap="square" stroke-linejoin="miter" stroke-miterlimit="10" stroke-opacity="1" stroke-width="1" color-interpolation="auto" color-rendering="auto" font-family="'Dialog'" font-size="12" font-style="normal" font-weight="normal" image-rendering="auto" shape-rendering="auto" text-rendering="auto" viewBox="10 20 660 290"><g><defs id="defs1"><clipPath id="clipPath1" clipPathUnits="userSpaceOnUse"><path d="M0 0 L2147483647 0 L2147483647 2147483647 L0 2147483647 L0 0 Z"/></clipPath><clipPath id="clipPath2" clipPathUnits="userSpaceOnUse"><path d="M0 0 L0 30 L600 30 L600 0 Z"/></clipPath><clipPath id="clipPath3" clipPathUnits="userSpaceOnUse"><path d="M0 0 L0 70 L620 70 L620 0 Z"/></clipPath><clipPath id="clipPath4" clipPathUnits="userSpaceOnUse"><path d="M0 0 L0 40 L130 40 L130 0 Z"/></clipPath><clipPath id="clipPath5" clipPathUnits="userSpaceOnUse"><path d="M0 0 L0 30 L150 30 L150 0 Z"/></clipPath><clipPath id="clipPath6" clipPathUnits="userSpaceOnUse"><path d="M0 0 L0 30 L180 30 L180 0 Z"/></clipPath><clipPath id="clipPath7" clipPathUnits="userSpaceOnUse"><path d="M0 0 L0 30 L220 30 L220 0 Z"/></clipPath><clipPath id="clipPath8" clipPathUnits="userSpaceOnUse"><path d="M0 0 L0 60 L200 60 L200 0 Z"/></clipPath><clipPath id="clipPath9" clipPathUnits="userSpaceOnUse"><path d="M0 0 L0 30 L20 30 L20 0 Z"/></clipPath><clipPath id="clipPath10" clipPathUnits="userSpaceOnUse"><path d="M0 0 L0 60 L40 60 L40 0 Z"/></clipPath><clipPath id="clipPath11" clipPathUnits="userSpaceOnUse"><path d="M0 0 L0 60 L60 60 L60 0 Z"/></clipPath></defs><g fill="#FFF" fill-opacity="0" stroke="#FFF" stroke-opacity="0" transform="translate(40,250)"><rect width="598.5" height="28.5" x=".5" y=".5" stroke="none" clip-path="url(#clipPath2)"/></g><g transform="translate(40,250)"><rect width="598.5" height="28.5" x=".5" y=".5" fill="none" clip-path="url(#clipPath2)"/><text x="51" y="18.109" stroke="none" clip-path="url(#clipPath2)" font-family="sans-serif" font-size="14" xml:space="preserve">0x00000000000000000000000000000000000000000 (160 bits of 0&apos;s)</text></g><g fill="#FFF" fill-opacity="0" stroke="#FFF" stroke-opacity="0"><path stroke="none" d="M0.5 0.5 L248.5 0.5 L248.5 21.6094 L619 21.6094 L619 69 L0.5 69 Z" clip-path="url(#clipPath3)" transform="translate(30,220)"/></g><g><path fill="none" d="M0.5 0.5 L248.5 0.5 L248.5 21.6094 L619 21.6094 L619 69 L0.5 69 Z" clip-path="url(#clipPath3)" transform="translate(30,220)"/><path fill="none" d="M0.5 21.6094 L248.5 21.6094" clip-path="url(#clipPath3)" transform="translate(30,220)"/><text x="5" y="16.109" stroke="none" clip-path="url(#clipPath3)" font-family="sans-serif" font-size="14" transform="translate(30,220)" xml:space="preserve">Special Case XRP Currency Code</text></g><g font-family="sans-serif" font-size="14"><text x="5" y="18.109" stroke="none" clip-path="url(#clipPath4)" transform="translate(330,110)" xml:space="preserve">3 chars of ASCII</text><text x="5" y="34.219" stroke="none" clip-path="url(#clipPath4)" transform="translate(330,110)" xml:space="preserve">(can&apos;t be &quot;XRP&quot;)</text></g><g fill="#FFF" fill-opacity="0" stroke="#FFF" stroke-opacity="0"><path stroke="none" d="M0.5 0.5 L248.5 0.5 L248.5 21.6094 L619 21.6094 L619 69 L0.5 69 Z" clip-path="url(#clipPath3)" transform="translate(30,40)"/></g><g><path fill="none" d="M0.5 0.5 L248.5 0.5 L248.5 21.6094 L619 21.6094 L619 69 L0.5 69 Z" clip-path="url(#clipPath3)" transform="translate(30,40)"/><path fill="none" d="M0.5 21.6094 L248.5 21.6094" clip-path="url(#clipPath3)" transform="translate(30,40)"/><text x="5" y="16.109" stroke="none" clip-path="url(#clipPath3)" font-family="sans-serif" font-size="14" transform="translate(30,40)" xml:space="preserve">Issued Currency Code Format</text></g><g fill="#FFF" fill-opacity="0" stroke="#FFF" stroke-opacity="0" transform="translate(300,70)"><rect width="148.5" height="28.5" x=".5" y=".5" stroke="none" clip-path="url(#clipPath5)"/></g><g transform="translate(300,70)"><rect width="148.5" height="28.5" x=".5" y=".5" fill="none" clip-path="url(#clipPath5)"/><text x="12" y="18.109" stroke="none" clip-path="url(#clipPath5)" font-family="sans-serif" font-size="14" xml:space="preserve">ISO code (24 bits)</text></g><g fill="#FFF" fill-opacity="0" stroke="#FFF" stroke-opacity="0" transform="translate(460,70)"><rect width="178.5" height="28.5" x=".5" y=".5" stroke="none" clip-path="url(#clipPath6)"/></g><g transform="translate(460,70)"><rect width="178.5" height="28.5" x=".5" y=".5" fill="none" clip-path="url(#clipPath6)"/><text x="25" y="18.109" stroke="none" clip-path="url(#clipPath6)" font-family="sans-serif" font-size="14" xml:space="preserve">Reserved (40 bits)</text></g><g fill="#FFF" fill-opacity="0" stroke="#FFF" stroke-opacity="0" transform="translate(70,70)"><rect width="218.5" height="28.5" x=".5" y=".5" stroke="none" clip-path="url(#clipPath7)"/></g><g transform="translate(70,70)"><rect width="218.5" height="28.5" x=".5" y=".5" fill="none" clip-path="url(#clipPath7)"/><text x="45" y="18.109" stroke="none" clip-path="url(#clipPath7)" font-family="sans-serif" font-size="14" xml:space="preserve">Reserved (88 bits)</text></g><g font-family="sans-serif" font-size="14"><text x="5" y="18.109" stroke="none" clip-path="url(#clipPath8)" transform="translate(80,120)" xml:space="preserve">Type code (8 bits)</text><text x="5" y="34.219" stroke="none" clip-path="url(#clipPath8)" transform="translate(80,120)" xml:space="preserve">0x00 for ISO 4217 or</text><text x="5" y="50.328" stroke="none" clip-path="url(#clipPath8)" transform="translate(80,120)" xml:space="preserve">pseudo-ISO currency</text></g><g fill="#FFF" fill-opacity="0" stroke="#FFF" stroke-opacity="0" transform="translate(40,70)"><rect width="18.5" height="28.5" x=".5" y=".5" stroke="none" clip-path="url(#clipPath9)"/></g><g transform="translate(40,70)"><rect width="18.5" height="28.5" x=".5" y=".5" fill="none" clip-path="url(#clipPath9)"/><text x="1" y="18.109" stroke="none" clip-path="url(#clipPath9)" font-family="sans-serif" font-size="14" xml:space="preserve">00</text></g><g><path fill="none" d="M10.5 11.5 L10.5 40.5" clip-path="url(#clipPath10)" transform="translate(310,90)"/><path fill="none" d="M10.5 40.5 L20.5 40.5" clip-path="url(#clipPath10)" transform="translate(310,90)"/><path fill="#fff" stroke="none" d="M4 22.2583 L10.5 11 L17 22.2583 Z" clip-path="url(#clipPath10)" transform="translate(310,90)"/><path fill="none" d="M4 22.2583 L10.5 11 L17 22.2583 Z" clip-path="url(#clipPath10)" transform="translate(310,90)"/></g><g><path fill="none" d="M10.5 11.5 L10.5 40.5" clip-path="url(#clipPath11)" transform="translate(40,90)"/><path fill="none" d="M10.5 40.5 L40.5 40.5" clip-path="url(#clipPath11)" transform="translate(40,90)"/><path fill="#fff" stroke="none" d="M4 22.2583 L10.5 11 L17 22.2583 Z" clip-path="url(#clipPath11)" transform="translate(40,90)"/><path fill="none" d="M4 22.2583 L10.5 11 L17 22.2583 Z" clip-path="url(#clipPath11)" transform="translate(40,90)"/></g></g></svg>