<svg xmlns="http://www.w3.org/2000/svg" xmlns:xlink="http://www.w3.org/1999/xlink" width="1120" height="840" fill="#000" fill-opacity="1" stroke="#000" stroke-dasharray="none" stroke-dashoffset="0" stroke-linecap="square" stroke-linejoin="miter" stroke-miterlimit="10" stroke-opacity="1" stroke-width="1" color-interpolation="auto" color-rendering="auto" font-family="'Dialog'" font-size="12" font-style="normal" font-weight="normal" image-rendering="auto" shape-rendering="auto" text-rendering="auto" viewBox="20 20 1120 840"><g><defs id="defs1"><clipPath id="clipPath1" clipPathUnits="userSpaceOnUse"><path d="M0 0 L2147483647 0 L2147483647 2147483647 L0 2147483647 L0 0 Z"/></clipPath><clipPath id="clipPath2" clipPathUnits="userSpaceOnUse"><path d="M0 0 L0 90 L150 90 L150 0 Z"/></clipPath><clipPath id="clipPath3" clipPathUnits="userSpaceOnUse"><path d="M0 0 L0 30 L200 30 L200 0 Z"/></clipPath><clipPath id="clipPath4" clipPathUnits="userSpaceOnUse"><path d="M0 0 L0 30 L180 30 L180 0 Z"/></clipPath><clipPath id="clipPath5" clipPathUnits="userSpaceOnUse"><path d="M0 0 L0 30 L30 30 L30 0 Z"/></clipPath><clipPath id="clipPath6" clipPathUnits="userSpaceOnUse"><path d="M0 0 L0 30 L210 30 L210 0 Z"/></clipPath><clipPath id="clipPath7" clipPathUnits="userSpaceOnUse"><path d="M0 0 L0 30 L230 30 L230 0 Z"/></clipPath><clipPath id="clipPath8" clipPathUnits="userSpaceOnUse"><path d="M0 0 L0 210 L310 210 L310 0 Z"/></clipPath><clipPath id="clipPath9" clipPathUnits="userSpaceOnUse"><path d="M0 0 L0 100 L100 100 L100 0 Z"/></clipPath><clipPath id="clipPath10" clipPathUnits="userSpaceOnUse"><path d="M0 0 L0 80 L140 80 L140 0 Z"/></clipPath><clipPath id="clipPath11" clipPathUnits="userSpaceOnUse"><path d="M0 0 L0 90 L140 90 L140 0 Z"/></clipPath><clipPath id="clipPath12" clipPathUnits="userSpaceOnUse"><path d="M0 0 L0 40 L30 40 L30 0 Z"/></clipPath><clipPath id="clipPath13" clipPathUnits="userSpaceOnUse"><path d="M0 0 L0 20 L20 20 L20 0 Z"/></clipPath><clipPath id="clipPath14" clipPathUnits="userSpaceOnUse"><path d="M0 0 L0 160 L50 160 L50 0 Z"/></clipPath><clipPath id="clipPath15" clipPathUnits="userSpaceOnUse"><path d="M0 0 L0 30 L60 30 L60 0 Z"/></clipPath><clipPath id="clipPath16" clipPathUnits="userSpaceOnUse"><path d="M0 0 L0 30 L80 30 L80 0 Z"/></clipPath><clipPath id="clipPath17" clipPathUnits="userSpaceOnUse"><path d="M0 0 L0 240 L50 240 L50 0 Z"/></clipPath><clipPath id="clipPath18" clipPathUnits="userSpaceOnUse"><path d="M0 0 L0 30 L160 30 L160 0 Z"/></clipPath><clipPath id="clipPath19" clipPathUnits="userSpaceOnUse"><path d="M0 0 L0 30 L140 30 L140 0 Z"/></clipPath><clipPath id="clipPath20" clipPathUnits="userSpaceOnUse"><path d="M0 0 L0 30 L120 30 L120 0 Z"/></clipPath><clipPath id="clipPath21" clipPathUnits="userSpaceOnUse"><path d="M0 0 L0 30 L190 30 L190 0 Z"/></clipPath><clipPath id="clipPath22" clipPathUnits="userSpaceOnUse"><path d="M0 0 L0 30 L170 30 L170 0 Z"/></clipPath><clipPath id="clipPath23" clipPathUnits="userSpaceOnUse"><path d="M0 0 L0 30 L100 30 L100 0 Z"/></clipPath></defs><g fill="#787878" stroke="#787878"><path stroke="none" d="M0.5 0.5 L138.5 0.5 L149 12.5 L149 89 L0.5 89 Z" clip-path="url(#clipPath2)" transform="translate(810,710)"/><path fill="none" stroke="#fff" d="M0.5 0.5 L138.5 0.5 L149 12.5 L149 89 L0.5 89 Z" clip-path="url(#clipPath2)" transform="translate(810,710)"/><path fill="none" stroke="#fff" d="M138.5 0.5 L138.5 12.5 L149 12.5" clip-path="url(#clipPath2)" transform="translate(810,710)"/></g><g fill="#fff" stroke="#fff" font-family="sans-serif" font-size="14"><text x="5" y="18.109" stroke="none" clip-path="url(#clipPath2)" transform="translate(810,710)" xml:space="preserve">Cross-currency:</text><text x="5" y="34.219" stroke="none" clip-path="url(#clipPath2)" transform="translate(810,710)" xml:space="preserve">Default path</text><text x="5" y="50.328" stroke="none" clip-path="url(#clipPath2)" transform="translate(810,710)" xml:space="preserve">automatically uses</text><text x="5" y="66.438" stroke="none" clip-path="url(#clipPath2)" transform="translate(810,710)" xml:space="preserve">an order book</text></g><g font-family="sans-serif" font-size="14"><text x="5" y="18.109" stroke="none" clip-path="url(#clipPath3)" transform="translate(860,210)" xml:space="preserve">path step - order book</text></g><g font-family="sans-serif" font-size="14"><text x="5" y="18.109" stroke="none" clip-path="url(#clipPath4)" transform="translate(860,160)" xml:space="preserve">path step - account</text></g><g fill="#FFF" fill-opacity="0" stroke="#FFF" stroke-opacity="0" transform="translate(820,210)"><rect width="28.5" height="28.5" x=".5" y=".5" stroke="none" clip-path="url(#clipPath5)"/></g><g transform="translate(820,210)"><rect width="28.5" height="28.5" x=".5" y=".5" fill="none" clip-path="url(#clipPath5)"/></g><g fill="#FFF" fill-opacity="0" stroke="#FFF" stroke-opacity="0" transform="translate(820,160)"><circle cx="14.75" cy="14.75" r="14.25" stroke="none" clip-path="url(#clipPath5)"/></g><g transform="translate(820,160)"><circle cx="14.75" cy="14.75" r="14.25" fill="none" clip-path="url(#clipPath5)"/></g><g font-family="sans-serif" font-size="14"><text x="5" y="18.109" stroke="none" clip-path="url(#clipPath6)" transform="translate(860,90)" xml:space="preserve">completes the default path</text></g><g font-family="sans-serif" font-size="14"><text x="5" y="18.109" stroke="none" clip-path="url(#clipPath7)" transform="translate(860,130)" xml:space="preserve">implied by transaction fields</text></g><g fill="#FFF" fill-opacity="0" stroke="#FFF" stroke-opacity="0" transform="translate(810,50)"><rect width="308.5" height="208.5" x=".5" y=".5" stroke="none" clip-path="url(#clipPath8)"/></g><g transform="translate(810,50)"><rect width="308.5" height="208.5" x=".5" y=".5" fill="none" clip-path="url(#clipPath8)"/><text x="129" y="18.109" stroke="none" clip-path="url(#clipPath8)" font-family="sans-serif" font-size="14" xml:space="preserve">Legend</text><path fill="none" d="M1 24.1094 L309 24.1094" clip-path="url(#clipPath8)"/></g><g fill="#FFF" fill-opacity="0" stroke="#FFF" stroke-opacity="0" transform="translate(350,700)"><rect width="98.5" height="98.5" x=".5" y=".5" stroke="none" clip-path="url(#clipPath9)"/></g><g stroke-width="2.5" transform="translate(350,700)"><rect width="98.5" height="98.5" x=".5" y=".5" fill="none" clip-path="url(#clipPath9)"/><text x="10" y="18.109" stroke="none" clip-path="url(#clipPath9)" font-family="sans-serif" font-size="14" xml:space="preserve">Order Book</text><path fill="none" d="M1 24.1094 L99 24.1094" clip-path="url(#clipPath9)"/><text x="5" y="39.219" stroke="none" clip-path="url(#clipPath9)" font-family="sans-serif" font-size="14" xml:space="preserve">FOO</text><text x="5" y="55.328" stroke="none" clip-path="url(#clipPath9)" font-family="sans-serif" font-size="14" xml:space="preserve">(issuer)</text><path fill="none" d="M1 61.3281 L99 61.3281" clip-path="url(#clipPath9)"/><text x="5" y="76.438" stroke="none" clip-path="url(#clipPath9)" font-family="sans-serif" font-size="14" xml:space="preserve">BAR</text><text x="5" y="92.547" stroke="none" clip-path="url(#clipPath9)" font-family="sans-serif" font-size="14" xml:space="preserve">(issuer)</text></g><g fill="#FFF" fill-opacity="0" stroke="#FFF" stroke-opacity="0" transform="translate(50,700)"><circle cx="49.75" cy="49.75" r="49.25" stroke="none" clip-path="url(#clipPath9)"/></g><g stroke-dasharray="8 5" stroke-linecap="butt" stroke-miterlimit="5" transform="translate(50,700)"><circle cx="49.75" cy="49.75" r="49.25" fill="none" clip-path="url(#clipPath9)"/><text x="21" y="47" stroke="none" clip-path="url(#clipPath9)" font-family="sans-serif" font-size="14" xml:space="preserve">Account</text><text x="19" y="63.109" stroke="none" clip-path="url(#clipPath9)" font-family="sans-serif" font-size="14" xml:space="preserve">(Sender)</text></g><g fill="#FFF" fill-opacity="0" stroke="#FFF" stroke-opacity="0" transform="translate(200,700)"><circle cx="49.75" cy="49.75" r="49.25" stroke="none" clip-path="url(#clipPath9)"/></g><g stroke-dasharray="8 5" stroke-linecap="butt" stroke-miterlimit="5" transform="translate(200,700)"><circle cx="49.75" cy="49.75" r="49.25" fill="none" clip-path="url(#clipPath9)"/><text x="15" y="47" stroke="none" clip-path="url(#clipPath9)" font-family="sans-serif" font-size="14" xml:space="preserve">SendMax.</text><text x="29" y="63.109" stroke="none" clip-path="url(#clipPath9)" font-family="sans-serif" font-size="14" xml:space="preserve">issuer</text></g><g fill="#FFF" fill-opacity="0" stroke="#FFF" stroke-opacity="0" transform="translate(500,700)"><circle cx="49.75" cy="49.75" r="49.25" stroke="none" clip-path="url(#clipPath9)"/></g><g stroke-dasharray="8 5" stroke-linecap="butt" stroke-miterlimit="5" transform="translate(500,700)"><circle cx="49.75" cy="49.75" r="49.25" fill="none" clip-path="url(#clipPath9)"/><text x="20" y="47" stroke="none" clip-path="url(#clipPath9)" font-family="sans-serif" font-size="14" xml:space="preserve">Amount.</text><text x="29" y="63.109" stroke="none" clip-path="url(#clipPath9)" font-family="sans-serif" font-size="14" xml:space="preserve">issuer</text></g><g fill="#FFF" fill-opacity="0" stroke="#FFF" stroke-opacity="0" transform="translate(650,700)"><circle cx="49.75" cy="49.75" r="49.25" stroke="none" clip-path="url(#clipPath9)"/></g><g stroke-dasharray="8 5" stroke-linecap="butt" stroke-miterlimit="5" transform="translate(650,700)"><circle cx="49.75" cy="49.75" r="49.25" fill="none" clip-path="url(#clipPath9)"/><text x="9" y="47" stroke="none" clip-path="url(#clipPath9)" font-family="sans-serif" font-size="14" xml:space="preserve">Destination</text><text x="13" y="63.109" stroke="none" clip-path="url(#clipPath9)" font-family="sans-serif" font-size="14" xml:space="preserve">(Receiver)</text></g><g fill="#787878" stroke="#787878"><path stroke="none" d="M0.5 0.5 L128.5 0.5 L139 12.5 L139 79 L0.5 79 Z" clip-path="url(#clipPath10)" transform="translate(750,370)"/><path fill="none" stroke="#fff" d="M0.5 0.5 L128.5 0.5 L139 12.5 L139 79 L0.5 79 Z" clip-path="url(#clipPath10)" transform="translate(750,370)"/><path fill="none" stroke="#fff" d="M128.5 0.5 L128.5 12.5 L139 12.5" clip-path="url(#clipPath10)" transform="translate(750,370)"/></g><g fill="#fff" stroke="#fff" font-family="sans-serif" font-size="14"><text x="5" y="18.109" stroke="none" clip-path="url(#clipPath10)" transform="translate(750,370)" xml:space="preserve">Same currency:</text><text x="5" y="34.219" stroke="none" clip-path="url(#clipPath10)" transform="translate(750,370)" xml:space="preserve">Rippling through</text><text x="5" y="50.328" stroke="none" clip-path="url(#clipPath10)" transform="translate(750,370)" xml:space="preserve">one issuer</text></g><g fill="#ff0" stroke="#ff0"><path stroke="none" d="M0.5 0.5 L138.5 0.5 L149 12.5 L149 89 L0.5 89 Z" clip-path="url(#clipPath2)" transform="translate(800,560)"/><path fill="none" stroke="#000" d="M0.5 0.5 L138.5 0.5 L149 12.5 L149 89 L0.5 89 Z" clip-path="url(#clipPath2)" transform="translate(800,560)"/><path fill="none" stroke="#000" d="M138.5 0.5 L138.5 12.5 L149 12.5" clip-path="url(#clipPath2)" transform="translate(800,560)"/></g><g font-family="sans-serif" font-size="14"><text x="5" y="18.109" stroke="none" clip-path="url(#clipPath2)" transform="translate(800,560)" xml:space="preserve">Same currency:</text><text x="5" y="34.219" stroke="none" clip-path="url(#clipPath2)" transform="translate(800,560)" xml:space="preserve">Rippling through</text><text x="5" y="50.328" stroke="none" clip-path="url(#clipPath2)" transform="translate(800,560)" xml:space="preserve">two issuers -</text><text x="5" y="66.438" stroke="none" clip-path="url(#clipPath2)" transform="translate(800,560)" xml:space="preserve">unlikely to work</text></g><g fill="#787878" stroke="#787878"><path stroke="none" d="M0.5 0.5 L128.5 0.5 L139 12.5 L139 89 L0.5 89 Z" clip-path="url(#clipPath11)" transform="translate(610,120)"/><path fill="none" stroke="#fff" d="M0.5 0.5 L128.5 0.5 L139 12.5 L139 89 L0.5 89 Z" clip-path="url(#clipPath11)" transform="translate(610,120)"/><path fill="none" stroke="#fff" d="M128.5 0.5 L128.5 12.5 L139 12.5" clip-path="url(#clipPath11)" transform="translate(610,120)"/></g><g fill="#fff" stroke="#fff" font-family="sans-serif" font-size="14"><text x="5" y="18.109" stroke="none" clip-path="url(#clipPath11)" transform="translate(610,120)" xml:space="preserve">Same currency:</text><text x="5" y="34.219" stroke="none" clip-path="url(#clipPath11)" transform="translate(610,120)" xml:space="preserve">Direct trust line</text><text x="5" y="50.328" stroke="none" clip-path="url(#clipPath11)" transform="translate(610,120)" xml:space="preserve">from sender to</text><text x="5" y="66.438" stroke="none" clip-path="url(#clipPath11)" transform="translate(610,120)" xml:space="preserve">receiver</text></g><g fill="#FFF" fill-opacity="0" stroke="#FFF" stroke-opacity="0" transform="translate(570,430)"><circle cx="49.75" cy="49.75" r="49.25" stroke="none" clip-path="url(#clipPath9)"/></g><g stroke-dasharray="8 5" stroke-linecap="butt" stroke-miterlimit="5" transform="translate(570,430)"><circle cx="49.75" cy="49.75" r="49.25" fill="none" clip-path="url(#clipPath9)"/><text x="9" y="47" stroke="none" clip-path="url(#clipPath9)" font-family="sans-serif" font-size="14" xml:space="preserve">Destination</text><text x="13" y="63.109" stroke="none" clip-path="url(#clipPath9)" font-family="sans-serif" font-size="14" xml:space="preserve">(Receiver)</text></g><g fill="#FFF" fill-opacity="0" stroke="#FFF" stroke-opacity="0" transform="translate(360,430)"><circle cx="49.75" cy="49.75" r="49.25" stroke="none" clip-path="url(#clipPath9)"/></g><g stroke-dasharray="8 5" stroke-linecap="butt" stroke-miterlimit="5" transform="translate(360,430)"><circle cx="49.75" cy="49.75" r="49.25" fill="none" clip-path="url(#clipPath9)"/><text x="20" y="38.945" stroke="none" clip-path="url(#clipPath9)" font-family="sans-serif" font-size="14" xml:space="preserve">Amount.</text><text x="29" y="55.055" stroke="none" clip-path="url(#clipPath9)" font-family="sans-serif" font-size="14" xml:space="preserve">issuer</text><text x="19" y="71.164" stroke="none" clip-path="url(#clipPath9)" font-family="sans-serif" font-size="14" xml:space="preserve">currency</text></g><g font-family="sans-serif" font-size="14" font-weight="bold"><text x="5" y="18.109" stroke="none" clip-path="url(#clipPath12)" transform="translate(340,470)" xml:space="preserve">=</text></g><g fill="#FFF" fill-opacity="0" stroke="#FFF" stroke-opacity="0" transform="translate(240,430)"><circle cx="49.75" cy="49.75" r="49.25" stroke="none" clip-path="url(#clipPath9)"/></g><g stroke-dasharray="8 5" stroke-linecap="butt" stroke-miterlimit="5" transform="translate(240,430)"><circle cx="49.75" cy="49.75" r="49.25" fill="none" clip-path="url(#clipPath9)"/><text x="15" y="38.945" stroke="none" clip-path="url(#clipPath9)" font-family="sans-serif" font-size="14" xml:space="preserve">SendMax.</text><text x="29" y="55.055" stroke="none" clip-path="url(#clipPath9)" font-family="sans-serif" font-size="14" xml:space="preserve">issuer</text><text x="19" y="71.164" stroke="none" clip-path="url(#clipPath9)" font-family="sans-serif" font-size="14" xml:space="preserve">currency</text></g><g fill="#FFF" fill-opacity="0" stroke="#FFF" stroke-opacity="0" transform="translate(50,430)"><circle cx="49.75" cy="49.75" r="49.25" stroke="none" clip-path="url(#clipPath9)"/></g><g stroke-dasharray="8 5" stroke-linecap="butt" stroke-miterlimit="5" transform="translate(50,430)"><circle cx="49.75" cy="49.75" r="49.25" fill="none" clip-path="url(#clipPath9)"/><text x="21" y="47" stroke="none" clip-path="url(#clipPath9)" font-family="sans-serif" font-size="14" xml:space="preserve">Account</text><text x="19" y="63.109" stroke="none" clip-path="url(#clipPath9)" font-family="sans-serif" font-size="14" xml:space="preserve">(Sender)</text></g><g fill="#FFF" fill-opacity="0" stroke="#FFF" stroke-opacity="0" transform="translate(160,40)"><circle cx="49.75" cy="49.75" r="49.25" stroke="none" clip-path="url(#clipPath9)"/></g><g stroke-dasharray="8 5" stroke-linecap="butt" stroke-miterlimit="5" transform="translate(160,40)"><circle cx="49.75" cy="49.75" r="49.25" fill="none" clip-path="url(#clipPath9)"/><text x="20" y="47" stroke="none" clip-path="url(#clipPath9)" font-family="sans-serif" font-size="14" xml:space="preserve">Amount.</text><text x="29" y="63.109" stroke="none" clip-path="url(#clipPath9)" font-family="sans-serif" font-size="14" xml:space="preserve">issuer</text></g><g font-family="sans-serif" font-size="14"><text x="5" y="18.109" stroke="none" clip-path="url(#clipPath12)" transform="translate(140,80)" xml:space="preserve">=</text></g><g fill="#FFF" fill-opacity="0" stroke="#FFF" stroke-opacity="0" transform="translate(410,40)"><circle cx="49.75" cy="49.75" r="49.25" stroke="none" clip-path="url(#clipPath9)"/></g><g stroke-dasharray="8 5" stroke-linecap="butt" stroke-miterlimit="5" transform="translate(410,40)"><circle cx="49.75" cy="49.75" r="49.25" fill="none" clip-path="url(#clipPath9)"/><text x="9" y="47" stroke="none" clip-path="url(#clipPath9)" font-family="sans-serif" font-size="14" xml:space="preserve">Destination</text><text x="13" y="63.109" stroke="none" clip-path="url(#clipPath9)" font-family="sans-serif" font-size="14" xml:space="preserve">(Receiver)</text></g><g fill="#FFF" fill-opacity="0" stroke="#FFF" stroke-opacity="0" transform="translate(40,40)"><circle cx="49.75" cy="49.75" r="49.25" stroke="none" clip-path="url(#clipPath9)"/></g><g stroke-dasharray="8 5" stroke-linecap="butt" stroke-miterlimit="5" transform="translate(40,40)"><circle cx="49.75" cy="49.75" r="49.25" fill="none" clip-path="url(#clipPath9)"/><text x="21" y="47" stroke="none" clip-path="url(#clipPath9)" font-family="sans-serif" font-size="14" xml:space="preserve">Account</text><text x="19" y="63.109" stroke="none" clip-path="url(#clipPath9)" font-family="sans-serif" font-size="14" xml:space="preserve">(Sender)</text></g><g fill="#FFF" fill-opacity="0" stroke="#FFF" stroke-opacity="0" transform="translate(310,300)"><circle cx="49.75" cy="49.75" r="49.25" stroke="none" clip-path="url(#clipPath9)"/></g><g stroke-dasharray="8 5" stroke-linecap="butt" stroke-miterlimit="5" transform="translate(310,300)"><circle cx="49.75" cy="49.75" r="49.25" fill="none" clip-path="url(#clipPath9)"/><text x="20" y="47" stroke="none" clip-path="url(#clipPath9)" font-family="sans-serif" font-size="14" xml:space="preserve">Amount.</text><text x="29" y="63.109" stroke="none" clip-path="url(#clipPath9)" font-family="sans-serif" font-size="14" xml:space="preserve">issuer</text></g><g fill="#FFF" fill-opacity="0" stroke="#FFF" stroke-opacity="0" transform="translate(570,300)"><circle cx="49.75" cy="49.75" r="49.25" stroke="none" clip-path="url(#clipPath9)"/></g><g stroke-dasharray="8 5" stroke-linecap="butt" stroke-miterlimit="5" transform="translate(570,300)"><circle cx="49.75" cy="49.75" r="49.25" fill="none" clip-path="url(#clipPath9)"/><text x="9" y="47" stroke="none" clip-path="url(#clipPath9)" font-family="sans-serif" font-size="14" xml:space="preserve">Destination</text><text x="13" y="63.109" stroke="none" clip-path="url(#clipPath9)" font-family="sans-serif" font-size="14" xml:space="preserve">(Receiver)</text></g><g fill="#FFF" fill-opacity="0" stroke="#FFF" stroke-opacity="0" transform="translate(50,300)"><circle cx="49.75" cy="49.75" r="49.25" stroke="none" clip-path="url(#clipPath9)"/></g><g stroke-dasharray="8 5" stroke-linecap="butt" stroke-miterlimit="5" transform="translate(50,300)"><circle cx="49.75" cy="49.75" r="49.25" fill="none" clip-path="url(#clipPath9)"/><text x="21" y="47" stroke="none" clip-path="url(#clipPath9)" font-family="sans-serif" font-size="14" xml:space="preserve">Account</text><text x="19" y="63.109" stroke="none" clip-path="url(#clipPath9)" font-family="sans-serif" font-size="14" xml:space="preserve">(Sender)</text></g><g font-family="sans-serif" font-size="14"><text x="5" y="18.109" stroke="none" clip-path="url(#clipPath12)" transform="translate(390,210)" xml:space="preserve">=</text></g><g fill="#FFF" fill-opacity="0" stroke="#FFF" stroke-opacity="0" transform="translate(290,170)"><circle cx="49.75" cy="49.75" r="49.25" stroke="none" clip-path="url(#clipPath9)"/></g><g stroke-dasharray="8 5" stroke-linecap="butt" stroke-miterlimit="5" transform="translate(290,170)"><circle cx="49.75" cy="49.75" r="49.25" fill="none" clip-path="url(#clipPath9)"/><text x="20" y="47" stroke="none" clip-path="url(#clipPath9)" font-family="sans-serif" font-size="14" xml:space="preserve">Amount.</text><text x="29" y="63.109" stroke="none" clip-path="url(#clipPath9)" font-family="sans-serif" font-size="14" xml:space="preserve">issuer</text></g><g fill="#FFF" fill-opacity="0" stroke="#FFF" stroke-opacity="0" transform="translate(410,170)"><circle cx="49.75" cy="49.75" r="49.25" stroke="none" clip-path="url(#clipPath9)"/></g><g stroke-dasharray="8 5" stroke-linecap="butt" stroke-miterlimit="5" transform="translate(410,170)"><circle cx="49.75" cy="49.75" r="49.25" fill="none" clip-path="url(#clipPath9)"/><text x="9" y="47" stroke="none" clip-path="url(#clipPath9)" font-family="sans-serif" font-size="14" xml:space="preserve">Destination</text><text x="13" y="63.109" stroke="none" clip-path="url(#clipPath9)" font-family="sans-serif" font-size="14" xml:space="preserve">(Receiver)</text></g><g fill="#FFF" fill-opacity="0" stroke="#FFF" stroke-opacity="0" transform="translate(50,170)"><circle cx="49.75" cy="49.75" r="49.25" stroke="none" clip-path="url(#clipPath9)"/></g><g stroke-dasharray="8 5" stroke-linecap="butt" stroke-miterlimit="5" transform="translate(50,170)"><circle cx="49.75" cy="49.75" r="49.25" fill="none" clip-path="url(#clipPath9)"/><text x="21" y="47" stroke="none" clip-path="url(#clipPath9)" font-family="sans-serif" font-size="14" xml:space="preserve">Account</text><text x="19" y="63.109" stroke="none" clip-path="url(#clipPath9)" font-family="sans-serif" font-size="14" xml:space="preserve">(Sender)</text></g><g><path fill="none" d="M0.5 0.5 L19 19" clip-path="url(#clipPath13)" transform="translate(400,600)"/><path fill="none" d="M19 0.5 L0.5 19" clip-path="url(#clipPath13)" transform="translate(400,600)"/></g><g fill="#FFF" fill-opacity="0" stroke="#FFF" stroke-opacity="0" transform="translate(640,560)"><circle cx="49.75" cy="49.75" r="49.25" stroke="none" clip-path="url(#clipPath9)"/></g><g stroke-dasharray="8 5" stroke-linecap="butt" stroke-miterlimit="5" transform="translate(640,560)"><circle cx="49.75" cy="49.75" r="49.25" fill="none" clip-path="url(#clipPath9)"/><text x="9" y="47" stroke="none" clip-path="url(#clipPath9)" font-family="sans-serif" font-size="14" xml:space="preserve">Destination</text><text x="13" y="63.109" stroke="none" clip-path="url(#clipPath9)" font-family="sans-serif" font-size="14" xml:space="preserve">(Receiver)</text></g><g fill="#FFF" fill-opacity="0" stroke="#FFF" stroke-opacity="0" transform="translate(470,560)"><circle cx="49.75" cy="49.75" r="49.25" stroke="none" clip-path="url(#clipPath9)"/></g><g stroke-dasharray="8 5" stroke-linecap="butt" stroke-miterlimit="5" transform="translate(470,560)"><circle cx="49.75" cy="49.75" r="49.25" fill="none" clip-path="url(#clipPath9)"/><text x="20" y="47" stroke="none" clip-path="url(#clipPath9)" font-family="sans-serif" font-size="14" xml:space="preserve">Amount.</text><text x="29" y="63.109" stroke="none" clip-path="url(#clipPath9)" font-family="sans-serif" font-size="14" xml:space="preserve">issuer</text></g><g fill="#FFF" fill-opacity="0" stroke="#FFF" stroke-opacity="0" transform="translate(240,560)"><circle cx="49.75" cy="49.75" r="49.25" stroke="none" clip-path="url(#clipPath9)"/></g><g stroke-dasharray="8 5" stroke-linecap="butt" stroke-miterlimit="5" transform="translate(240,560)"><circle cx="49.75" cy="49.75" r="49.25" fill="none" clip-path="url(#clipPath9)"/><text x="15" y="47" stroke="none" clip-path="url(#clipPath9)" font-family="sans-serif" font-size="14" xml:space="preserve">SendMax.</text><text x="29" y="63.109" stroke="none" clip-path="url(#clipPath9)" font-family="sans-serif" font-size="14" xml:space="preserve">issuer</text></g><g fill="#FFF" fill-opacity="0" stroke="#FFF" stroke-opacity="0" transform="translate(50,560)"><circle cx="49.75" cy="49.75" r="49.25" stroke="none" clip-path="url(#clipPath9)"/></g><g stroke-dasharray="8 5" stroke-linecap="butt" stroke-miterlimit="5" transform="translate(50,560)"><circle cx="49.75" cy="49.75" r="49.25" fill="none" clip-path="url(#clipPath9)"/><text x="21" y="47" stroke="none" clip-path="url(#clipPath9)" font-family="sans-serif" font-size="14" xml:space="preserve">Account</text><text x="19" y="63.109" stroke="none" clip-path="url(#clipPath9)" font-family="sans-serif" font-size="14" xml:space="preserve">(Sender)</text></g><g><path fill="none" d="M10.5 140.5 L30.5 140.5" clip-path="url(#clipPath14)" transform="translate(750,680)"/><path fill="none" d="M30.5 140.5 L30.5 10.5" clip-path="url(#clipPath14)" transform="translate(750,680)"/><path fill="none" d="M30.5 10.5 L10.5 10.5" clip-path="url(#clipPath14)" transform="translate(750,680)"/></g><g stroke-dasharray="8 5" stroke-linecap="butt" stroke-miterlimit="5"><path fill="none" d="M40.5 10.5 L10.5 10.5" clip-path="url(#clipPath15)" transform="translate(810,130)"/></g><g stroke-width="2.5"><path fill="none" d="M40.5 10.5 L10.5 10.5" clip-path="url(#clipPath15)" transform="translate(810,90)"/></g><g stroke-width="2.5"><path fill="none" d="M60.5 10.5 L10.5 10.5" clip-path="url(#clipPath16)" transform="translate(440,740)"/></g><g stroke-dasharray="8 5" stroke-linecap="butt" stroke-miterlimit="5"><path fill="none" d="M60.5 10.5 L10.5 10.5" clip-path="url(#clipPath16)" transform="translate(140,740)"/></g><g stroke-width="2.5"><path fill="none" d="M60.5 10.5 L10.5 10.5" clip-path="url(#clipPath16)" transform="translate(290,740)"/></g><g stroke-dasharray="8 5" stroke-linecap="butt" stroke-miterlimit="5"><path fill="none" d="M10.5 10.5 L60.5 10.5" clip-path="url(#clipPath16)" transform="translate(590,740)"/></g><g><path fill="none" d="M10.5 140.5 L30.5 140.5" clip-path="url(#clipPath14)" transform="translate(730,530)"/><path fill="none" d="M30.5 140.5 L30.5 10.5" clip-path="url(#clipPath14)" transform="translate(730,530)"/><path fill="none" d="M30.5 10.5 L10.5 10.5" clip-path="url(#clipPath14)" transform="translate(730,530)"/></g><g><path fill="none" d="M10.5 220.5 L30.5 220.5" clip-path="url(#clipPath17)" transform="translate(680,300)"/><path fill="none" d="M30.5 220.5 L30.5 10.5" clip-path="url(#clipPath17)" transform="translate(680,300)"/><path fill="none" d="M30.5 10.5 L10.5 10.5" clip-path="url(#clipPath17)" transform="translate(680,300)"/></g><g><path fill="none" d="M10.5 220.5 L30.5 220.5" clip-path="url(#clipPath17)" transform="translate(530,40)"/><path fill="none" d="M30.5 220.5 L30.5 10.5" clip-path="url(#clipPath17)" transform="translate(530,40)"/><path fill="none" d="M30.5 10.5 L10.5 10.5" clip-path="url(#clipPath17)" transform="translate(530,40)"/></g><g stroke-width="2.5"><path fill="none" d="M140.5 10.5 L10.5 10.5" clip-path="url(#clipPath18)" transform="translate(330,600)"/></g><g stroke-dasharray="8 5" stroke-linecap="butt" stroke-miterlimit="5"><path fill="none" d="M120.5 10.5 L10.5 10.5" clip-path="url(#clipPath19)" transform="translate(450,470)"/></g><g stroke-dasharray="8 5" stroke-linecap="butt" stroke-miterlimit="5"><path fill="none" d="M100.5 10.5 L10.5 10.5" clip-path="url(#clipPath20)" transform="translate(140,470)"/></g><g stroke-dasharray="8 5" stroke-linecap="butt" stroke-miterlimit="5"><path fill="none" d="M170.5 10.5 L10.5 10.5" clip-path="url(#clipPath21)" transform="translate(400,340)"/></g><g stroke-width="2.5"><path fill="none" d="M160.5 10.5 L10.5 10.5" clip-path="url(#clipPath4)" transform="translate(250,80)"/></g><g stroke-width="2.5"><path fill="none" d="M170.5 10.5 L10.5 10.5" clip-path="url(#clipPath21)" transform="translate(140,340)"/></g><g stroke-width="2.5"><path fill="none" d="M150.5 10.5 L10.5 10.5" clip-path="url(#clipPath22)" transform="translate(140,210)"/></g><g stroke-dasharray="8 5" stroke-linecap="butt" stroke-miterlimit="5"><path fill="none" d="M10.5 10.5 L80.5 10.5" clip-path="url(#clipPath23)" transform="translate(560,600)"/></g><g stroke-dasharray="8 5" stroke-linecap="butt" stroke-miterlimit="5"><path fill="none" d="M100.5 10.5 L10.5 10.5" clip-path="url(#clipPath20)" transform="translate(140,600)"/></g></g></svg>