<svg xmlns="http://www.w3.org/2000/svg" xmlns:xlink="http://www.w3.org/1999/xlink" width="870" height="630" fill="#000" fill-opacity="1" stroke="#000" stroke-dasharray="none" stroke-dashoffset="0" stroke-linecap="square" stroke-linejoin="miter" stroke-miterlimit="10" stroke-opacity="1" stroke-width="1" color-interpolation="auto" color-rendering="auto" font-family="'Dialog'" font-size="12" font-style="normal" font-weight="normal" image-rendering="auto" shape-rendering="auto" text-rendering="auto" viewBox="20 50 870 630"><g><defs id="defs1"><clipPath id="clipPath1" clipPathUnits="userSpaceOnUse"><path d="M0 0 L2147483647 0 L2147483647 2147483647 L0 2147483647 L0 0 Z"/></clipPath><clipPath id="clipPath2" clipPathUnits="userSpaceOnUse"><path d="M0 0 L0 30 L130 30 L130 0 Z"/></clipPath><clipPath id="clipPath3" clipPathUnits="userSpaceOnUse"><path d="M0 0 L0 150 L500 150 L500 0 Z"/></clipPath><clipPath id="clipPath4" clipPathUnits="userSpaceOnUse"><path d="M0 0 L0 70 L160 70 L160 0 Z"/></clipPath><clipPath id="clipPath5" clipPathUnits="userSpaceOnUse"><path d="M0 0 L0 40 L160 40 L160 0 Z"/></clipPath><clipPath id="clipPath6" clipPathUnits="userSpaceOnUse"><path d="M0 0 L0 70 L200 70 L200 0 Z"/></clipPath><clipPath id="clipPath7" clipPathUnits="userSpaceOnUse"><path d="M0 0 L0 50 L50 50 L50 0 Z"/></clipPath><clipPath id="clipPath8" clipPathUnits="userSpaceOnUse"><path d="M0 0 L0 70 L480 70 L480 0 Z"/></clipPath><clipPath id="clipPath9" clipPathUnits="userSpaceOnUse"><path d="M0 0 L0 70 L130 70 L130 0 Z"/></clipPath><clipPath id="clipPath10" clipPathUnits="userSpaceOnUse"><path d="M0 0 L0 70 L170 70 L170 0 Z"/></clipPath><clipPath id="clipPath11" clipPathUnits="userSpaceOnUse"><path d="M0 0 L0 90 L200 90 L200 0 Z"/></clipPath><clipPath id="clipPath12" clipPathUnits="userSpaceOnUse"><path d="M0 0 L0 30 L830 30 L830 0 Z"/></clipPath><clipPath id="clipPath13" clipPathUnits="userSpaceOnUse"><path d="M0 0 L0 40 L40 40 L40 0 Z"/></clipPath><clipPath id="clipPath14" clipPathUnits="userSpaceOnUse"><path d="M0 0 L0 90 L220 90 L220 0 Z"/></clipPath><clipPath id="clipPath15" clipPathUnits="userSpaceOnUse"><path d="M0 0 L0 30 L120 30 L120 0 Z"/></clipPath><clipPath id="clipPath16" clipPathUnits="userSpaceOnUse"><path d="M0 0 L0 350 L50 350 L50 0 Z"/></clipPath><clipPath id="clipPath17" clipPathUnits="userSpaceOnUse"><path d="M0 0 L0 230 L140 230 L140 0 Z"/></clipPath><clipPath id="clipPath18" clipPathUnits="userSpaceOnUse"><path d="M0 0 L0 60 L50 60 L50 0 Z"/></clipPath><clipPath id="clipPath19" clipPathUnits="userSpaceOnUse"><path d="M0 0 L0 70 L90 70 L90 0 Z"/></clipPath><clipPath id="clipPath20" clipPathUnits="userSpaceOnUse"><path d="M0 0 L0 80 L120 80 L120 0 Z"/></clipPath><clipPath id="clipPath21" clipPathUnits="userSpaceOnUse"><path d="M0 0 L0 80 L210 80 L210 0 Z"/></clipPath><clipPath id="clipPath22" clipPathUnits="userSpaceOnUse"><path d="M0 0 L0 80 L90 80 L90 0 Z"/></clipPath><clipPath id="clipPath23" clipPathUnits="userSpaceOnUse"><path d="M0 0 L0 80 L50 80 L50 0 Z"/></clipPath></defs><g font-family="sans-serif" font-size="8"><text x="5" y="12.5" stroke="none" clip-path="url(#clipPath2)" transform="translate(350,280)" xml:space="preserve">*Do not use for</text><text x="5" y="23" stroke="none" clip-path="url(#clipPath2)" transform="translate(350,280)" xml:space="preserve">mission-critical services.</text></g><g fill="#FFF" fill-opacity="0" stroke="#FFF" stroke-opacity="0" transform="translate(270,510)"><rect width="498.5" height="148.5" x=".5" y=".5" stroke="none" clip-path="url(#clipPath3)"/></g><g stroke-dasharray="8 5" stroke-linecap="butt" stroke-miterlimit="5" transform="translate(270,510)"><rect width="498.5" height="148.5" x=".5" y=".5" fill="none" clip-path="url(#clipPath3)"/><text x="5" y="18.109" stroke="none" clip-path="url(#clipPath3)" font-family="sans-serif" font-size="14" xml:space="preserve">XRP Ledger</text></g><g font-family="sans-serif" font-size="14" font-weight="bold"><text x="5" y="18.109" stroke="none" clip-path="url(#clipPath4)" transform="translate(80,510)" xml:space="preserve">Peer-to-Peer</text><text x="5" y="34.219" stroke="none" clip-path="url(#clipPath4)" transform="translate(80,510)" xml:space="preserve">Network</text></g><g font-family="sans-serif" font-size="14" font-weight="bold"><text x="5" y="18.109" stroke="none" clip-path="url(#clipPath5)" transform="translate(80,370)" xml:space="preserve">Programming</text><text x="5" y="34.219" stroke="none" clip-path="url(#clipPath5)" transform="translate(80,370)" xml:space="preserve">Libraries</text></g><g font-family="sans-serif" font-size="14" font-weight="bold"><text x="5" y="18.109" stroke="none" clip-path="url(#clipPath5)" transform="translate(80,250)" xml:space="preserve">Middleware APIs</text></g><g font-family="sans-serif" font-size="14" font-weight="bold"><text x="5" y="18.109" stroke="none" clip-path="url(#clipPath5)" transform="translate(80,90)" xml:space="preserve">Apps &amp; Services</text></g><g fill="#FFF" fill-opacity="0" stroke="#FFF" stroke-opacity="0" transform="translate(300,560)"><rect width="198.5" height="68.5" x=".5" y=".5" stroke="none" clip-path="url(#clipPath6)"/></g><g transform="translate(300,560)"><rect width="198.5" height="68.5" x=".5" y=".5" fill="none" clip-path="url(#clipPath6)"/><text x="5" y="18.109" stroke="none" clip-path="url(#clipPath6)" font-family="sans-serif" font-size="14" xml:space="preserve">rippled servers</text><text x="5" y="34.219" stroke="none" clip-path="url(#clipPath6)" font-family="sans-serif" font-size="14" xml:space="preserve">(direct &amp; indirect peers)</text></g><g fill="#fff" stroke="#fff"><path stroke="none" d="M49 10.5 A24.25 10 0 0 0 0.5 10.5" clip-path="url(#clipPath7)" transform="translate(290,250)"/><path fill="none" stroke="#000" d="M49 10.5 A24.25 10 0 0 0 0.5 10.5" clip-path="url(#clipPath7)" transform="translate(290,250)"/><path stroke="none" d="M0.5 10.5 A24.25 10 0 0 0 49 10.5" clip-path="url(#clipPath7)" transform="translate(290,250)"/><path fill="none" stroke="#000" d="M0.5 10.5 A24.25 10 0 0 0 49 10.5" clip-path="url(#clipPath7)" transform="translate(290,250)"/><path fill="none" stroke="#000" d="M0.5 10.5 L0.5 40.5" clip-path="url(#clipPath7)" transform="translate(290,250)"/><path fill="none" stroke="#000" d="M49 10.5 L49 40.5" clip-path="url(#clipPath7)" transform="translate(290,250)"/><path stroke="none" d="M0.5 39.75 A24.25 9.25 0 0 0 49 39.75" clip-path="url(#clipPath7)" transform="translate(290,250)"/><path fill="none" stroke="#000" d="M0.5 39.75 A24.25 9.25 0 0 0 49 39.75" clip-path="url(#clipPath7)" transform="translate(290,250)"/></g><g font-family="sans-serif" font-size="7.5"><text x="6" y="32.031" stroke="none" clip-path="url(#clipPath7)" transform="translate(290,250)" xml:space="preserve">Relational</text><text x="17" y="42.063" stroke="none" clip-path="url(#clipPath7)" transform="translate(290,250)" xml:space="preserve">DBs</text></g><g fill="#fff" stroke="#fff" transform="translate(270,70)"><rect width="478.5" height="68.5" x=".5" y=".5" stroke="none" clip-path="url(#clipPath8)"/><rect width="478.5" height="68.5" x=".5" y=".5" fill="none" stroke="#000" clip-path="url(#clipPath8)"/></g><g fill="#fff" stroke="#fff"><path stroke="none" d="M49 10.5 A24.25 10 0 0 0 0.5 10.5" clip-path="url(#clipPath7)" transform="translate(670,570)"/><path fill="none" stroke="#000" d="M49 10.5 A24.25 10 0 0 0 0.5 10.5" clip-path="url(#clipPath7)" transform="translate(670,570)"/><path stroke="none" d="M0.5 10.5 A24.25 10 0 0 0 49 10.5" clip-path="url(#clipPath7)" transform="translate(670,570)"/><path fill="none" stroke="#000" d="M0.5 10.5 A24.25 10 0 0 0 49 10.5" clip-path="url(#clipPath7)" transform="translate(670,570)"/><path fill="none" stroke="#000" d="M0.5 10.5 L0.5 40.5" clip-path="url(#clipPath7)" transform="translate(670,570)"/><path fill="none" stroke="#000" d="M49 10.5 L49 40.5" clip-path="url(#clipPath7)" transform="translate(670,570)"/><path stroke="none" d="M0.5 39.75 A24.25 9.25 0 0 0 49 39.75" clip-path="url(#clipPath7)" transform="translate(670,570)"/><path fill="none" stroke="#000" d="M0.5 39.75 A24.25 9.25 0 0 0 49 39.75" clip-path="url(#clipPath7)" transform="translate(670,570)"/></g><g font-family="sans-serif" font-size="7.5"><text x="10" y="32.031" stroke="none" clip-path="url(#clipPath7)" transform="translate(670,570)" xml:space="preserve">Internal</text><text x="17" y="42.063" stroke="none" clip-path="url(#clipPath7)" transform="translate(670,570)" xml:space="preserve">DBs</text></g><g fill="#FFF" fill-opacity="0" stroke="#FFF" stroke-opacity="0" transform="translate(350,240)"><rect width="128.5" height="68.5" x=".5" y=".5" stroke="none" clip-path="url(#clipPath9)"/></g><g transform="translate(350,240)"><rect width="128.5" height="68.5" x=".5" y=".5" fill="none" clip-path="url(#clipPath9)"/><text x="5" y="34.219" stroke="none" clip-path="url(#clipPath9)" font-family="sans-serif" font-size="14" xml:space="preserve">Data API*</text></g><g fill="#fff" stroke="#fff" transform="translate(280,80)"><rect width="478.5" height="68.5" x=".5" y=".5" stroke="none" clip-path="url(#clipPath8)"/><rect width="478.5" height="68.5" x=".5" y=".5" fill="none" stroke="#000" clip-path="url(#clipPath8)"/></g><g fill="#fff" stroke="#fff" transform="translate(290,90)"><rect width="478.5" height="68.5" x=".5" y=".5" stroke="none" clip-path="url(#clipPath8)"/><rect width="478.5" height="68.5" x=".5" y=".5" fill="none" stroke="#000" clip-path="url(#clipPath8)"/></g><g font-family="sans-serif" font-size="14"><text x="183" y="18.109" stroke="none" clip-path="url(#clipPath8)" transform="translate(290,90)" xml:space="preserve">Apps &amp; Services</text><text x="112" y="34.219" stroke="none" clip-path="url(#clipPath8)" transform="translate(290,90)" xml:space="preserve">(Exchanges, wallets, explorers, etc.)</text></g><g fill="#FFF" fill-opacity="0" stroke="#FFF" stroke-opacity="0" transform="translate(350,360)"><rect width="168.5" height="68.5" x=".5" y=".5" stroke="none" clip-path="url(#clipPath10)"/></g><g transform="translate(350,360)"><rect width="168.5" height="68.5" x=".5" y=".5" fill="none" clip-path="url(#clipPath10)"/><text x="5" y="34.219" stroke="none" clip-path="url(#clipPath10)" font-family="sans-serif" font-size="14" xml:space="preserve">ripple-lib (JavaScript)</text></g><g fill="#FFF" fill-opacity="0" stroke="#FFF" stroke-opacity="0" transform="translate(550,540)"><rect width="198.5" height="88.5" x=".5" y=".5" stroke="none" clip-path="url(#clipPath11)"/></g><g transform="translate(550,540)"><rect width="198.5" height="88.5" x=".5" y=".5" fill="none" clip-path="url(#clipPath11)"/><text x="5" y="34.219" stroke="none" clip-path="url(#clipPath11)" font-family="sans-serif" font-size="14" xml:space="preserve">rippled server</text></g><g stroke-dasharray="1 2" stroke-linecap="butt" stroke-miterlimit="5"><path fill="none" d="M10.5 10.5 L810.5 10.5" clip-path="url(#clipPath12)" transform="translate(40,480)"/></g><g stroke-dasharray="1 2" stroke-linecap="butt" stroke-miterlimit="5"><path fill="none" d="M10.5 10.5 L810.5 10.5" clip-path="url(#clipPath12)" transform="translate(40,320)"/></g><g stroke-dasharray="1 2" stroke-linecap="butt" stroke-miterlimit="5"><path fill="none" d="M10.5 10.5 L810.5 10.5" clip-path="url(#clipPath12)" transform="translate(40,190)"/></g><g><path fill="none" d="M10.5 20.5 L20.5 20.5" clip-path="url(#clipPath13)" transform="translate(330,260)"/></g><g><path fill="none" d="M20.5 70.5 L10.5 70.5" clip-path="url(#clipPath14)" transform="translate(270,530)"/><path fill="none" d="M10.5 70.5 L10.5 10.5" clip-path="url(#clipPath14)" transform="translate(270,530)"/><path fill="none" d="M10.5 10.5 L200.5 10.5" clip-path="url(#clipPath14)" transform="translate(270,530)"/><path fill="none" d="M200.5 10.5 L200.5 20.5" clip-path="url(#clipPath14)" transform="translate(270,530)"/></g><g><path fill="none" d="M20.5 70.5 L10.5 70.5" clip-path="url(#clipPath14)" transform="translate(280,540)"/><path fill="none" d="M10.5 70.5 L10.5 10.5" clip-path="url(#clipPath14)" transform="translate(280,540)"/><path fill="none" d="M10.5 10.5 L200.5 10.5" clip-path="url(#clipPath14)" transform="translate(280,540)"/><path fill="none" d="M200.5 10.5 L200.5 20.5" clip-path="url(#clipPath14)" transform="translate(280,540)"/></g><g transform="translate(470,600)"><path fill="none" d="M89.5 10.5 L20.5 10.5" clip-path="url(#clipPath15)"/><rect width="36" height="20" x="72.5" y=".5" fill="#fff" stroke="none" clip-path="url(#clipPath15)"/><rect width="36" height="20" x="72.5" y=".5" fill="none" clip-path="url(#clipPath15)"/><text x="77.116" y="15.625" stroke="none" clip-path="url(#clipPath15)" font-family="sans-serif" xml:space="preserve">Peer</text><rect width="36" height="20" x="2.5" y=".5" fill="#fff" stroke="none" clip-path="url(#clipPath15)"/><rect width="36" height="20" x="2.5" y=".5" fill="none" clip-path="url(#clipPath15)"/><text x="7.116" y="15.625" stroke="none" clip-path="url(#clipPath15)" font-family="sans-serif" xml:space="preserve">Peer</text></g><g><path fill="none" d="M20.5 319.5 L20.5 10.5" clip-path="url(#clipPath16)" transform="translate(660,150)"/></g><g fill="#FFF" fill-opacity="0" stroke="#FFF" stroke-opacity="0"><path stroke="none" d="M35.5 334.75 A15 14.25 0 0 0 5.5 334.75" clip-path="url(#clipPath16)" transform="translate(660,150)"/></g><g><path fill="none" d="M35.5 334.75 A15 14.25 0 0 0 5.5 334.75" clip-path="url(#clipPath16)" transform="translate(660,150)"/></g><g><path fill="none" d="M10.5 210.5 L120.5 180.5" clip-path="url(#clipPath17)" transform="translate(400,150)"/><path fill="none" d="M120.5 180.5 L120.5 10.5" clip-path="url(#clipPath17)" transform="translate(400,150)"/></g><g><path fill="none" d="M20.5 29.5 L20.5 10.5" clip-path="url(#clipPath18)" transform="translate(380,150)"/></g><g fill="#FFF" fill-opacity="0" stroke="#FFF" stroke-opacity="0"><path stroke="none" d="M35.5 44.75 A15 14.25 0 0 0 5.5 44.75" clip-path="url(#clipPath18)" transform="translate(380,150)"/></g><g><path fill="none" d="M35.5 44.75 A15 14.25 0 0 0 5.5 44.75" clip-path="url(#clipPath18)" transform="translate(380,150)"/></g><g transform="translate(360,190)"><path fill="none" d="M40.5 11.5 L40.5 50.5" clip-path="url(#clipPath19)"/><circle cx="40.5" cy="10.5" r="10" fill="#fff" stroke="none" clip-path="url(#clipPath19)"/><circle cx="40.5" cy="10.5" r="10" fill="none" clip-path="url(#clipPath19)"/><rect width="64" height="20" x="8.5" y="40.5" fill="#fff" stroke="none" clip-path="url(#clipPath19)"/><rect width="64" height="20" x="8.5" y="40.5" fill="none" clip-path="url(#clipPath19)"/><text x="12.804" y="55.625" stroke="none" clip-path="url(#clipPath19)" font-family="sans-serif" xml:space="preserve">REST-like</text></g><g transform="translate(360,300)"><path fill="none" d="M69.6056 60.0528 L10.5 30.5" clip-path="url(#clipPath20)"/><path fill="none" d="M10.5 30.5 L10.5 10.5" clip-path="url(#clipPath20)"/><rect width="64" height="20" x="38.5" y="50.5" fill="#fff" stroke="none" clip-path="url(#clipPath20)"/><rect width="64" height="20" x="38.5" y="50.5" fill="none" clip-path="url(#clipPath20)"/><text x="42.872" y="65.625" stroke="none" clip-path="url(#clipPath20)" font-family="sans-serif" xml:space="preserve">RippleAPI</text></g><g><path fill="none" d="M20.5 319.5 L20.5 10.5" clip-path="url(#clipPath16)" transform="translate(580,150)"/></g><g fill="#FFF" fill-opacity="0" stroke="#FFF" stroke-opacity="0"><path stroke="none" d="M35.5 334.75 A15 14.25 0 0 0 5.5 334.75" clip-path="url(#clipPath16)" transform="translate(580,150)"/></g><g><path fill="none" d="M35.5 334.75 A15 14.25 0 0 0 5.5 334.75" clip-path="url(#clipPath16)" transform="translate(580,150)"/></g><g><path fill="none" d="M180.5 49.5 L180.5 30.5" clip-path="url(#clipPath21)" transform="translate(420,420)"/><path fill="none" d="M180.5 30.5 L10.5 10.5" clip-path="url(#clipPath21)" transform="translate(420,420)"/></g><g fill="#FFF" fill-opacity="0" stroke="#FFF" stroke-opacity="0"><path stroke="none" d="M195.5 64.75 A15 14.25 0 0 0 165.5 64.75" clip-path="url(#clipPath21)" transform="translate(420,420)"/></g><g><path fill="none" d="M195.5 64.75 A15 14.25 0 0 0 165.5 64.75" clip-path="url(#clipPath21)" transform="translate(420,420)"/></g><g transform="translate(640,480)"><path fill="none" d="M40.5 11.5 L40.5 60.5" clip-path="url(#clipPath22)"/><circle cx="40.5" cy="10.5" r="10" fill="#fff" stroke="none" clip-path="url(#clipPath22)"/><circle cx="40.5" cy="10.5" r="10" fill="none" clip-path="url(#clipPath22)"/><rect width="68" height="20" x="6.5" y="50.5" fill="#fff" stroke="none" clip-path="url(#clipPath22)"/><rect width="68" height="20" x="6.5" y="50.5" fill="none" clip-path="url(#clipPath22)"/><text x="11.079" y="65.625" stroke="none" clip-path="url(#clipPath22)" font-family="sans-serif" xml:space="preserve">JSON-RPC</text></g><g transform="translate(580,480)"><path fill="none" d="M20.5 11.5 L20.5 60.5" clip-path="url(#clipPath23)"/><circle cx="20.5" cy="10.5" r="10" fill="#fff" stroke="none" clip-path="url(#clipPath23)"/><circle cx="20.5" cy="10.5" r="10" fill="none" clip-path="url(#clipPath23)"/><rect width="28" height="20" x="6.5" y="50.5" fill="#fff" stroke="none" clip-path="url(#clipPath23)"/><rect width="28" height="20" x="6.5" y="50.5" fill="none" clip-path="url(#clipPath23)"/><text x="10.794" y="65.625" stroke="none" clip-path="url(#clipPath23)" font-family="sans-serif" xml:space="preserve">WS</text></g></g></svg>