<svg xmlns="http://www.w3.org/2000/svg" xmlns:xlink="http://www.w3.org/1999/xlink" width="780" height="170" fill="#000" fill-opacity="1" stroke="#000" stroke-dasharray="none" stroke-dashoffset="0" stroke-linecap="square" stroke-linejoin="miter" stroke-miterlimit="10" stroke-opacity="1" stroke-width="1" color-interpolation="auto" color-rendering="auto" font-family="'Dialog'" font-size="12" font-style="normal" font-weight="normal" image-rendering="auto" shape-rendering="auto" text-rendering="auto" viewBox="0 10 780 170"><g><defs id="defs1"><clipPath id="clipPath1" clipPathUnits="userSpaceOnUse"><path d="M0 0 L2147483647 0 L2147483647 2147483647 L0 2147483647 L0 0 Z"/></clipPath><clipPath id="clipPath2" clipPathUnits="userSpaceOnUse"><path d="M0 0 L0 30 L170 30 L170 0 Z"/></clipPath><clipPath id="clipPath3" clipPathUnits="userSpaceOnUse"><path d="M0 0 L0 40 L260 40 L260 0 Z"/></clipPath><clipPath id="clipPath4" clipPathUnits="userSpaceOnUse"><path d="M0 0 L0 40 L240 40 L240 0 Z"/></clipPath><clipPath id="clipPath5" clipPathUnits="userSpaceOnUse"><path d="M0 0 L0 40 L210 40 L210 0 Z"/></clipPath><clipPath id="clipPath6" clipPathUnits="userSpaceOnUse"><path d="M0 0 L0 60 L90 60 L90 0 Z"/></clipPath><clipPath id="clipPath7" clipPathUnits="userSpaceOnUse"><path d="M0 0 L0 50 L740 50 L740 0 Z"/></clipPath></defs><g font-family="sans-serif" font-size="14"><text x="5" y="18.109" stroke="none" clip-path="url(#clipPath2)" transform="translate(270,30)" xml:space="preserve">fetch_depth setting</text></g><g fill="#0f0" stroke="#0f0" transform="translate(480,70)"><rect width="258.5" height="38.5" x=".5" y=".5" stroke="none" clip-path="url(#clipPath3)"/><rect width="258.5" height="38.5" x=".5" y=".5" fill="none" stroke="#000" clip-path="url(#clipPath3)"/></g><g font-family="sans-serif" font-size="14"><text x="45" y="18.109" stroke="none" clip-path="url(#clipPath3)" transform="translate(480,70)" xml:space="preserve">Ledgers served to peers</text><text x="73" y="34.219" stroke="none" clip-path="url(#clipPath3)" transform="translate(480,70)" xml:space="preserve">when requested</text></g><g fill="#464646" stroke="#464646" transform="translate(240,70)"><rect width="238.5" height="38.5" x=".5" y=".5" stroke="none" clip-path="url(#clipPath4)"/><rect width="238.5" height="38.5" x=".5" y=".5" fill="none" stroke="#fff" clip-path="url(#clipPath4)"/></g><g fill="#fff" stroke="#fff" font-family="sans-serif" font-size="14"><text x="19" y="18.109" stroke="none" clip-path="url(#clipPath4)" transform="translate(240,70)" xml:space="preserve">Ledgers available locally but</text><text x="51" y="34.219" stroke="none" clip-path="url(#clipPath4)" transform="translate(240,70)" xml:space="preserve">not served to peers</text></g><g fill="#C8C8C8" stroke="#C8C8C8" transform="translate(30,70)"><rect width="208.5" height="38.5" x=".5" y=".5" stroke="none" clip-path="url(#clipPath5)"/></g><g stroke-dasharray="1 2" stroke-linecap="butt" stroke-miterlimit="5" transform="translate(30,70)"><rect width="208.5" height="38.5" x=".5" y=".5" fill="none" clip-path="url(#clipPath5)"/><text x="38" y="18.109" stroke="none" clip-path="url(#clipPath5)" font-family="sans-serif" font-size="14" xml:space="preserve">Ledgers not stored</text></g><g><path fill="none" d="M70.5 39.5 L70.5 10.5" clip-path="url(#clipPath6)" transform="translate(410,30)"/><path fill="none" d="M70.5 10.5 L10.5 10.5" clip-path="url(#clipPath6)" transform="translate(410,30)"/><path stroke="none" d="M77 28.7417 L70.5 40 L64 28.7417 Z" clip-path="url(#clipPath6)" transform="translate(410,30)"/><path fill="none" d="M77 28.7417 L70.5 40 L64 28.7417 Z" clip-path="url(#clipPath6)" transform="translate(410,30)"/></g><g><path fill="none" d="M10.5 20.5 L719.5 20.5" clip-path="url(#clipPath7)" transform="translate(20,110)"/><path fill="#fff" stroke="none" d="M708.7417 27 L720 20.5 L708.7417 14 Z" clip-path="url(#clipPath7)" transform="translate(20,110)"/><path fill="none" d="M708.7417 27 L720 20.5 L708.7417 14 Z" clip-path="url(#clipPath7)" transform="translate(20,110)"/><text x="310.242" y="32.109" stroke="none" clip-path="url(#clipPath7)" font-family="sans-serif" font-size="14" transform="translate(20,110)" xml:space="preserve">Ledger versions</text><text x="29" y="34.109" stroke="none" clip-path="url(#clipPath7)" font-family="sans-serif" font-size="14" transform="translate(20,110)" xml:space="preserve">oldest</text><text x="651.266" y="34.109" stroke="none" clip-path="url(#clipPath7)" font-family="sans-serif" font-size="14" transform="translate(20,110)" xml:space="preserve">newest</text></g></g></svg>