<svg xmlns="http://www.w3.org/2000/svg" xmlns:xlink="http://www.w3.org/1999/xlink" width="610" height="260" fill="#000" fill-opacity="1" stroke="#000" stroke-dasharray="none" stroke-dashoffset="0" stroke-linecap="square" stroke-linejoin="miter" stroke-miterlimit="10" stroke-opacity="1" stroke-width="1" color-interpolation="auto" color-rendering="auto" font-family="'Dialog'" font-size="12" font-style="normal" font-weight="normal" image-rendering="auto" shape-rendering="auto" text-rendering="auto" viewBox="80 60 610 260"><g><defs id="defs1"><clipPath id="clipPath1" clipPathUnits="userSpaceOnUse"><path d="M0 0 L2147483647 0 L2147483647 2147483647 L0 2147483647 L0 0 Z"/></clipPath><clipPath id="clipPath2" clipPathUnits="userSpaceOnUse"><path d="M0 0 L0 30 L210 30 L210 0 Z"/></clipPath><clipPath id="clipPath3" clipPathUnits="userSpaceOnUse"><path d="M0 0 L0 30 L240 30 L240 0 Z"/></clipPath><clipPath id="clipPath4" clipPathUnits="userSpaceOnUse"><path d="M0 0 L0 30 L100 30 L100 0 Z"/></clipPath><clipPath id="clipPath5" clipPathUnits="userSpaceOnUse"><path d="M0 0 L0 70 L100 70 L100 0 Z"/></clipPath><clipPath id="clipPath6" clipPathUnits="userSpaceOnUse"><path d="M0 0 L0 20 L70 20 L70 0 Z"/></clipPath><clipPath id="clipPath7" clipPathUnits="userSpaceOnUse"><path d="M0 0 L0 20 L100 20 L100 0 Z"/></clipPath><clipPath id="clipPath8" clipPathUnits="userSpaceOnUse"><path d="M0 0 L0 40 L100 40 L100 0 Z"/></clipPath><clipPath id="clipPath9" clipPathUnits="userSpaceOnUse"><path d="M0 0 L0 220 L240 220 L240 0 Z"/></clipPath><clipPath id="clipPath10" clipPathUnits="userSpaceOnUse"><path d="M0 0 L0 30 L70 30 L70 0 Z"/></clipPath><clipPath id="clipPath11" clipPathUnits="userSpaceOnUse"><path d="M0 0 L0 60 L100 60 L100 0 Z"/></clipPath><clipPath id="clipPath12" clipPathUnits="userSpaceOnUse"><path d="M0 0 L0 180 L210 180 L210 0 Z"/></clipPath><clipPath id="clipPath13" clipPathUnits="userSpaceOnUse"><path d="M0 0 L0 70 L50 70 L50 0 Z"/></clipPath><clipPath id="clipPath14" clipPathUnits="userSpaceOnUse"><path d="M0 0 L0 50 L50 50 L50 0 Z"/></clipPath></defs><g fill="#0f0" stroke="#0f0" transform="translate(100,160)"><rect width="208.5" height="28.5" x=".5" y=".5" stroke="none" clip-path="url(#clipPath2)"/><rect width="208.5" height="28.5" x=".5" y=".5" fill="none" stroke="#000" clip-path="url(#clipPath2)"/></g><g font-family="sans-serif" font-size="14"><text x="5" y="20.055" stroke="none" clip-path="url(#clipPath2)" transform="translate(100,160)" xml:space="preserve">- ACME (XRPL)</text></g><g fill="#0f0" stroke="#0f0" transform="translate(390,230)"><rect width="238.5" height="28.5" x=".5" y=".5" stroke="none" clip-path="url(#clipPath3)"/><rect width="238.5" height="28.5" x=".5" y=".5" fill="none" stroke="#000" clip-path="url(#clipPath3)"/></g><g font-family="sans-serif" font-size="14"><text x="5" y="18.109" stroke="none" clip-path="url(#clipPath3)" transform="translate(390,230)" xml:space="preserve">- Alice (XRPL)</text></g><g font-family="sans-serif" font-size="14"><text x="50" y="18.109" stroke="none" clip-path="url(#clipPath4)" transform="translate(210,160)" xml:space="preserve">3,00 €</text></g><g font-family="sans-serif" font-size="14"><text x="50" y="18.109" stroke="none" clip-path="url(#clipPath4)" transform="translate(530,230)" xml:space="preserve">3,00 €</text></g><g font-family="sans-serif" font-size="14"><text x="50" y="18.109" stroke="none" clip-path="url(#clipPath5)" transform="translate(530,160)" xml:space="preserve">1,00 €</text><text x="50" y="34.219" stroke="none" clip-path="url(#clipPath5)" transform="translate(530,160)" xml:space="preserve">2,00 €</text><text x="50" y="50.328" stroke="none" clip-path="url(#clipPath5)" transform="translate(530,160)" xml:space="preserve">2,00 €</text><text x="50" y="66.438" stroke="none" clip-path="url(#clipPath5)" transform="translate(530,160)" xml:space="preserve">3,00 €</text></g><g font-family="sans-serif" font-size="14" font-weight="bold"><text x="15" y="15.055" stroke="none" clip-path="url(#clipPath6)" transform="translate(560,260)" xml:space="preserve">2,00 €</text></g><g font-family="sans-serif" font-size="14" font-weight="bold"><text x="45" y="15.055" stroke="none" clip-path="url(#clipPath7)" transform="translate(530,140)" xml:space="preserve">8,00 €</text></g><g font-family="sans-serif" font-size="14" font-weight="bold"><text x="36" y="18.109" stroke="none" clip-path="url(#clipPath8)" transform="translate(530,100)" xml:space="preserve">10,00 €</text></g><g fill="#FFF" fill-opacity="0" stroke="#FFF" stroke-opacity="0" transform="translate(390,80)"><rect width="238.5" height="218.5" x=".5" y=".5" stroke="none" clip-path="url(#clipPath9)"/></g><g transform="translate(390,80)"><rect width="238.5" height="218.5" x=".5" y=".5" fill="none" clip-path="url(#clipPath9)"/><text x="99" y="18.109" stroke="none" clip-path="url(#clipPath9)" font-family="sans-serif" font-size="14" xml:space="preserve">ACME</text><path fill="none" d="M1 24.1094 L239 24.1094" clip-path="url(#clipPath9)"/><text x="5" y="39.219" stroke="none" clip-path="url(#clipPath9)" font-family="sans-serif" font-size="14" font-weight="bold" xml:space="preserve">Assets:</text><text x="5" y="55.328" stroke="none" clip-path="url(#clipPath9)" font-family="sans-serif" font-size="14" xml:space="preserve">- Cash:</text><path fill="none" d="M1 61.3281 L239 61.3281" clip-path="url(#clipPath9)"/><text x="5" y="76.438" stroke="none" clip-path="url(#clipPath9)" font-family="sans-serif" font-size="14" font-weight="bold" xml:space="preserve">Liabilities:</text><text x="5" y="92.547" stroke="none" clip-path="url(#clipPath9)" font-family="sans-serif" font-size="14" xml:space="preserve">- Bob</text><text x="5" y="108.656" stroke="none" clip-path="url(#clipPath9)" font-family="sans-serif" font-size="14" xml:space="preserve">- Charlie</text><text x="5" y="124.766" stroke="none" clip-path="url(#clipPath9)" font-family="sans-serif" font-size="14" xml:space="preserve">- Alice</text><text x="5" y="140.875" stroke="none" clip-path="url(#clipPath9)" font-family="sans-serif" font-size="14" xml:space="preserve">- XRP Ledger (Subtotal)</text><path fill="none" d="M1 179.0938 L239 179.0938" clip-path="url(#clipPath9)"/><text x="5" y="194.203" stroke="none" clip-path="url(#clipPath9)" font-family="sans-serif" font-size="14" font-weight="bold" xml:space="preserve">Equity:</text></g><g font-family="sans-serif" font-size="14" font-weight="bold"><text x="15" y="20.055" stroke="none" clip-path="url(#clipPath10)" transform="translate(240,220)" xml:space="preserve">6,00 €</text></g><g font-family="sans-serif" font-size="14" font-weight="bold"><text x="45" y="15.055" stroke="none" clip-path="url(#clipPath7)" transform="translate(210,190)" xml:space="preserve">0,00 €</text></g><g font-family="sans-serif" font-size="14" font-weight="bold"><text x="45" y="18.109" stroke="none" clip-path="url(#clipPath11)" transform="translate(210,100)" xml:space="preserve">6,00 €</text><text x="50" y="34.219" stroke="none" clip-path="url(#clipPath11)" font-weight="normal" transform="translate(210,100)" xml:space="preserve">1,00 €</text><text x="50" y="50.328" stroke="none" clip-path="url(#clipPath11)" font-weight="normal" transform="translate(210,100)" xml:space="preserve">2,00 €</text></g><g fill="#FFF" fill-opacity="0" stroke="#FFF" stroke-opacity="0" transform="translate(100,80)"><rect width="208.5" height="178.5" x=".5" y=".5" stroke="none" clip-path="url(#clipPath12)"/></g><g transform="translate(100,80)"><rect width="208.5" height="178.5" x=".5" y=".5" fill="none" clip-path="url(#clipPath12)"/><text x="88" y="18.109" stroke="none" clip-path="url(#clipPath12)" font-family="sans-serif" font-size="14" xml:space="preserve">Alice</text><path fill="none" d="M1 24.1094 L209 24.1094" clip-path="url(#clipPath12)"/><text x="5" y="39.219" stroke="none" clip-path="url(#clipPath12)" font-family="sans-serif" font-size="14" font-weight="bold" xml:space="preserve">Assets:</text><text x="5" y="55.328" stroke="none" clip-path="url(#clipPath12)" font-family="sans-serif" font-size="14" xml:space="preserve">- Cash:</text><text x="5" y="71.438" stroke="none" clip-path="url(#clipPath12)" font-family="sans-serif" font-size="14" xml:space="preserve">- ACME:</text><path fill="none" d="M1 109.6562 L209 109.6562" clip-path="url(#clipPath12)"/><text x="5" y="124.766" stroke="none" clip-path="url(#clipPath12)" font-family="sans-serif" font-size="14" font-weight="bold" xml:space="preserve">Liabilities:</text><path fill="none" d="M1 146.875 L209 146.875" clip-path="url(#clipPath12)"/><text x="5" y="161.984" stroke="none" clip-path="url(#clipPath12)" font-family="sans-serif" font-size="14" font-weight="bold" xml:space="preserve">Equity:</text></g><g><path fill="none" d="M11.5 50.5 L30.5 50.5" clip-path="url(#clipPath13)" transform="translate(620,190)"/><path fill="none" d="M30.5 50.5 L30.5 10.5" clip-path="url(#clipPath13)" transform="translate(620,190)"/><path fill="none" d="M30.5 10.5 L10.5 10.5" clip-path="url(#clipPath13)" transform="translate(620,190)"/><path fill="none" d="M22.2583 57 L11 50.5 L22.2583 44" clip-path="url(#clipPath13)" transform="translate(620,190)"/></g><g><path fill="none" d="M11.5 30.5 L30.5 30.5" clip-path="url(#clipPath14)" transform="translate(300,140)"/><path fill="none" d="M30.5 30.5 L30.5 10.5" clip-path="url(#clipPath14)" transform="translate(300,140)"/><path fill="none" d="M30.5 10.5 L10.5 10.5" clip-path="url(#clipPath14)" transform="translate(300,140)"/><path fill="none" d="M22.2583 37 L11 30.5 L22.2583 24" clip-path="url(#clipPath14)" transform="translate(300,140)"/></g></g></svg>