<svg xmlns="http://www.w3.org/2000/svg" xmlns:xlink="http://www.w3.org/1999/xlink" width="910" height="540" fill="#000" fill-opacity="1" stroke="#000" stroke-dasharray="none" stroke-dashoffset="0" stroke-linecap="square" stroke-linejoin="miter" stroke-miterlimit="10" stroke-opacity="1" stroke-width="1" color-interpolation="auto" color-rendering="auto" font-family="'Dialog'" font-size="12" font-style="normal" font-weight="normal" image-rendering="auto" shape-rendering="auto" text-rendering="auto" viewBox="320 250 910 540"><g><defs id="defs1"><clipPath id="clipPath1" clipPathUnits="userSpaceOnUse"><path d="M0 0 L2147483647 0 L2147483647 2147483647 L0 2147483647 L0 0 Z"/></clipPath><clipPath id="clipPath2" clipPathUnits="userSpaceOnUse"><path d="M0 0 L0 30 L60 30 L60 0 Z"/></clipPath><clipPath id="clipPath3" clipPathUnits="userSpaceOnUse"><path d="M0 0 L0 160 L160 160 L160 0 Z"/></clipPath><clipPath id="clipPath4" clipPathUnits="userSpaceOnUse"><path d="M0 0 L0 40 L160 40 L160 0 Z"/></clipPath><clipPath id="clipPath5" clipPathUnits="userSpaceOnUse"><path d="M0 0 L0 40 L40 40 L40 0 Z"/></clipPath><clipPath id="clipPath6" clipPathUnits="userSpaceOnUse"><path d="M0 0 L0 40 L180 40 L180 0 Z"/></clipPath><clipPath id="clipPath7" clipPathUnits="userSpaceOnUse"><path d="M0 0 L0 30 L150 30 L150 0 Z"/></clipPath><clipPath id="clipPath8" clipPathUnits="userSpaceOnUse"><path d="M0 0 L0 170 L300 170 L300 0 Z"/></clipPath><clipPath id="clipPath9" clipPathUnits="userSpaceOnUse"><path d="M0 0 L0 150 L150 150 L150 0 Z"/></clipPath><clipPath id="clipPath10" clipPathUnits="userSpaceOnUse"><path d="M0 0 L0 70 L70 70 L70 0 Z"/></clipPath><clipPath id="clipPath11" clipPathUnits="userSpaceOnUse"><path d="M0 0 L0 30 L110 30 L110 0 Z"/></clipPath><clipPath id="clipPath12" clipPathUnits="userSpaceOnUse"><path d="M0 0 L0 40 L170 40 L170 0 Z"/></clipPath><clipPath id="clipPath13" clipPathUnits="userSpaceOnUse"><path d="M0 0 L0 210 L210 210 L210 0 Z"/></clipPath><clipPath id="clipPath14" clipPathUnits="userSpaceOnUse"><path d="M0 0 L0 210 L230 210 L230 0 Z"/></clipPath><clipPath id="clipPath15" clipPathUnits="userSpaceOnUse"><path d="M0 0 L0 40 L150 40 L150 0 Z"/></clipPath><clipPath id="clipPath16" clipPathUnits="userSpaceOnUse"><path d="M0 0 L0 30 L210 30 L210 0 Z"/></clipPath><clipPath id="clipPath17" clipPathUnits="userSpaceOnUse"><path d="M0 0 L0 30 L170 30 L170 0 Z"/></clipPath><clipPath id="clipPath18" clipPathUnits="userSpaceOnUse"><path d="M0 0 L0 160 L30 160 L30 0 Z"/></clipPath></defs><g fill="#00f" stroke="#00f" font-family="sans-serif" font-size="14"><text x="5" y="18.109" stroke="none" clip-path="url(#clipPath2)" transform="translate(830,460)" xml:space="preserve">Refill</text></g><g fill="#00f" stroke="#00f" font-family="sans-serif" font-size="14"><text x="5" y="18.109" stroke="none" clip-path="url(#clipPath2)" transform="translate(630,460)" xml:space="preserve">Credit</text></g><g fill="#fff" stroke="#fff" transform="translate(360,300)"><circle cx="79.75" cy="79.75" r="79.25" stroke="none" clip-path="url(#clipPath3)"/><circle cx="79.75" cy="79.75" r="79.25" fill="none" stroke="#000" clip-path="url(#clipPath3)"/></g><g fill="#fff" stroke="#fff" transform="translate(350,310)"><circle cx="79.75" cy="79.75" r="79.25" stroke="none" clip-path="url(#clipPath3)"/><circle cx="79.75" cy="79.75" r="79.25" fill="none" stroke="#000" clip-path="url(#clipPath3)"/></g><g font-family="sans-serif" font-size="14"><text x="5" y="18.109" stroke="none" clip-path="url(#clipPath4)" transform="translate(1020,640)" xml:space="preserve">XRP Ledger address</text></g><g fill="#fff" stroke="#fff" transform="translate(950,640)"><circle cx="19.75" cy="19.75" r="19.25" stroke="none" clip-path="url(#clipPath5)"/><circle cx="19.75" cy="19.75" r="19.25" fill="none" stroke="#000" clip-path="url(#clipPath5)"/></g><g font-family="sans-serif" font-size="14"><text x="5" y="18.109" stroke="none" clip-path="url(#clipPath6)" transform="translate(1020,680)" xml:space="preserve">Accounting relationship</text><text x="5" y="34.219" stroke="none" clip-path="url(#clipPath6)" transform="translate(1020,680)" xml:space="preserve">(trust line)</text></g><g font-family="sans-serif" font-size="14"><text x="5" y="18.109" stroke="none" clip-path="url(#clipPath7)" transform="translate(1020,730)" xml:space="preserve">Transfer / Payment</text></g><g fill="#FFF" fill-opacity="0" stroke="#FFF" stroke-opacity="0" transform="translate(910,600)"><rect width="298.5" height="168.5" x=".5" y=".5" stroke="none" clip-path="url(#clipPath8)"/></g><g transform="translate(910,600)"><rect width="298.5" height="168.5" x=".5" y=".5" fill="none" clip-path="url(#clipPath8)"/><text x="124" y="18.109" stroke="none" clip-path="url(#clipPath8)" font-family="sans-serif" font-size="14" xml:space="preserve">Legend</text><path fill="none" d="M1 24.1094 L299 24.1094" clip-path="url(#clipPath8)"/></g><g fill="#fff" stroke="#fff" transform="translate(680,610)"><circle cx="79.75" cy="79.75" r="79.25" stroke="none" clip-path="url(#clipPath3)"/><circle cx="79.75" cy="79.75" r="79.25" fill="none" stroke="#000" clip-path="url(#clipPath3)"/></g><g font-family="sans-serif" font-size="14"><text x="8" y="77" stroke="none" clip-path="url(#clipPath3)" transform="translate(680,610)" xml:space="preserve">Operational Address</text><text x="35" y="93.109" stroke="none" clip-path="url(#clipPath3)" transform="translate(680,610)" xml:space="preserve">(Automated)</text></g><g fill="#fff" stroke="#fff" transform="translate(340,320)"><circle cx="79.75" cy="79.75" r="79.25" stroke="none" clip-path="url(#clipPath3)"/><circle cx="79.75" cy="79.75" r="79.25" fill="none" stroke="#000" clip-path="url(#clipPath3)"/></g><g font-family="sans-serif" font-size="14"><text x="48" y="68.945" stroke="none" clip-path="url(#clipPath3)" transform="translate(340,320)" xml:space="preserve">Partners,</text><text x="12" y="85.055" stroke="none" clip-path="url(#clipPath3)" transform="translate(340,320)" xml:space="preserve">Liquidity providers,</text><text x="42" y="101.164" stroke="none" clip-path="url(#clipPath3)" transform="translate(340,320)" xml:space="preserve">Customers</text></g><g fill="#fff" stroke="#fff" transform="translate(980,320)"><circle cx="74.75" cy="74.75" r="74.25" stroke="none" clip-path="url(#clipPath9)"/><circle cx="74.75" cy="74.75" r="74.25" fill="none" stroke="#000" clip-path="url(#clipPath9)"/></g><g font-family="sans-serif" font-size="14"><text x="15" y="72" stroke="none" clip-path="url(#clipPath9)" transform="translate(980,320)" xml:space="preserve">Standby Address</text><text x="10" y="88.109" stroke="none" clip-path="url(#clipPath9)" transform="translate(980,320)" xml:space="preserve">(Human-operated)</text></g><g fill="#0f0" stroke="#0f0" transform="translate(680,320)"><circle cx="79.75" cy="79.75" r="79.25" stroke="none" clip-path="url(#clipPath3)"/><circle cx="79.75" cy="79.75" r="79.25" fill="none" stroke="#000" clip-path="url(#clipPath3)"/></g><g font-family="sans-serif" font-size="14"><text x="25" y="77" stroke="none" clip-path="url(#clipPath3)" transform="translate(680,320)" xml:space="preserve">Issuing Address</text><text x="17" y="93.109" stroke="none" clip-path="url(#clipPath3)" transform="translate(680,320)" xml:space="preserve">(Highest security)</text></g><g fill="#00f" stroke="#00f" stroke-dasharray="8 5" stroke-linecap="butt" stroke-miterlimit="5"><path fill="none" d="M50.5 39.5 L50.5 10.5" clip-path="url(#clipPath10)" transform="translate(400,270)"/><path fill="none" d="M50.5 10.5 L10.5 10.5" clip-path="url(#clipPath10)" transform="translate(400,270)"/><path fill="none" d="M10.5 10.5 L10.5 50.5" clip-path="url(#clipPath10)" transform="translate(400,270)"/><path fill="#fff" stroke="none" d="M57 28.7417 L50.5 40 L44 28.7417 Z" clip-path="url(#clipPath10)" transform="translate(400,270)"/><path fill="none" stroke-dasharray="none" stroke-linecap="square" stroke-miterlimit="10" d="M57 28.7417 L50.5 40 L44 28.7417 Z" clip-path="url(#clipPath10)" transform="translate(400,270)"/></g><g><path fill="none" d="M11.5 10.5 L90.5 10.5" clip-path="url(#clipPath11)" transform="translate(920,690)"/><path stroke="none" d="M22.2583 17 L11 10.5 L22.2583 4 Z" clip-path="url(#clipPath11)" transform="translate(920,690)"/><path fill="none" d="M22.2583 17 L11 10.5 L22.2583 4 Z" clip-path="url(#clipPath11)" transform="translate(920,690)"/></g><g fill="#00f" stroke="#00f" stroke-dasharray="8 5" stroke-linecap="butt" stroke-miterlimit="5"><path fill="none" d="M11.5 10.5 L90.5 10.5" clip-path="url(#clipPath11)" transform="translate(920,730)"/><path fill="none" stroke-dasharray="none" stroke-linecap="square" stroke-miterlimit="10" d="M22.2583 17 L11 10.5 L22.2583 4" clip-path="url(#clipPath11)" transform="translate(920,730)"/></g><g fill="#00f" stroke="#00f" stroke-dasharray="8 5" stroke-linecap="butt" stroke-miterlimit="5"><path fill="none" d="M10.5 20.5 L149.5 20.5" clip-path="url(#clipPath12)" transform="translate(520,350)"/><path fill="none" stroke-dasharray="none" stroke-linecap="square" stroke-miterlimit="10" d="M138.7417 27 L150 20.5 L138.7417 14" clip-path="url(#clipPath12)" transform="translate(520,350)"/></g><g fill="#00f" stroke="#00f" font-family="sans-serif" font-size="14"><text x="52.234" y="16" stroke="none" clip-path="url(#clipPath12)" transform="translate(520,350)" xml:space="preserve">Redeem</text></g><g fill="#00f" stroke="#00f" stroke-dasharray="8 5" stroke-linecap="butt" stroke-miterlimit="5"><path fill="none" d="M190.5 10.5 L90.5 10.5" clip-path="url(#clipPath13)" transform="translate(780,400)"/><path fill="none" d="M90.5 10.5 L10.5 100.5" clip-path="url(#clipPath13)" transform="translate(780,400)"/><path fill="none" d="M10.5 100.5 L10.5 189.5" clip-path="url(#clipPath13)" transform="translate(780,400)"/><path fill="none" stroke-dasharray="none" stroke-linecap="square" stroke-miterlimit="10" d="M4 178.7417 L10.5 190 L17 178.7417" clip-path="url(#clipPath13)" transform="translate(780,400)"/></g><g fill="#00f" stroke="#00f" stroke-dasharray="8 5" stroke-linecap="butt" stroke-miterlimit="5"><path fill="none" d="M210.5 190.5 L210.5 100.5" clip-path="url(#clipPath14)" transform="translate(520,400)"/><path fill="none" d="M210.5 100.5 L130.5 10.5" clip-path="url(#clipPath14)" transform="translate(520,400)"/><path fill="none" d="M130.5 10.5 L11.5 10.5" clip-path="url(#clipPath14)" transform="translate(520,400)"/><path fill="none" stroke-dasharray="none" stroke-linecap="square" stroke-miterlimit="10" d="M22.2583 4 L11 10.5 L22.2583 17" clip-path="url(#clipPath14)" transform="translate(520,400)"/></g><g fill="#00f" stroke="#00f" stroke-dasharray="8 5" stroke-linecap="butt" stroke-miterlimit="5"><path fill="none" d="M10.5 20.5 L129.5 20.5" clip-path="url(#clipPath15)" transform="translate(840,350)"/><path fill="none" stroke-dasharray="none" stroke-linecap="square" stroke-miterlimit="10" d="M118.7417 27 L130 20.5 L118.7417 14" clip-path="url(#clipPath15)" transform="translate(840,350)"/></g><g fill="#00f" stroke="#00f" font-family="sans-serif" font-size="14"><text x="52.955" y="16" stroke="none" clip-path="url(#clipPath15)" transform="translate(840,350)" xml:space="preserve">Issue</text></g><g><path fill="none" d="M189.5 10.5 L10.5 10.5" clip-path="url(#clipPath16)" transform="translate(490,380)"/><path stroke="none" d="M178.7417 4 L190 10.5 L178.7417 17 Z" clip-path="url(#clipPath16)" transform="translate(490,380)"/><path fill="none" d="M178.7417 4 L190 10.5 L178.7417 17 Z" clip-path="url(#clipPath16)" transform="translate(490,380)"/></g><g><path fill="none" d="M11.5 10.5 L150.5 10.5" clip-path="url(#clipPath17)" transform="translate(830,380)"/><path stroke="none" d="M22.2583 17 L11 10.5 L22.2583 4 Z" clip-path="url(#clipPath17)" transform="translate(830,380)"/><path fill="none" d="M22.2583 17 L11 10.5 L22.2583 4 Z" clip-path="url(#clipPath17)" transform="translate(830,380)"/></g><g><path fill="none" d="M10.5 11.5 L10.5 140.5" clip-path="url(#clipPath18)" transform="translate(750,470)"/><path stroke="none" d="M4 22.2583 L10.5 11 L17 22.2583 Z" clip-path="url(#clipPath18)" transform="translate(750,470)"/><path fill="none" d="M4 22.2583 L10.5 11 L17 22.2583 Z" clip-path="url(#clipPath18)" transform="translate(750,470)"/></g></g></svg>