<svg xmlns="http://www.w3.org/2000/svg" xmlns:xlink="http://www.w3.org/1999/xlink" width="440" height="450" fill="#000" fill-opacity="1" stroke="#000" stroke-dasharray="none" stroke-dashoffset="0" stroke-linecap="square" stroke-linejoin="miter" stroke-miterlimit="10" stroke-opacity="1" stroke-width="1" color-interpolation="auto" color-rendering="auto" font-family="'Dialog'" font-size="12" font-style="normal" font-weight="normal" image-rendering="auto" shape-rendering="auto" text-rendering="auto" viewBox="0 10 440 450"><g><defs id="defs1"><clipPath id="clipPath1" clipPathUnits="userSpaceOnUse"><path d="M0 0 L2147483647 0 L2147483647 2147483647 L0 2147483647 L0 0 Z"/></clipPath><clipPath id="clipPath2" clipPathUnits="userSpaceOnUse"><path d="M0 0 L0 70 L60 70 L60 0 Z"/></clipPath><clipPath id="clipPath3" clipPathUnits="userSpaceOnUse"><path d="M0 0 L0 70 L230 70 L230 0 Z"/></clipPath><clipPath id="clipPath4" clipPathUnits="userSpaceOnUse"><path d="M0 0 L0 70 L120 70 L120 0 Z"/></clipPath><clipPath id="clipPath5" clipPathUnits="userSpaceOnUse"><path d="M0 0 L0 70 L320 70 L320 0 Z"/></clipPath><clipPath id="clipPath6" clipPathUnits="userSpaceOnUse"><path d="M0 0 L0 90 L180 90 L180 0 Z"/></clipPath><clipPath id="clipPath7" clipPathUnits="userSpaceOnUse"><path d="M0 0 L0 100 L120 100 L120 0 Z"/></clipPath><clipPath id="clipPath8" clipPathUnits="userSpaceOnUse"><path d="M0 0 L0 50 L170 50 L170 0 Z"/></clipPath></defs><g fill="#FFF" fill-opacity="0" stroke="#FFF" stroke-opacity="0" transform="translate(110,300)"><rect width="58.5" height="68.5" x=".5" y=".5" stroke="none" clip-path="url(#clipPath2)"/></g><g transform="translate(110,300)"><rect width="58.5" height="68.5" x=".5" y=".5" fill="none" clip-path="url(#clipPath2)"/><text x="11" y="13.391" stroke="none" clip-path="url(#clipPath2)" font-family="sans-serif" font-size="14" xml:space="preserve">0xED</text><text x="10" y="29.5" stroke="none" clip-path="url(#clipPath2)" font-family="sans-serif" font-size="14" xml:space="preserve">Prefix</text><path fill="none" d="M1 35.5 L59 35.5" clip-path="url(#clipPath2)"/><text x="2" y="50.609" stroke="none" clip-path="url(#clipPath2)" font-family="sans-serif" font-size="14" xml:space="preserve">(1 byte)</text></g><g fill="#FFF" fill-opacity="0" stroke="#FFF" stroke-opacity="0" transform="translate(170,300)"><rect width="228.5" height="68.5" x=".5" y=".5" stroke="none" clip-path="url(#clipPath3)"/></g><g transform="translate(170,300)"><rect width="228.5" height="68.5" x=".5" y=".5" fill="none" clip-path="url(#clipPath3)"/><text x="78" y="29.5" stroke="none" clip-path="url(#clipPath3)" font-family="sans-serif" font-size="14" xml:space="preserve">Public Key</text><path fill="none" d="M1 35.5 L229 35.5" clip-path="url(#clipPath3)"/><text x="79" y="50.609" stroke="none" clip-path="url(#clipPath3)" font-family="sans-serif" font-size="14" xml:space="preserve">(32 bytes)</text></g><g fill="#FFF" fill-opacity="0" stroke="#FFF" stroke-opacity="0" transform="translate(170,170)"><rect width="228.5" height="68.5" x=".5" y=".5" stroke="none" clip-path="url(#clipPath3)"/></g><g transform="translate(170,170)"><rect width="228.5" height="68.5" x=".5" y=".5" fill="none" clip-path="url(#clipPath3)"/><text x="75" y="29.5" stroke="none" clip-path="url(#clipPath3)" font-family="sans-serif" font-size="14" xml:space="preserve">Private Key</text><path fill="none" d="M1 35.5 L229 35.5" clip-path="url(#clipPath3)"/><text x="79" y="50.609" stroke="none" clip-path="url(#clipPath3)" font-family="sans-serif" font-size="14" xml:space="preserve">(32 bytes)</text></g><g fill="#FFF" fill-opacity="0" stroke="#FFF" stroke-opacity="0" transform="translate(280,30)"><rect width="118.5" height="68.5" x=".5" y=".5" stroke="none" clip-path="url(#clipPath4)"/></g><g transform="translate(280,30)"><rect width="118.5" height="68.5" x=".5" y=".5" fill="none" clip-path="url(#clipPath4)"/><text x="42" y="29.5" stroke="none" clip-path="url(#clipPath4)" font-family="sans-serif" font-size="14" xml:space="preserve">Seed</text><path fill="none" d="M1 35.5 L119 35.5" clip-path="url(#clipPath4)"/><text x="24" y="50.609" stroke="none" clip-path="url(#clipPath4)" font-family="sans-serif" font-size="14" xml:space="preserve">(16 bytes)</text></g><g fill="#FFF" fill-opacity="0" stroke="#FFF" stroke-opacity="0" transform="translate(20,30)"><rect width="118.5" height="68.5" x=".5" y=".5" stroke="none" clip-path="url(#clipPath4)"/></g><g stroke-dasharray="8 5" stroke-linecap="butt" stroke-miterlimit="5" transform="translate(20,30)"><rect width="118.5" height="68.5" x=".5" y=".5" fill="none" clip-path="url(#clipPath4)"/><text x="20" y="21.445" stroke="none" clip-path="url(#clipPath4)" font-family="sans-serif" font-size="14" xml:space="preserve">Passphrase</text></g><g font-family="sans-serif" font-size="14"><path fill="none" d="M1 27.4453 L119 27.4453" clip-path="url(#clipPath4)" transform="translate(20,30)"/><text x="24" y="42.555" stroke="none" clip-path="url(#clipPath4)" transform="translate(20,30)" xml:space="preserve">(Optional)</text><text x="24" y="58.664" stroke="none" clip-path="url(#clipPath4)" transform="translate(20,30)" xml:space="preserve">Any string</text></g><g stroke-dasharray="1 2" stroke-linecap="butt" stroke-miterlimit="5"><path fill="none" d="M10.5 10.5 L10.5 30.5" clip-path="url(#clipPath5)" transform="translate(100,370)"/><path fill="none" d="M10.5 30.5 L300.5 30.5" clip-path="url(#clipPath5)" transform="translate(100,370)"/><path fill="none" d="M300.5 30.5 L300.5 10.5" clip-path="url(#clipPath5)" transform="translate(100,370)"/><text x="93.658" y="42.109" stroke="none" clip-path="url(#clipPath5)" font-family="sans-serif" font-size="14" transform="translate(100,370)" xml:space="preserve">Master Public Key</text><text x="120.321" y="58.219" stroke="none" clip-path="url(#clipPath5)" font-family="sans-serif" font-size="14" transform="translate(100,370)" xml:space="preserve">(33 bytes)</text></g><g><path fill="none" d="M10.5 10.5 L10.5 69.5" clip-path="url(#clipPath6)" transform="translate(230,230)"/><path fill="none" d="M4 58.7417 L10.5 70 L17 58.7417" clip-path="url(#clipPath6)" transform="translate(230,230)"/><text x="14" y="48.055" stroke="none" clip-path="url(#clipPath6)" font-family="sans-serif" font-size="14" transform="translate(230,230)" xml:space="preserve">Public Key Derivation</text></g><g><path fill="none" d="M10.5 79.5 L10.5 10.5" clip-path="url(#clipPath7)" transform="translate(290,90)"/><path fill="none" d="M17 68.7417 L10.5 80 L4 68.7417" clip-path="url(#clipPath7)" transform="translate(290,90)"/><text x="14" y="53.055" stroke="none" clip-path="url(#clipPath7)" font-family="sans-serif" font-size="14" transform="translate(290,90)" xml:space="preserve">SHA-512Half</text></g><g stroke-dasharray="8 5" stroke-linecap="butt" stroke-miterlimit="5"><path fill="none" d="M10.5 20.5 L149.5 20.5" clip-path="url(#clipPath8)" transform="translate(130,50)"/><path fill="none" stroke-dasharray="none" stroke-linecap="square" stroke-miterlimit="10" d="M138.7417 27 L150 20.5 L138.7417 14" clip-path="url(#clipPath8)" transform="translate(130,50)"/></g><g font-family="sans-serif" font-size="14"><text x="28.899" y="16" stroke="none" clip-path="url(#clipPath8)" transform="translate(130,50)" xml:space="preserve">SHA-512, keep</text><text x="34.186" y="32.109" stroke="none" clip-path="url(#clipPath8)" transform="translate(130,50)" xml:space="preserve">first 16 bytes</text></g></g></svg>