<svg xmlns="http://www.w3.org/2000/svg" xmlns:xlink="http://www.w3.org/1999/xlink" width="810" height="120" fill="#000" fill-opacity="1" stroke="#000" stroke-dasharray="none" stroke-dashoffset="0" stroke-linecap="square" stroke-linejoin="miter" stroke-miterlimit="10" stroke-opacity="1" stroke-width="1" color-interpolation="auto" color-rendering="auto" font-family="'Dialog'" font-size="12" font-style="normal" font-weight="normal" image-rendering="auto" shape-rendering="auto" text-rendering="auto" viewBox="80 90 810 120"><g><defs id="defs1"><clipPath id="clipPath1" clipPathUnits="userSpaceOnUse"><path d="M0 0 L2147483647 0 L2147483647 2147483647 L0 2147483647 L0 0 Z"/></clipPath><clipPath id="clipPath2" clipPathUnits="userSpaceOnUse"><path d="M0 0 L0 60 L60 60 L60 0 Z"/></clipPath><clipPath id="clipPath3" clipPathUnits="userSpaceOnUse"><path d="M0 0 L0 80 L80 80 L80 0 Z"/></clipPath><clipPath id="clipPath4" clipPathUnits="userSpaceOnUse"><path d="M0 0 L0 40 L140 40 L140 0 Z"/></clipPath><clipPath id="clipPath5" clipPathUnits="userSpaceOnUse"><path d="M0 0 L0 50 L140 50 L140 0 Z"/></clipPath><clipPath id="clipPath6" clipPathUnits="userSpaceOnUse"><path d="M0 0 L0 50 L130 50 L130 0 Z"/></clipPath></defs><g fill="#FFF" fill-opacity="0" stroke="#FFF" stroke-opacity="0" transform="translate(810,120)"><circle cx="29.75" cy="29.75" r="29.25" stroke="none" clip-path="url(#clipPath2)"/></g><g transform="translate(810,120)"><circle cx="29.75" cy="29.75" r="29.25" fill="none" clip-path="url(#clipPath2)"/><text x="7" y="35.055" stroke="none" clip-path="url(#clipPath2)" font-family="sans-serif" font-size="14" xml:space="preserve">Daniel</text></g><g fill="#FFF" fill-opacity="0" stroke="#FFF" stroke-opacity="0" transform="translate(620,110)"><circle cx="39.75" cy="39.75" r="39.25" stroke="none" clip-path="url(#clipPath3)"/></g><g transform="translate(620,110)"><circle cx="39.75" cy="39.75" r="39.25" fill="none" clip-path="url(#clipPath3)"/><text x="9" y="37" stroke="none" clip-path="url(#clipPath3)" font-family="sans-serif" font-size="14" xml:space="preserve">Gateway</text><text x="35" y="53.109" stroke="none" clip-path="url(#clipPath3)" font-family="sans-serif" font-size="14" xml:space="preserve">B</text></g><g fill="#FFF" fill-opacity="0" stroke="#FFF" stroke-opacity="0" transform="translate(270,110)"><circle cx="39.75" cy="39.75" r="39.25" stroke="none" clip-path="url(#clipPath3)"/></g><g transform="translate(270,110)"><circle cx="39.75" cy="39.75" r="39.25" fill="none" clip-path="url(#clipPath3)"/><text x="9" y="37" stroke="none" clip-path="url(#clipPath3)" font-family="sans-serif" font-size="14" xml:space="preserve">Gateway</text><text x="35" y="53.109" stroke="none" clip-path="url(#clipPath3)" font-family="sans-serif" font-size="14" xml:space="preserve">A</text></g><g fill="#FFF" fill-opacity="0" stroke="#FFF" stroke-opacity="0" transform="translate(100,120)"><circle cx="29.75" cy="29.75" r="29.25" stroke="none" clip-path="url(#clipPath2)"/></g><g transform="translate(100,120)"><circle cx="29.75" cy="29.75" r="29.25" fill="none" clip-path="url(#clipPath2)"/><text x="5" y="35.055" stroke="none" clip-path="url(#clipPath2)" font-family="sans-serif" font-size="14" xml:space="preserve">Charlie</text></g><g fill="#FFF" fill-opacity="0" stroke="#FFF" stroke-opacity="0" transform="translate(450,120)"><circle cx="29.75" cy="29.75" r="29.25" stroke="none" clip-path="url(#clipPath2)"/></g><g transform="translate(450,120)"><circle cx="29.75" cy="29.75" r="29.25" fill="none" clip-path="url(#clipPath2)"/><text x="10" y="35.055" stroke="none" clip-path="url(#clipPath2)" font-family="sans-serif" font-size="14" xml:space="preserve">Emily</text></g><g><path fill="none" d="M11.5 20.5 L120.5 20.5" clip-path="url(#clipPath4)" transform="translate(690,130)"/><path fill="none" d="M22.2583 27 L11 20.5 L22.2583 14" clip-path="url(#clipPath4)" transform="translate(690,130)"/><text x="57.374" y="16" stroke="none" clip-path="url(#clipPath4)" font-family="sans-serif" font-size="14" transform="translate(690,130)" xml:space="preserve">$2</text></g><g><path fill="none" d="M119.5 20.5 L10.5 20.5" clip-path="url(#clipPath5)" transform="translate(500,130)"/><path fill="none" d="M108.7417 14 L120 20.5 L108.7417 27" clip-path="url(#clipPath5)" transform="translate(500,130)"/><text x="48.225" y="16" stroke="none" clip-path="url(#clipPath5)" font-family="sans-serif" font-size="14" transform="translate(500,130)" xml:space="preserve">$100</text><text x="34.591" y="32.109" stroke="none" clip-path="url(#clipPath5)" font-family="sans-serif" font-size="14" transform="translate(500,130)" xml:space="preserve">NoRipple</text></g><g><path fill="none" d="M119.5 20.5 L10.5 20.5" clip-path="url(#clipPath4)" transform="translate(150,130)"/><path fill="none" d="M108.7417 14 L120 20.5 L108.7417 27" clip-path="url(#clipPath4)" transform="translate(150,130)"/><text x="52.679" y="16" stroke="none" clip-path="url(#clipPath4)" font-family="sans-serif" font-size="14" transform="translate(150,130)" xml:space="preserve">$10</text></g><g><path fill="none" d="M11.5 20.5 L110.5 20.5" clip-path="url(#clipPath6)" transform="translate(340,130)"/><path fill="none" d="M22.2583 27 L11 20.5 L22.2583 14" clip-path="url(#clipPath6)" transform="translate(340,130)"/><text x="52.32" y="16" stroke="none" clip-path="url(#clipPath6)" font-family="sans-serif" font-size="14" transform="translate(340,130)" xml:space="preserve">$1</text><text x="29.591" y="32.109" stroke="none" clip-path="url(#clipPath6)" font-family="sans-serif" font-size="14" transform="translate(340,130)" xml:space="preserve">NoRipple</text></g></g></svg>