<svg xmlns="http://www.w3.org/2000/svg" xmlns:xlink="http://www.w3.org/1999/xlink" width="450" height="100" fill="#000" fill-opacity="1" stroke="#000" stroke-dasharray="none" stroke-dashoffset="0" stroke-linecap="square" stroke-linejoin="miter" stroke-miterlimit="10" stroke-opacity="1" stroke-width="1" color-interpolation="auto" color-rendering="auto" font-family="'Dialog'" font-size="12" font-style="normal" font-weight="normal" image-rendering="auto" shape-rendering="auto" text-rendering="auto" viewBox="50 60 450 100"><g><defs id="defs1"><clipPath id="clipPath1" clipPathUnits="userSpaceOnUse"><path d="M0 0 L2147483647 0 L2147483647 2147483647 L0 2147483647 L0 0 Z"/></clipPath><clipPath id="clipPath2" clipPathUnits="userSpaceOnUse"><path d="M0 0 L0 60 L60 60 L60 0 Z"/></clipPath><clipPath id="clipPath3" clipPathUnits="userSpaceOnUse"><path d="M0 0 L0 40 L140 40 L140 0 Z"/></clipPath><clipPath id="clipPath4" clipPathUnits="userSpaceOnUse"><path d="M0 0 L0 40 L150 40 L150 0 Z"/></clipPath></defs><g fill="#FFF" fill-opacity="0" stroke="#FFF" stroke-opacity="0" transform="translate(240,80)"><circle cx="29.75" cy="29.75" r="29.25" stroke="none" clip-path="url(#clipPath2)"/></g><g transform="translate(240,80)"><circle cx="29.75" cy="29.75" r="29.25" fill="none" clip-path="url(#clipPath2)"/><text x="13" y="35.055" stroke="none" clip-path="url(#clipPath2)" font-family="sans-serif" font-size="14" xml:space="preserve">Alice</text></g><g fill="#FFF" fill-opacity="0" stroke="#FFF" stroke-opacity="0" transform="translate(70,80)"><circle cx="29.75" cy="29.75" r="29.25" stroke="none" clip-path="url(#clipPath2)"/></g><g transform="translate(70,80)"><circle cx="29.75" cy="29.75" r="29.25" fill="none" clip-path="url(#clipPath2)"/><text x="5" y="35.055" stroke="none" clip-path="url(#clipPath2)" font-family="sans-serif" font-size="14" xml:space="preserve">Charlie</text></g><g fill="#FFF" fill-opacity="0" stroke="#FFF" stroke-opacity="0" transform="translate(420,80)"><circle cx="29.75" cy="29.75" r="29.25" stroke="none" clip-path="url(#clipPath2)"/></g><g transform="translate(420,80)"><circle cx="29.75" cy="29.75" r="29.25" fill="none" clip-path="url(#clipPath2)"/><text x="16" y="35.055" stroke="none" clip-path="url(#clipPath2)" font-family="sans-serif" font-size="14" xml:space="preserve">Bob</text></g><g><path fill="none" d="M10.5 20.5 L119.5 20.5" clip-path="url(#clipPath3)" transform="translate(120,90)"/><path fill="none" d="M108.7417 27 L120 20.5 L108.7417 14" clip-path="url(#clipPath3)" transform="translate(120,90)"/><text x="52.78" y="16" stroke="none" clip-path="url(#clipPath3)" font-family="sans-serif" font-size="14" transform="translate(120,90)" xml:space="preserve">$13</text></g><g><path fill="none" d="M130.5 20.5 L11.5 20.5" clip-path="url(#clipPath4)" transform="translate(290,90)"/><path fill="none" d="M22.2583 14 L11 20.5 L22.2583 27" clip-path="url(#clipPath4)" transform="translate(290,90)"/><text x="57.812" y="16" stroke="none" clip-path="url(#clipPath4)" font-family="sans-serif" font-size="14" transform="translate(290,90)" xml:space="preserve">$17</text></g></g></svg>