<svg xmlns="http://www.w3.org/2000/svg" xmlns:xlink="http://www.w3.org/1999/xlink" width="980" height="520" fill="#000" fill-opacity="1" stroke="#000" stroke-dasharray="none" stroke-dashoffset="0" stroke-linecap="square" stroke-linejoin="miter" stroke-miterlimit="10" stroke-opacity="1" stroke-width="1" color-interpolation="auto" color-rendering="auto" font-family="'Dialog'" font-size="12" font-style="normal" font-weight="normal" image-rendering="auto" shape-rendering="auto" text-rendering="auto" viewBox="30 40 980 520"><g><defs id="defs1"><clipPath id="clipPath1" clipPathUnits="userSpaceOnUse"><path d="M0 0 L2147483647 0 L2147483647 2147483647 L0 2147483647 L0 0 Z"/></clipPath><clipPath id="clipPath2" clipPathUnits="userSpaceOnUse"><path d="M0 0 L0 110 L160 110 L160 0 Z"/></clipPath><clipPath id="clipPath3" clipPathUnits="userSpaceOnUse"><path d="M0 0 L0 50 L150 50 L150 0 Z"/></clipPath><clipPath id="clipPath4" clipPathUnits="userSpaceOnUse"><path d="M0 0 L0 60 L60 60 L60 0 Z"/></clipPath><clipPath id="clipPath5" clipPathUnits="userSpaceOnUse"><path d="M0 0 L0 80 L80 80 L80 0 Z"/></clipPath><clipPath id="clipPath6" clipPathUnits="userSpaceOnUse"><path d="M0 0 L0 40 L150 40 L150 0 Z"/></clipPath><clipPath id="clipPath7" clipPathUnits="userSpaceOnUse"><path d="M0 0 L0 50 L140 50 L140 0 Z"/></clipPath><clipPath id="clipPath8" clipPathUnits="userSpaceOnUse"><path d="M0 0 L0 50 L130 50 L130 0 Z"/></clipPath><clipPath id="clipPath9" clipPathUnits="userSpaceOnUse"><path d="M0 0 L0 40 L140 40 L140 0 Z"/></clipPath><clipPath id="clipPath10" clipPathUnits="userSpaceOnUse"><path d="M0 0 L0 40 L130 40 L130 0 Z"/></clipPath></defs><g fill="#ff0" stroke="#ff0"><path stroke="none" d="M0.5 0.5 L148.5 0.5 L159 12.5 L159 109 L0.5 109 Z" clip-path="url(#clipPath2)" transform="translate(830,430)"/><path fill="none" stroke="#000" d="M0.5 0.5 L148.5 0.5 L159 12.5 L159 109 L0.5 109 Z" clip-path="url(#clipPath2)" transform="translate(830,430)"/><path fill="none" stroke="#000" d="M148.5 0.5 L148.5 12.5 L159 12.5" clip-path="url(#clipPath2)" transform="translate(830,430)"/></g><g font-family="sans-serif" font-size="14"><text x="5" y="18.109" stroke="none" clip-path="url(#clipPath2)" transform="translate(830,430)" xml:space="preserve">This path is valid</text><text x="5" y="34.219" stroke="none" clip-path="url(#clipPath2)" transform="translate(830,430)" xml:space="preserve">because Daniel, but</text><text x="5" y="50.328" stroke="none" clip-path="url(#clipPath2)" transform="translate(830,430)" xml:space="preserve">not Emily, has set</text><text x="5" y="66.438" stroke="none" clip-path="url(#clipPath2)" transform="translate(830,430)" xml:space="preserve">the No Ripple flag</text><text x="5" y="82.547" stroke="none" clip-path="url(#clipPath2)" transform="translate(830,430)" xml:space="preserve">on the trust line</text><text x="5" y="98.656" stroke="none" clip-path="url(#clipPath2)" transform="translate(830,430)" xml:space="preserve">between them</text></g><g fill="#0f0" stroke="#0f0" transform="translate(50,460)"><rect width="148.5" height="48.5" x=".5" y=".5" stroke="none" clip-path="url(#clipPath3)"/><rect width="148.5" height="48.5" x=".5" y=".5" fill="none" stroke="#000" clip-path="url(#clipPath3)"/></g><g font-family="sans-serif" font-size="14"><text x="39" y="18.109" stroke="none" clip-path="url(#clipPath3)" transform="translate(50,460)" xml:space="preserve">Valid path</text><text x="10" y="34.219" stroke="none" clip-path="url(#clipPath3)" transform="translate(50,460)" xml:space="preserve">(Rippling possible)</text></g><g fill="#0f0" stroke="#0f0" transform="translate(50,330)"><rect width="148.5" height="48.5" x=".5" y=".5" stroke="none" clip-path="url(#clipPath3)"/><rect width="148.5" height="48.5" x=".5" y=".5" fill="none" stroke="#000" clip-path="url(#clipPath3)"/></g><g font-family="sans-serif" font-size="14"><text x="39" y="18.109" stroke="none" clip-path="url(#clipPath3)" transform="translate(50,330)" xml:space="preserve">Valid path</text><text x="10" y="34.219" stroke="none" clip-path="url(#clipPath3)" transform="translate(50,330)" xml:space="preserve">(Rippling possible)</text></g><g fill="#FFF" fill-opacity="0" stroke="#FFF" stroke-opacity="0" transform="translate(740,450)"><circle cx="29.75" cy="29.75" r="29.25" stroke="none" clip-path="url(#clipPath4)"/></g><g transform="translate(740,450)"><circle cx="29.75" cy="29.75" r="29.25" fill="none" clip-path="url(#clipPath4)"/><text x="7" y="35.055" stroke="none" clip-path="url(#clipPath4)" font-family="sans-serif" font-size="14" xml:space="preserve">Daniel</text></g><g fill="#FFF" fill-opacity="0" stroke="#FFF" stroke-opacity="0" transform="translate(570,450)"><circle cx="29.75" cy="29.75" r="29.25" stroke="none" clip-path="url(#clipPath4)"/></g><g transform="translate(570,450)"><circle cx="29.75" cy="29.75" r="29.25" fill="none" clip-path="url(#clipPath4)"/><text x="10" y="35.055" stroke="none" clip-path="url(#clipPath4)" font-family="sans-serif" font-size="14" xml:space="preserve">Emily</text></g><g fill="#FFF" fill-opacity="0" stroke="#FFF" stroke-opacity="0" transform="translate(390,440)"><circle cx="39.75" cy="39.75" r="39.25" stroke="none" clip-path="url(#clipPath5)"/></g><g transform="translate(390,440)"><circle cx="39.75" cy="39.75" r="39.25" fill="none" clip-path="url(#clipPath5)"/><text x="9" y="37" stroke="none" clip-path="url(#clipPath5)" font-family="sans-serif" font-size="14" xml:space="preserve">Gateway</text><text x="35" y="53.109" stroke="none" clip-path="url(#clipPath5)" font-family="sans-serif" font-size="14" xml:space="preserve">A</text></g><g fill="#FFF" fill-opacity="0" stroke="#FFF" stroke-opacity="0" transform="translate(220,450)"><circle cx="29.75" cy="29.75" r="29.25" stroke="none" clip-path="url(#clipPath4)"/></g><g transform="translate(220,450)"><circle cx="29.75" cy="29.75" r="29.25" fill="none" clip-path="url(#clipPath4)"/><text x="5" y="35.055" stroke="none" clip-path="url(#clipPath4)" font-family="sans-serif" font-size="14" xml:space="preserve">Charlie</text></g><g fill="#FFF" fill-opacity="0" stroke="#FFF" stroke-opacity="0" transform="translate(930,320)"><circle cx="29.75" cy="29.75" r="29.25" stroke="none" clip-path="url(#clipPath4)"/></g><g transform="translate(930,320)"><circle cx="29.75" cy="29.75" r="29.25" fill="none" clip-path="url(#clipPath4)"/><text x="7" y="35.055" stroke="none" clip-path="url(#clipPath4)" font-family="sans-serif" font-size="14" xml:space="preserve">Daniel</text></g><g fill="#FFF" fill-opacity="0" stroke="#FFF" stroke-opacity="0" transform="translate(740,310)"><circle cx="39.75" cy="39.75" r="39.25" stroke="none" clip-path="url(#clipPath5)"/></g><g transform="translate(740,310)"><circle cx="39.75" cy="39.75" r="39.25" fill="none" clip-path="url(#clipPath5)"/><text x="9" y="37" stroke="none" clip-path="url(#clipPath5)" font-family="sans-serif" font-size="14" xml:space="preserve">Gateway</text><text x="35" y="53.109" stroke="none" clip-path="url(#clipPath5)" font-family="sans-serif" font-size="14" xml:space="preserve">B</text></g><g fill="#FFF" fill-opacity="0" stroke="#FFF" stroke-opacity="0" transform="translate(570,320)"><circle cx="29.75" cy="29.75" r="29.25" stroke="none" clip-path="url(#clipPath4)"/></g><g transform="translate(570,320)"><circle cx="29.75" cy="29.75" r="29.25" fill="none" clip-path="url(#clipPath4)"/><text x="10" y="35.055" stroke="none" clip-path="url(#clipPath4)" font-family="sans-serif" font-size="14" xml:space="preserve">Emily</text></g><g fill="#FFF" fill-opacity="0" stroke="#FFF" stroke-opacity="0" transform="translate(390,310)"><circle cx="39.75" cy="39.75" r="39.25" stroke="none" clip-path="url(#clipPath5)"/></g><g transform="translate(390,310)"><circle cx="39.75" cy="39.75" r="39.25" fill="none" clip-path="url(#clipPath5)"/><text x="9" y="37" stroke="none" clip-path="url(#clipPath5)" font-family="sans-serif" font-size="14" xml:space="preserve">Gateway</text><text x="35" y="53.109" stroke="none" clip-path="url(#clipPath5)" font-family="sans-serif" font-size="14" xml:space="preserve">A</text></g><g fill="#FFF" fill-opacity="0" stroke="#FFF" stroke-opacity="0" transform="translate(220,320)"><circle cx="29.75" cy="29.75" r="29.25" stroke="none" clip-path="url(#clipPath4)"/></g><g transform="translate(220,320)"><circle cx="29.75" cy="29.75" r="29.25" fill="none" clip-path="url(#clipPath4)"/><text x="5" y="35.055" stroke="none" clip-path="url(#clipPath4)" font-family="sans-serif" font-size="14" xml:space="preserve">Charlie</text></g><g fill="#0f0" stroke="#0f0" transform="translate(50,190)"><rect width="148.5" height="48.5" x=".5" y=".5" stroke="none" clip-path="url(#clipPath3)"/><rect width="148.5" height="48.5" x=".5" y=".5" fill="none" stroke="#000" clip-path="url(#clipPath3)"/></g><g font-family="sans-serif" font-size="14"><text x="39" y="18.109" stroke="none" clip-path="url(#clipPath3)" transform="translate(50,190)" xml:space="preserve">Valid path</text><text x="10" y="34.219" stroke="none" clip-path="url(#clipPath3)" transform="translate(50,190)" xml:space="preserve">(Rippling possible)</text></g><g fill="#FFF" fill-opacity="0" stroke="#FFF" stroke-opacity="0" transform="translate(930,190)"><circle cx="29.75" cy="29.75" r="29.25" stroke="none" clip-path="url(#clipPath4)"/></g><g transform="translate(930,190)"><circle cx="29.75" cy="29.75" r="29.25" fill="none" clip-path="url(#clipPath4)"/><text x="7" y="35.055" stroke="none" clip-path="url(#clipPath4)" font-family="sans-serif" font-size="14" xml:space="preserve">Daniel</text></g><g fill="#FFF" fill-opacity="0" stroke="#FFF" stroke-opacity="0" transform="translate(740,180)"><circle cx="39.75" cy="39.75" r="39.25" stroke="none" clip-path="url(#clipPath5)"/></g><g transform="translate(740,180)"><circle cx="39.75" cy="39.75" r="39.25" fill="none" clip-path="url(#clipPath5)"/><text x="9" y="37" stroke="none" clip-path="url(#clipPath5)" font-family="sans-serif" font-size="14" xml:space="preserve">Gateway</text><text x="35" y="53.109" stroke="none" clip-path="url(#clipPath5)" font-family="sans-serif" font-size="14" xml:space="preserve">B</text></g><g fill="#FFF" fill-opacity="0" stroke="#FFF" stroke-opacity="0" transform="translate(570,190)"><circle cx="29.75" cy="29.75" r="29.25" stroke="none" clip-path="url(#clipPath4)"/></g><g transform="translate(570,190)"><circle cx="29.75" cy="29.75" r="29.25" fill="none" clip-path="url(#clipPath4)"/><text x="10" y="35.055" stroke="none" clip-path="url(#clipPath4)" font-family="sans-serif" font-size="14" xml:space="preserve">Emily</text></g><g fill="#FFF" fill-opacity="0" stroke="#FFF" stroke-opacity="0" transform="translate(390,180)"><circle cx="39.75" cy="39.75" r="39.25" stroke="none" clip-path="url(#clipPath5)"/></g><g transform="translate(390,180)"><circle cx="39.75" cy="39.75" r="39.25" fill="none" clip-path="url(#clipPath5)"/><text x="9" y="37" stroke="none" clip-path="url(#clipPath5)" font-family="sans-serif" font-size="14" xml:space="preserve">Gateway</text><text x="35" y="53.109" stroke="none" clip-path="url(#clipPath5)" font-family="sans-serif" font-size="14" xml:space="preserve">A</text></g><g fill="#FFF" fill-opacity="0" stroke="#FFF" stroke-opacity="0" transform="translate(220,190)"><circle cx="29.75" cy="29.75" r="29.25" stroke="none" clip-path="url(#clipPath4)"/></g><g transform="translate(220,190)"><circle cx="29.75" cy="29.75" r="29.25" fill="none" clip-path="url(#clipPath4)"/><text x="5" y="35.055" stroke="none" clip-path="url(#clipPath4)" font-family="sans-serif" font-size="14" xml:space="preserve">Charlie</text></g><g fill="red" stroke="red" transform="translate(50,80)"><rect width="148.5" height="38.5" x=".5" y=".5" stroke="none" clip-path="url(#clipPath6)"/><rect width="148.5" height="38.5" x=".5" y=".5" fill="none" stroke="#000" clip-path="url(#clipPath6)"/></g><g font-family="sans-serif" font-size="14"><text x="33" y="18.109" stroke="none" clip-path="url(#clipPath6)" transform="translate(50,80)" xml:space="preserve">Invalid path</text><text x="22" y="34.219" stroke="none" clip-path="url(#clipPath6)" transform="translate(50,80)" xml:space="preserve">(Cannot ripple)</text></g><g fill="#FFF" fill-opacity="0" stroke="#FFF" stroke-opacity="0" transform="translate(930,70)"><circle cx="29.75" cy="29.75" r="29.25" stroke="none" clip-path="url(#clipPath4)"/></g><g transform="translate(930,70)"><circle cx="29.75" cy="29.75" r="29.25" fill="none" clip-path="url(#clipPath4)"/><text x="7" y="35.055" stroke="none" clip-path="url(#clipPath4)" font-family="sans-serif" font-size="14" xml:space="preserve">Daniel</text></g><g fill="#FFF" fill-opacity="0" stroke="#FFF" stroke-opacity="0" transform="translate(740,60)"><circle cx="39.75" cy="39.75" r="39.25" stroke="none" clip-path="url(#clipPath5)"/></g><g transform="translate(740,60)"><circle cx="39.75" cy="39.75" r="39.25" fill="none" clip-path="url(#clipPath5)"/><text x="9" y="37" stroke="none" clip-path="url(#clipPath5)" font-family="sans-serif" font-size="14" xml:space="preserve">Gateway</text><text x="35" y="53.109" stroke="none" clip-path="url(#clipPath5)" font-family="sans-serif" font-size="14" xml:space="preserve">B</text></g><g fill="#FFF" fill-opacity="0" stroke="#FFF" stroke-opacity="0" transform="translate(390,60)"><circle cx="39.75" cy="39.75" r="39.25" stroke="none" clip-path="url(#clipPath5)"/></g><g transform="translate(390,60)"><circle cx="39.75" cy="39.75" r="39.25" fill="none" clip-path="url(#clipPath5)"/><text x="9" y="37" stroke="none" clip-path="url(#clipPath5)" font-family="sans-serif" font-size="14" xml:space="preserve">Gateway</text><text x="35" y="53.109" stroke="none" clip-path="url(#clipPath5)" font-family="sans-serif" font-size="14" xml:space="preserve">A</text></g><g fill="#FFF" fill-opacity="0" stroke="#FFF" stroke-opacity="0" transform="translate(220,70)"><circle cx="29.75" cy="29.75" r="29.25" stroke="none" clip-path="url(#clipPath4)"/></g><g transform="translate(220,70)"><circle cx="29.75" cy="29.75" r="29.25" fill="none" clip-path="url(#clipPath4)"/><text x="5" y="35.055" stroke="none" clip-path="url(#clipPath4)" font-family="sans-serif" font-size="14" xml:space="preserve">Charlie</text></g><g fill="#FFF" fill-opacity="0" stroke="#FFF" stroke-opacity="0" transform="translate(570,70)"><circle cx="29.75" cy="29.75" r="29.25" stroke="none" clip-path="url(#clipPath4)"/></g><g transform="translate(570,70)"><circle cx="29.75" cy="29.75" r="29.25" fill="none" clip-path="url(#clipPath4)"/><text x="10" y="35.055" stroke="none" clip-path="url(#clipPath4)" font-family="sans-serif" font-size="14" xml:space="preserve">Emily</text></g><g><path fill="none" d="M11.5 20.5 L120.5 20.5" clip-path="url(#clipPath7)" transform="translate(620,460)"/><path fill="none" d="M22.2583 27 L11 20.5 L22.2583 14" clip-path="url(#clipPath7)" transform="translate(620,460)"/><text x="48.225" y="16" stroke="none" clip-path="url(#clipPath7)" font-family="sans-serif" font-size="14" transform="translate(620,460)" xml:space="preserve">$100</text><text x="32.366" y="32.109" stroke="none" clip-path="url(#clipPath7)" font-family="sans-serif" font-size="14" transform="translate(620,460)" xml:space="preserve">No Ripple</text></g><g><path fill="none" d="M11.5 20.5 L110.5 20.5" clip-path="url(#clipPath8)" transform="translate(460,460)"/><path fill="none" d="M22.2583 27 L11 20.5 L22.2583 14" clip-path="url(#clipPath8)" transform="translate(460,460)"/><text x="52.32" y="16" stroke="none" clip-path="url(#clipPath8)" font-family="sans-serif" font-size="14" transform="translate(460,460)" xml:space="preserve">$1</text><text x="27.366" y="32.109" stroke="none" clip-path="url(#clipPath8)" font-family="sans-serif" font-size="14" transform="translate(460,460)" xml:space="preserve">No Ripple</text></g><g><path fill="none" d="M119.5 20.5 L10.5 20.5" clip-path="url(#clipPath9)" transform="translate(270,460)"/><path fill="none" d="M108.7417 14 L120 20.5 L108.7417 27" clip-path="url(#clipPath9)" transform="translate(270,460)"/><text x="52.679" y="16" stroke="none" clip-path="url(#clipPath9)" font-family="sans-serif" font-size="14" transform="translate(270,460)" xml:space="preserve">$10</text></g><g><path fill="none" d="M11.5 20.5 L120.5 20.5" clip-path="url(#clipPath9)" transform="translate(810,330)"/><path fill="none" d="M22.2583 27 L11 20.5 L22.2583 14" clip-path="url(#clipPath9)" transform="translate(810,330)"/><text x="57.374" y="16" stroke="none" clip-path="url(#clipPath9)" font-family="sans-serif" font-size="14" transform="translate(810,330)" xml:space="preserve">$2</text></g><g><path fill="none" d="M119.5 20.5 L10.5 20.5" clip-path="url(#clipPath9)" transform="translate(620,330)"/><path fill="none" d="M108.7417 14 L120 20.5 L108.7417 27" clip-path="url(#clipPath9)" transform="translate(620,330)"/><text x="48.225" y="16" stroke="none" clip-path="url(#clipPath9)" font-family="sans-serif" font-size="14" transform="translate(620,330)" xml:space="preserve">$100</text></g><g><path fill="none" d="M11.5 20.5 L110.5 20.5" clip-path="url(#clipPath10)" transform="translate(460,330)"/><path fill="none" d="M22.2583 27 L11 20.5 L22.2583 14" clip-path="url(#clipPath10)" transform="translate(460,330)"/><text x="52.32" y="16" stroke="none" clip-path="url(#clipPath10)" font-family="sans-serif" font-size="14" transform="translate(460,330)" xml:space="preserve">$1</text></g><g><path fill="none" d="M119.5 20.5 L10.5 20.5" clip-path="url(#clipPath9)" transform="translate(270,330)"/><path fill="none" d="M108.7417 14 L120 20.5 L108.7417 27" clip-path="url(#clipPath9)" transform="translate(270,330)"/><text x="52.679" y="16" stroke="none" clip-path="url(#clipPath9)" font-family="sans-serif" font-size="14" transform="translate(270,330)" xml:space="preserve">$10</text></g><g><path fill="none" d="M11.5 20.5 L120.5 20.5" clip-path="url(#clipPath9)" transform="translate(810,200)"/><path fill="none" d="M22.2583 27 L11 20.5 L22.2583 14" clip-path="url(#clipPath9)" transform="translate(810,200)"/><text x="57.374" y="16" stroke="none" clip-path="url(#clipPath9)" font-family="sans-serif" font-size="14" transform="translate(810,200)" xml:space="preserve">$2</text></g><g><path fill="none" d="M119.5 20.5 L10.5 20.5" clip-path="url(#clipPath9)" transform="translate(620,200)"/><path fill="none" d="M108.7417 14 L120 20.5 L108.7417 27" clip-path="url(#clipPath9)" transform="translate(620,200)"/><text x="48.225" y="16" stroke="none" clip-path="url(#clipPath9)" font-family="sans-serif" font-size="14" transform="translate(620,200)" xml:space="preserve">$100</text></g><g><path fill="none" d="M11.5 20.5 L110.5 20.5" clip-path="url(#clipPath8)" transform="translate(460,200)"/><path fill="none" d="M22.2583 27 L11 20.5 L22.2583 14" clip-path="url(#clipPath8)" transform="translate(460,200)"/><text x="52.32" y="16" stroke="none" clip-path="url(#clipPath8)" font-family="sans-serif" font-size="14" transform="translate(460,200)" xml:space="preserve">$1</text><text x="27.366" y="32.109" stroke="none" clip-path="url(#clipPath8)" font-family="sans-serif" font-size="14" transform="translate(460,200)" xml:space="preserve">No Ripple</text></g><g><path fill="none" d="M119.5 20.5 L10.5 20.5" clip-path="url(#clipPath9)" transform="translate(270,200)"/><path fill="none" d="M108.7417 14 L120 20.5 L108.7417 27" clip-path="url(#clipPath9)" transform="translate(270,200)"/><text x="52.679" y="16" stroke="none" clip-path="url(#clipPath9)" font-family="sans-serif" font-size="14" transform="translate(270,200)" xml:space="preserve">$10</text></g><g><path fill="none" d="M11.5 20.5 L120.5 20.5" clip-path="url(#clipPath9)" transform="translate(810,80)"/><path fill="none" d="M22.2583 27 L11 20.5 L22.2583 14" clip-path="url(#clipPath9)" transform="translate(810,80)"/><text x="57.374" y="16" stroke="none" clip-path="url(#clipPath9)" font-family="sans-serif" font-size="14" transform="translate(810,80)" xml:space="preserve">$2</text></g><g><path fill="none" d="M119.5 20.5 L10.5 20.5" clip-path="url(#clipPath7)" transform="translate(620,80)"/><path fill="none" d="M108.7417 14 L120 20.5 L108.7417 27" clip-path="url(#clipPath7)" transform="translate(620,80)"/><text x="48.225" y="16" stroke="none" clip-path="url(#clipPath7)" font-family="sans-serif" font-size="14" transform="translate(620,80)" xml:space="preserve">$100</text><text x="8.277" y="32.109" stroke="none" clip-path="url(#clipPath7)" font-family="sans-serif" font-size="14" transform="translate(620,80)" xml:space="preserve">No Ripple .</text></g><g><path fill="none" d="M119.5 20.5 L10.5 20.5" clip-path="url(#clipPath9)" transform="translate(270,80)"/><path fill="none" d="M108.7417 14 L120 20.5 L108.7417 27" clip-path="url(#clipPath9)" transform="translate(270,80)"/><text x="52.679" y="16" stroke="none" clip-path="url(#clipPath9)" font-family="sans-serif" font-size="14" transform="translate(270,80)" xml:space="preserve">$10</text></g><g><path fill="none" d="M11.5 20.5 L110.5 20.5" clip-path="url(#clipPath8)" transform="translate(460,80)"/><path fill="none" d="M22.2583 27 L11 20.5 L22.2583 14" clip-path="url(#clipPath8)" transform="translate(460,80)"/><text x="52.32" y="16" stroke="none" clip-path="url(#clipPath8)" font-family="sans-serif" font-size="14" transform="translate(460,80)" xml:space="preserve">$1</text><text x="27.366" y="32.109" stroke="none" clip-path="url(#clipPath8)" font-family="sans-serif" font-size="14" transform="translate(460,80)" xml:space="preserve">No Ripple</text></g></g></svg>