<svg xmlns="http://www.w3.org/2000/svg" xmlns:xlink="http://www.w3.org/1999/xlink" width="800" height="460" fill="#000" fill-opacity="1" stroke="#000" stroke-dasharray="none" stroke-dashoffset="0" stroke-linecap="square" stroke-linejoin="miter" stroke-miterlimit="10" stroke-opacity="1" stroke-width="1" color-interpolation="auto" color-rendering="auto" font-family="'Dialog'" font-size="12" font-style="normal" font-weight="normal" image-rendering="auto" shape-rendering="auto" text-rendering="auto" viewBox="20 40 800 460"><g><defs id="defs1"><clipPath id="clipPath1" clipPathUnits="userSpaceOnUse"><path d="M0 0 L2147483647 0 L2147483647 2147483647 L0 2147483647 L0 0 Z"/></clipPath><clipPath id="clipPath2" clipPathUnits="userSpaceOnUse"><path d="M0 0 L0 30 L220 30 L220 0 Z"/></clipPath><clipPath id="clipPath3" clipPathUnits="userSpaceOnUse"><path d="M0 0 L0 40 L380 40 L380 0 Z"/></clipPath><clipPath id="clipPath4" clipPathUnits="userSpaceOnUse"><path d="M0 0 L0 40 L330 40 L330 0 Z"/></clipPath><clipPath id="clipPath5" clipPathUnits="userSpaceOnUse"><path d="M0 0 L0 60 L230 60 L230 0 Z"/></clipPath><clipPath id="clipPath6" clipPathUnits="userSpaceOnUse"><path d="M0 0 L0 30 L170 30 L170 0 Z"/></clipPath><clipPath id="clipPath7" clipPathUnits="userSpaceOnUse"><path d="M0 0 L0 30 L210 30 L210 0 Z"/></clipPath><clipPath id="clipPath8" clipPathUnits="userSpaceOnUse"><path d="M0 0 L0 40 L210 40 L210 0 Z"/></clipPath><clipPath id="clipPath9" clipPathUnits="userSpaceOnUse"><path d="M0 0 L0 40 L170 40 L170 0 Z"/></clipPath><clipPath id="clipPath10" clipPathUnits="userSpaceOnUse"><path d="M0 0 L0 70 L90 70 L90 0 Z"/></clipPath><clipPath id="clipPath11" clipPathUnits="userSpaceOnUse"><path d="M0 0 L0 50 L740 50 L740 0 Z"/></clipPath><clipPath id="clipPath12" clipPathUnits="userSpaceOnUse"><path d="M0 0 L0 60 L80 60 L80 0 Z"/></clipPath><clipPath id="clipPath13" clipPathUnits="userSpaceOnUse"><path d="M0 0 L0 60 L70 60 L70 0 Z"/></clipPath></defs><g font-family="sans-serif" font-size="14" font-weight="bold"><text x="5" y="18.109" stroke="none" clip-path="url(#clipPath2)" transform="translate(40,280)" xml:space="preserve">With advisory deletion</text></g><g font-family="sans-serif" font-size="14" font-weight="bold"><text x="5" y="18.109" stroke="none" clip-path="url(#clipPath2)" transform="translate(50,60)" xml:space="preserve">Without advisory deletion</text></g><g fill="#0f0" stroke="#0f0" transform="translate(380,390)"><rect width="378.5" height="38.5" x=".5" y=".5" stroke="none" clip-path="url(#clipPath3)"/><rect width="378.5" height="38.5" x=".5" y=".5" fill="none" stroke="#000" clip-path="url(#clipPath3)"/></g><g font-family="sans-serif" font-size="14"><text x="127" y="18.109" stroke="none" clip-path="url(#clipPath3)" transform="translate(380,390)" xml:space="preserve">Backfill if possible</text></g><g fill="#C8C8C8" stroke="#C8C8C8" transform="translate(50,390)"><rect width="328.5" height="38.5" x=".5" y=".5" stroke="none" clip-path="url(#clipPath4)"/></g><g stroke-dasharray="1 2" stroke-linecap="butt" stroke-miterlimit="5" transform="translate(50,390)"><rect width="328.5" height="38.5" x=".5" y=".5" fill="none" clip-path="url(#clipPath4)"/><text x="92" y="18.109" stroke="none" clip-path="url(#clipPath4)" font-family="sans-serif" font-size="14" xml:space="preserve">Delete automatically</text></g><g font-family="sans-serif" font-size="14"><text x="5" y="18.109" stroke="none" clip-path="url(#clipPath5)" transform="translate(110,320)" xml:space="preserve">online_delete setting, or most</text><text x="5" y="34.219" stroke="none" clip-path="url(#clipPath5)" transform="translate(110,320)" xml:space="preserve">recent can_delete point,</text><text x="5" y="50.328" stroke="none" clip-path="url(#clipPath5)" transform="translate(110,320)" xml:space="preserve">whichever is older</text></g><g font-family="sans-serif" font-size="14"><text x="5" y="18.109" stroke="none" clip-path="url(#clipPath6)" transform="translate(170,100)" xml:space="preserve">online_delete setting</text></g><g font-family="sans-serif" font-size="14"><text x="5" y="18.109" stroke="none" clip-path="url(#clipPath7)" transform="translate(590,100)" xml:space="preserve">ledger_history setting</text></g><g fill="#0f0" stroke="#0f0" transform="translate(550,140)"><rect width="208.5" height="38.5" x=".5" y=".5" stroke="none" clip-path="url(#clipPath8)"/><rect width="208.5" height="38.5" x=".5" y=".5" fill="none" stroke="#000" clip-path="url(#clipPath8)"/></g><g font-family="sans-serif" font-size="14"><text x="42" y="18.109" stroke="none" clip-path="url(#clipPath8)" transform="translate(550,140)" xml:space="preserve">Backfill if possible</text></g><g fill="#464646" stroke="#464646" transform="translate(380,140)"><rect width="168.5" height="38.5" x=".5" y=".5" stroke="none" clip-path="url(#clipPath9)"/><rect width="168.5" height="38.5" x=".5" y=".5" fill="none" stroke="#fff" clip-path="url(#clipPath9)"/></g><g fill="#fff" stroke="#fff" font-family="sans-serif" font-size="14"><text x="26" y="18.109" stroke="none" clip-path="url(#clipPath9)" transform="translate(380,140)" xml:space="preserve">Keep if available</text></g><g fill="#C8C8C8" stroke="#C8C8C8" transform="translate(50,140)"><rect width="328.5" height="38.5" x=".5" y=".5" stroke="none" clip-path="url(#clipPath4)"/></g><g stroke-dasharray="1 2" stroke-linecap="butt" stroke-miterlimit="5" transform="translate(50,140)"><rect width="328.5" height="38.5" x=".5" y=".5" fill="none" clip-path="url(#clipPath4)"/><text x="92" y="18.109" stroke="none" clip-path="url(#clipPath4)" font-family="sans-serif" font-size="14" xml:space="preserve">Delete automatically</text></g><g><path fill="none" d="M70.5 49.5 L70.5 10.5" clip-path="url(#clipPath10)" transform="translate(310,340)"/><path fill="none" d="M70.5 10.5 L10.5 10.5" clip-path="url(#clipPath10)" transform="translate(310,340)"/><path stroke="none" d="M77 38.7417 L70.5 50 L64 38.7417 Z" clip-path="url(#clipPath10)" transform="translate(310,340)"/><path fill="none" d="M77 38.7417 L70.5 50 L64 38.7417 Z" clip-path="url(#clipPath10)" transform="translate(310,340)"/></g><g><path fill="none" d="M10.5 20.5 L719.5 20.5" clip-path="url(#clipPath11)" transform="translate(40,430)"/><path fill="#fff" stroke="none" d="M708.7417 27 L720 20.5 L708.7417 14 Z" clip-path="url(#clipPath11)" transform="translate(40,430)"/><path fill="none" d="M708.7417 27 L720 20.5 L708.7417 14 Z" clip-path="url(#clipPath11)" transform="translate(40,430)"/><text x="310.242" y="32.109" stroke="none" clip-path="url(#clipPath11)" font-family="sans-serif" font-size="14" transform="translate(40,430)" xml:space="preserve">Ledger versions</text><text x="29" y="34.109" stroke="none" clip-path="url(#clipPath11)" font-family="sans-serif" font-size="14" transform="translate(40,430)" xml:space="preserve">oldest</text><text x="651.266" y="34.109" stroke="none" clip-path="url(#clipPath11)" font-family="sans-serif" font-size="14" transform="translate(40,430)" xml:space="preserve">newest</text></g><g><path fill="none" d="M60.5 39.5 L60.5 10.5" clip-path="url(#clipPath12)" transform="translate(320,100)"/><path fill="none" d="M60.5 10.5 L10.5 10.5" clip-path="url(#clipPath12)" transform="translate(320,100)"/><path stroke="none" d="M67 28.7417 L60.5 40 L54 28.7417 Z" clip-path="url(#clipPath12)" transform="translate(320,100)"/><path fill="none" d="M67 28.7417 L60.5 40 L54 28.7417 Z" clip-path="url(#clipPath12)" transform="translate(320,100)"/></g><g><path fill="none" d="M10.5 39.5 L10.5 10.5" clip-path="url(#clipPath13)" transform="translate(540,100)"/><path fill="none" d="M10.5 10.5 L50.5 10.5" clip-path="url(#clipPath13)" transform="translate(540,100)"/><path stroke="none" d="M17 28.7417 L10.5 40 L4 28.7417 Z" clip-path="url(#clipPath13)" transform="translate(540,100)"/><path fill="none" d="M17 28.7417 L10.5 40 L4 28.7417 Z" clip-path="url(#clipPath13)" transform="translate(540,100)"/></g><g><path fill="none" d="M10.5 20.5 L719.5 20.5" clip-path="url(#clipPath11)" transform="translate(40,180)"/><path fill="#fff" stroke="none" d="M708.7417 27 L720 20.5 L708.7417 14 Z" clip-path="url(#clipPath11)" transform="translate(40,180)"/><path fill="none" d="M708.7417 27 L720 20.5 L708.7417 14 Z" clip-path="url(#clipPath11)" transform="translate(40,180)"/><text x="310.242" y="32.109" stroke="none" clip-path="url(#clipPath11)" font-family="sans-serif" font-size="14" transform="translate(40,180)" xml:space="preserve">Ledger versions</text><text x="29" y="34.109" stroke="none" clip-path="url(#clipPath11)" font-family="sans-serif" font-size="14" transform="translate(40,180)" xml:space="preserve">oldest</text><text x="651.266" y="34.109" stroke="none" clip-path="url(#clipPath11)" font-family="sans-serif" font-size="14" transform="translate(40,180)" xml:space="preserve">newest</text></g></g></svg>