<svg xmlns="http://www.w3.org/2000/svg" xmlns:xlink="http://www.w3.org/1999/xlink" width="1170" height="530" fill="#000" fill-opacity="1" stroke="#000" stroke-dasharray="none" stroke-dashoffset="0" stroke-linecap="square" stroke-linejoin="miter" stroke-miterlimit="10" stroke-opacity="1" stroke-width="1" color-interpolation="auto" color-rendering="auto" font-family="'Dialog'" font-size="12" font-style="normal" font-weight="normal" image-rendering="auto" shape-rendering="auto" text-rendering="auto" viewBox="40 10 1170 530"><g><defs id="defs1"><clipPath id="clipPath1" clipPathUnits="userSpaceOnUse"><path d="M0 0 L2147483647 0 L2147483647 2147483647 L0 2147483647 L0 0 Z"/></clipPath><clipPath id="clipPath2" clipPathUnits="userSpaceOnUse"><path d="M0 0 L0 50 L200 50 L200 0 Z"/></clipPath><clipPath id="clipPath3" clipPathUnits="userSpaceOnUse"><path d="M0 0 L0 30 L30 30 L30 0 Z"/></clipPath><clipPath id="clipPath4" clipPathUnits="userSpaceOnUse"><path d="M0 0 L0 30 L200 30 L200 0 Z"/></clipPath><clipPath id="clipPath5" clipPathUnits="userSpaceOnUse"><path d="M0 0 L0 40 L230 40 L230 0 Z"/></clipPath><clipPath id="clipPath6" clipPathUnits="userSpaceOnUse"><path d="M0 0 L0 180 L320 180 L320 0 Z"/></clipPath><clipPath id="clipPath7" clipPathUnits="userSpaceOnUse"><path d="M0 0 L0 120 L140 120 L140 0 Z"/></clipPath><clipPath id="clipPath8" clipPathUnits="userSpaceOnUse"><path d="M0 0 L0 100 L130 100 L130 0 Z"/></clipPath><clipPath id="clipPath9" clipPathUnits="userSpaceOnUse"><path d="M0 0 L0 100 L100 100 L100 0 Z"/></clipPath><clipPath id="clipPath10" clipPathUnits="userSpaceOnUse"><path d="M0 0 L0 30 L60 30 L60 0 Z"/></clipPath><clipPath id="clipPath11" clipPathUnits="userSpaceOnUse"><path d="M0 0 L0 40 L70 40 L70 0 Z"/></clipPath><clipPath id="clipPath12" clipPathUnits="userSpaceOnUse"><path d="M0 0 L0 30 L70 30 L70 0 Z"/></clipPath></defs><g font-family="sans-serif" font-size="14"><text x="5" y="18.109" stroke="none" clip-path="url(#clipPath2)" transform="translate(920,160)" xml:space="preserve">Path step - order book</text></g><g fill="#FFF" fill-opacity="0" stroke="#FFF" stroke-opacity="0" transform="translate(880,160)"><rect width="28.5" height="28.5" x=".5" y=".5" stroke="none" clip-path="url(#clipPath3)"/></g><g transform="translate(880,160)"><rect width="28.5" height="28.5" x=".5" y=".5" fill="none" clip-path="url(#clipPath3)"/></g><g font-family="sans-serif" font-size="14"><text x="5" y="18.109" stroke="none" clip-path="url(#clipPath4)" transform="translate(920,110)" xml:space="preserve">Path step - account</text></g><g fill="#FFF" fill-opacity="0" stroke="#FFF" stroke-opacity="0" transform="translate(880,110)"><circle cx="14.75" cy="14.75" r="14.25" stroke="none" clip-path="url(#clipPath3)"/></g><g transform="translate(880,110)"><circle cx="14.75" cy="14.75" r="14.25" fill="none" clip-path="url(#clipPath3)"/></g><g font-family="sans-serif" font-size="14"><text x="5" y="18.109" stroke="none" clip-path="url(#clipPath5)" transform="translate(920,70)" xml:space="preserve">Implied path step/link</text></g><g fill="#FFF" fill-opacity="0" stroke="#FFF" stroke-opacity="0" transform="translate(870,30)"><rect width="318.5" height="178.5" x=".5" y=".5" stroke="none" clip-path="url(#clipPath6)"/></g><g transform="translate(870,30)"><rect width="318.5" height="178.5" x=".5" y=".5" fill="none" clip-path="url(#clipPath6)"/><text x="134" y="18.109" stroke="none" clip-path="url(#clipPath6)" font-family="sans-serif" font-size="14" xml:space="preserve">Legend</text><path fill="none" d="M1 24.1094 L319 24.1094" clip-path="url(#clipPath6)"/></g><g fill="#ff0" stroke="#ff0"><path stroke="none" d="M0.5 0.5 L128.5 0.5 L139 12.5 L139 119 L0.5 119 Z" clip-path="url(#clipPath7)" transform="translate(1050,400)"/><path fill="none" stroke="#000" d="M0.5 0.5 L128.5 0.5 L139 12.5 L139 119 L0.5 119 Z" clip-path="url(#clipPath7)" transform="translate(1050,400)"/><path fill="none" stroke="#000" d="M128.5 0.5 L128.5 12.5 L139 12.5" clip-path="url(#clipPath7)" transform="translate(1050,400)"/></g><g font-family="sans-serif" font-size="14"><text x="5" y="18.109" stroke="none" clip-path="url(#clipPath7)" transform="translate(1050,400)" xml:space="preserve">XRP can bridge</text><text x="5" y="34.219" stroke="none" clip-path="url(#clipPath7)" transform="translate(1050,400)" xml:space="preserve">two order books</text></g><g fill="#ff0" stroke="#ff0"><path stroke="none" d="M0.5 0.5 L118.5 0.5 L129 12.5 L129 99 L0.5 99 Z" clip-path="url(#clipPath8)" transform="translate(500,60)"/><path fill="none" stroke="#000" d="M0.5 0.5 L118.5 0.5 L129 12.5 L129 99 L0.5 99 Z" clip-path="url(#clipPath8)" transform="translate(500,60)"/><path fill="none" stroke="#000" d="M118.5 0.5 L118.5 12.5 L129 12.5" clip-path="url(#clipPath8)" transform="translate(500,60)"/></g><g font-family="sans-serif" font-size="14"><text x="5" y="18.109" stroke="none" clip-path="url(#clipPath8)" transform="translate(500,60)" xml:space="preserve">A simple path,</text><text x="5" y="34.219" stroke="none" clip-path="url(#clipPath8)" transform="translate(500,60)" xml:space="preserve">which ripples</text><text x="5" y="50.328" stroke="none" clip-path="url(#clipPath8)" transform="translate(500,60)" xml:space="preserve">through an</text><text x="5" y="66.438" stroke="none" clip-path="url(#clipPath8)" transform="translate(500,60)" xml:space="preserve">issuer trusted</text><text x="5" y="82.547" stroke="none" clip-path="url(#clipPath8)" transform="translate(500,60)" xml:space="preserve">by both parties</text></g><g fill="#FFF" fill-opacity="0" stroke="#FFF" stroke-opacity="0" transform="translate(200,60)"><circle cx="49.75" cy="49.75" r="49.25" stroke="none" clip-path="url(#clipPath9)"/></g><g transform="translate(200,60)"><circle cx="49.75" cy="49.75" r="49.25" fill="none" clip-path="url(#clipPath9)"/><text x="19" y="36.445" stroke="none" clip-path="url(#clipPath9)" font-family="sans-serif" font-size="14" xml:space="preserve">Account:</text><path fill="none" d="M1.653 42.4453 L98.847 42.4453" clip-path="url(#clipPath9)"/><text x="15" y="57.555" stroke="none" clip-path="url(#clipPath9)" font-family="sans-serif" font-size="14" xml:space="preserve">rvYAfWj...</text></g><g fill="#FFF" fill-opacity="0" stroke="#FFF" stroke-opacity="0" transform="translate(340,60)"><circle cx="49.75" cy="49.75" r="49.25" stroke="none" clip-path="url(#clipPath9)"/></g><g stroke-dasharray="8 5" stroke-linecap="butt" stroke-miterlimit="5" transform="translate(340,60)"><circle cx="49.75" cy="49.75" r="49.25" fill="none" clip-path="url(#clipPath9)"/><text x="17" y="30.891" stroke="none" clip-path="url(#clipPath9)" font-family="sans-serif" font-size="14" xml:space="preserve">Receiver:</text><text x="13" y="47" stroke="none" clip-path="url(#clipPath9)" font-family="sans-serif" font-size="14" xml:space="preserve">ra5nK24...</text><text x="15" y="63.109" stroke="none" clip-path="url(#clipPath9)" font-family="sans-serif" font-size="14" xml:space="preserve">Currency:</text><text x="35" y="79.219" stroke="none" clip-path="url(#clipPath9)" font-family="sans-serif" font-size="14" xml:space="preserve">USD</text></g><g fill="#FFF" fill-opacity="0" stroke="#FFF" stroke-opacity="0" transform="translate(60,60)"><circle cx="49.75" cy="49.75" r="49.25" stroke="none" clip-path="url(#clipPath9)"/></g><g stroke-dasharray="8 5" stroke-linecap="butt" stroke-miterlimit="5" transform="translate(60,60)"><circle cx="49.75" cy="49.75" r="49.25" fill="none" clip-path="url(#clipPath9)"/><text x="22" y="30.891" stroke="none" clip-path="url(#clipPath9)" font-family="sans-serif" font-size="14" xml:space="preserve">Sender:</text><text x="11" y="47" stroke="none" clip-path="url(#clipPath9)" font-family="sans-serif" font-size="14" xml:space="preserve">r9cZA1m...</text><text x="15" y="63.109" stroke="none" clip-path="url(#clipPath9)" font-family="sans-serif" font-size="14" xml:space="preserve">Currency:</text><text x="35" y="79.219" stroke="none" clip-path="url(#clipPath9)" font-family="sans-serif" font-size="14" xml:space="preserve">USD</text></g><g fill="#FFF" fill-opacity="0" stroke="#FFF" stroke-opacity="0" transform="translate(480,410)"><rect width="98.5" height="98.5" x=".5" y=".5" stroke="none" clip-path="url(#clipPath9)"/></g><g transform="translate(480,410)"><rect width="98.5" height="98.5" x=".5" y=".5" fill="none" clip-path="url(#clipPath9)"/><text x="7" y="18.109" stroke="none" clip-path="url(#clipPath9)" font-family="sans-serif" font-size="14" xml:space="preserve">Order Book:</text><path fill="none" d="M1 24.1094 L99 24.1094" clip-path="url(#clipPath9)"/><text x="5" y="39.219" stroke="none" clip-path="url(#clipPath9)" font-family="sans-serif" font-size="14" xml:space="preserve">XRP</text><path fill="none" d="M1 45.2188 L99 45.2188" clip-path="url(#clipPath9)"/><text x="5" y="60.328" stroke="none" clip-path="url(#clipPath9)" font-family="sans-serif" font-size="14" xml:space="preserve">USD</text><text x="5" y="76.438" stroke="none" clip-path="url(#clipPath9)" font-family="sans-serif" font-size="14" xml:space="preserve">rMwjYe...</text></g><g fill="#FFF" fill-opacity="0" stroke="#FFF" stroke-opacity="0" transform="translate(900,410)"><circle cx="49.75" cy="49.75" r="49.25" stroke="none" clip-path="url(#clipPath9)"/></g><g stroke-dasharray="8 5" stroke-linecap="butt" stroke-miterlimit="5" transform="translate(900,410)"><circle cx="49.75" cy="49.75" r="49.25" fill="none" clip-path="url(#clipPath9)"/><text x="17" y="30.891" stroke="none" clip-path="url(#clipPath9)" font-family="sans-serif" font-size="14" xml:space="preserve">Receiver:</text><text x="13" y="47" stroke="none" clip-path="url(#clipPath9)" font-family="sans-serif" font-size="14" xml:space="preserve">ra5nK24...</text><text x="15" y="63.109" stroke="none" clip-path="url(#clipPath9)" font-family="sans-serif" font-size="14" xml:space="preserve">Currency:</text><text x="35" y="79.219" stroke="none" clip-path="url(#clipPath9)" font-family="sans-serif" font-size="14" xml:space="preserve">USD</text></g><g fill="#FFF" fill-opacity="0" stroke="#FFF" stroke-opacity="0" transform="translate(760,410)"><circle cx="49.75" cy="49.75" r="49.25" stroke="none" clip-path="url(#clipPath9)"/></g><g transform="translate(760,410)"><circle cx="49.75" cy="49.75" r="49.25" fill="none" clip-path="url(#clipPath9)"/><text x="19" y="36.445" stroke="none" clip-path="url(#clipPath9)" font-family="sans-serif" font-size="14" xml:space="preserve">Account:</text><path fill="none" d="M1.653 42.4453 L98.847 42.4453" clip-path="url(#clipPath9)"/><text x="17" y="57.555" stroke="none" clip-path="url(#clipPath9)" font-family="sans-serif" font-size="14" xml:space="preserve">rf1BiGe...</text></g><g fill="#FFF" fill-opacity="0" stroke="#FFF" stroke-opacity="0" transform="translate(620,410)"><circle cx="49.75" cy="49.75" r="49.25" stroke="none" clip-path="url(#clipPath9)"/></g><g transform="translate(620,410)"><circle cx="49.75" cy="49.75" r="49.25" fill="none" clip-path="url(#clipPath9)"/><text x="19" y="36.445" stroke="none" clip-path="url(#clipPath9)" font-family="sans-serif" font-size="14" xml:space="preserve">Account:</text><path fill="none" d="M1.653 42.4453 L98.847 42.4453" clip-path="url(#clipPath9)"/><text x="18" y="57.555" stroke="none" clip-path="url(#clipPath9)" font-family="sans-serif" font-size="14" xml:space="preserve">rMwjYe...</text></g><g fill="#FFF" fill-opacity="0" stroke="#FFF" stroke-opacity="0" transform="translate(340,410)"><rect width="98.5" height="98.5" x=".5" y=".5" stroke="none" clip-path="url(#clipPath9)"/></g><g transform="translate(340,410)"><rect width="98.5" height="98.5" x=".5" y=".5" fill="none" clip-path="url(#clipPath9)"/><text x="7" y="18.109" stroke="none" clip-path="url(#clipPath9)" font-family="sans-serif" font-size="14" xml:space="preserve">Order Book:</text><path fill="none" d="M1 24.1094 L99 24.1094" clip-path="url(#clipPath9)"/><text x="5" y="39.219" stroke="none" clip-path="url(#clipPath9)" font-family="sans-serif" font-size="14" xml:space="preserve">USD</text><text x="5" y="55.328" stroke="none" clip-path="url(#clipPath9)" font-family="sans-serif" font-size="14" xml:space="preserve">rvYAfWj...</text><path fill="none" d="M1 61.3281 L99 61.3281" clip-path="url(#clipPath9)"/><text x="5" y="76.438" stroke="none" clip-path="url(#clipPath9)" font-family="sans-serif" font-size="14" xml:space="preserve">XRP</text></g><g fill="#FFF" fill-opacity="0" stroke="#FFF" stroke-opacity="0" transform="translate(200,410)"><circle cx="49.75" cy="49.75" r="49.25" stroke="none" clip-path="url(#clipPath9)"/></g><g transform="translate(200,410)"><circle cx="49.75" cy="49.75" r="49.25" fill="none" clip-path="url(#clipPath9)"/><text x="19" y="36.445" stroke="none" clip-path="url(#clipPath9)" font-family="sans-serif" font-size="14" xml:space="preserve">Account:</text><path fill="none" d="M1.653 42.4453 L98.847 42.4453" clip-path="url(#clipPath9)"/><text x="15" y="57.555" stroke="none" clip-path="url(#clipPath9)" font-family="sans-serif" font-size="14" xml:space="preserve">rvYAfWj...</text></g><g fill="#FFF" fill-opacity="0" stroke="#FFF" stroke-opacity="0" transform="translate(60,410)"><circle cx="49.75" cy="49.75" r="49.25" stroke="none" clip-path="url(#clipPath9)"/></g><g stroke-dasharray="8 5" stroke-linecap="butt" stroke-miterlimit="5" transform="translate(60,410)"><circle cx="49.75" cy="49.75" r="49.25" fill="none" clip-path="url(#clipPath9)"/><text x="22" y="30.891" stroke="none" clip-path="url(#clipPath9)" font-family="sans-serif" font-size="14" xml:space="preserve">Sender:</text><text x="11" y="47" stroke="none" clip-path="url(#clipPath9)" font-family="sans-serif" font-size="14" xml:space="preserve">r9cZA1m...</text><text x="15" y="63.109" stroke="none" clip-path="url(#clipPath9)" font-family="sans-serif" font-size="14" xml:space="preserve">Currency:</text><text x="35" y="79.219" stroke="none" clip-path="url(#clipPath9)" font-family="sans-serif" font-size="14" xml:space="preserve">USD</text></g><g fill="#ff0" stroke="#ff0"><path stroke="none" d="M0.5 0.5 L128.5 0.5 L139 12.5 L139 119 L0.5 119 Z" clip-path="url(#clipPath7)" transform="translate(920,230)"/><path fill="none" stroke="#000" d="M0.5 0.5 L128.5 0.5 L139 12.5 L139 119 L0.5 119 Z" clip-path="url(#clipPath7)" transform="translate(920,230)"/><path fill="none" stroke="#000" d="M128.5 0.5 L128.5 12.5 L139 12.5" clip-path="url(#clipPath7)" transform="translate(920,230)"/></g><g font-family="sans-serif" font-size="14"><text x="5" y="18.109" stroke="none" clip-path="url(#clipPath7)" transform="translate(920,230)" xml:space="preserve">Same-currency</text><text x="5" y="34.219" stroke="none" clip-path="url(#clipPath7)" transform="translate(920,230)" xml:space="preserve">paths can</text><text x="5" y="50.328" stroke="none" clip-path="url(#clipPath7)" transform="translate(920,230)" xml:space="preserve">connect through</text><text x="5" y="66.438" stroke="none" clip-path="url(#clipPath7)" transform="translate(920,230)" xml:space="preserve">rippling or</text><text x="5" y="82.547" stroke="none" clip-path="url(#clipPath7)" transform="translate(920,230)" xml:space="preserve">through order</text><text x="5" y="98.656" stroke="none" clip-path="url(#clipPath7)" transform="translate(920,230)" xml:space="preserve">books.</text></g><g fill="#FFF" fill-opacity="0" stroke="#FFF" stroke-opacity="0" transform="translate(760,240)"><circle cx="49.75" cy="49.75" r="49.25" stroke="none" clip-path="url(#clipPath9)"/></g><g stroke-dasharray="8 5" stroke-linecap="butt" stroke-miterlimit="5" transform="translate(760,240)"><circle cx="49.75" cy="49.75" r="49.25" fill="none" clip-path="url(#clipPath9)"/><text x="17" y="30.891" stroke="none" clip-path="url(#clipPath9)" font-family="sans-serif" font-size="14" xml:space="preserve">Receiver:</text><text x="13" y="47" stroke="none" clip-path="url(#clipPath9)" font-family="sans-serif" font-size="14" xml:space="preserve">ra5nK24...</text><text x="15" y="63.109" stroke="none" clip-path="url(#clipPath9)" font-family="sans-serif" font-size="14" xml:space="preserve">Currency:</text><text x="35" y="79.219" stroke="none" clip-path="url(#clipPath9)" font-family="sans-serif" font-size="14" xml:space="preserve">USD</text></g><g fill="#FFF" fill-opacity="0" stroke="#FFF" stroke-opacity="0" transform="translate(480,240)"><circle cx="49.75" cy="49.75" r="49.25" stroke="none" clip-path="url(#clipPath9)"/></g><g transform="translate(480,240)"><circle cx="49.75" cy="49.75" r="49.25" fill="none" clip-path="url(#clipPath9)"/><text x="19" y="36.445" stroke="none" clip-path="url(#clipPath9)" font-family="sans-serif" font-size="14" xml:space="preserve">Account:</text><path fill="none" d="M1.653 42.4453 L98.847 42.4453" clip-path="url(#clipPath9)"/><text x="18" y="57.555" stroke="none" clip-path="url(#clipPath9)" font-family="sans-serif" font-size="14" xml:space="preserve">rMwjYe...</text></g><g fill="#FFF" fill-opacity="0" stroke="#FFF" stroke-opacity="0" transform="translate(340,240)"><rect width="98.5" height="98.5" x=".5" y=".5" stroke="none" clip-path="url(#clipPath9)"/></g><g transform="translate(340,240)"><rect width="98.5" height="98.5" x=".5" y=".5" fill="none" clip-path="url(#clipPath9)"/><text x="7" y="18.109" stroke="none" clip-path="url(#clipPath9)" font-family="sans-serif" font-size="14" xml:space="preserve">Order Book:</text><path fill="none" d="M1 24.1094 L99 24.1094" clip-path="url(#clipPath9)"/><text x="5" y="39.219" stroke="none" clip-path="url(#clipPath9)" font-family="sans-serif" font-size="14" xml:space="preserve">USD</text><text x="5" y="55.328" stroke="none" clip-path="url(#clipPath9)" font-family="sans-serif" font-size="14" xml:space="preserve">rvYAfWj...</text><path fill="none" d="M1 61.3281 L99 61.3281" clip-path="url(#clipPath9)"/><text x="5" y="76.438" stroke="none" clip-path="url(#clipPath9)" font-family="sans-serif" font-size="14" xml:space="preserve">USD</text><text x="5" y="92.547" stroke="none" clip-path="url(#clipPath9)" font-family="sans-serif" font-size="14" xml:space="preserve">rMwjYe...</text></g><g fill="#FFF" fill-opacity="0" stroke="#FFF" stroke-opacity="0" transform="translate(200,240)"><circle cx="49.75" cy="49.75" r="49.25" stroke="none" clip-path="url(#clipPath9)"/></g><g transform="translate(200,240)"><circle cx="49.75" cy="49.75" r="49.25" fill="none" clip-path="url(#clipPath9)"/><text x="19" y="36.445" stroke="none" clip-path="url(#clipPath9)" font-family="sans-serif" font-size="14" xml:space="preserve">Account:</text><path fill="none" d="M1.653 42.4453 L98.847 42.4453" clip-path="url(#clipPath9)"/><text x="15" y="57.555" stroke="none" clip-path="url(#clipPath9)" font-family="sans-serif" font-size="14" xml:space="preserve">rvYAfWj...</text></g><g fill="#FFF" fill-opacity="0" stroke="#FFF" stroke-opacity="0" transform="translate(60,240)"><circle cx="49.75" cy="49.75" r="49.25" stroke="none" clip-path="url(#clipPath9)"/></g><g stroke-dasharray="8 5" stroke-linecap="butt" stroke-miterlimit="5" transform="translate(60,240)"><circle cx="49.75" cy="49.75" r="49.25" fill="none" clip-path="url(#clipPath9)"/><text x="22" y="30.891" stroke="none" clip-path="url(#clipPath9)" font-family="sans-serif" font-size="14" xml:space="preserve">Sender:</text><text x="11" y="47" stroke="none" clip-path="url(#clipPath9)" font-family="sans-serif" font-size="14" xml:space="preserve">r9cZA1m...</text><text x="15" y="63.109" stroke="none" clip-path="url(#clipPath9)" font-family="sans-serif" font-size="14" xml:space="preserve">Currency:</text><text x="35" y="79.219" stroke="none" clip-path="url(#clipPath9)" font-family="sans-serif" font-size="14" xml:space="preserve">USD</text></g><g fill="#FFF" fill-opacity="0" stroke="#FFF" stroke-opacity="0" transform="translate(620,240)"><circle cx="49.75" cy="49.75" r="49.25" stroke="none" clip-path="url(#clipPath9)"/></g><g transform="translate(620,240)"><circle cx="49.75" cy="49.75" r="49.25" fill="none" clip-path="url(#clipPath9)"/><text x="19" y="36.445" stroke="none" clip-path="url(#clipPath9)" font-family="sans-serif" font-size="14" xml:space="preserve">Account:</text><path fill="none" d="M1.653 42.4453 L98.847 42.4453" clip-path="url(#clipPath9)"/><text x="17" y="57.555" stroke="none" clip-path="url(#clipPath9)" font-family="sans-serif" font-size="14" xml:space="preserve">rf1BiGe...</text></g><g stroke-dasharray="8 5" stroke-linecap="butt" stroke-miterlimit="5"><path fill="none" d="M40.5 10.5 L10.5 10.5" clip-path="url(#clipPath10)" transform="translate(870,70)"/></g><g><path fill="none" d="M50.5 20.5 L10.5 20.5" clip-path="url(#clipPath11)" transform="translate(290,90)"/></g><g stroke-dasharray="8 5" stroke-linecap="butt" stroke-miterlimit="5"><path fill="none" d="M50.5 10.5 L10.5 10.5" clip-path="url(#clipPath12)" transform="translate(150,100)"/></g><g><path fill="none" d="M50.5 20.5 L10.5 20.5" clip-path="url(#clipPath11)" transform="translate(570,440)"/></g><g><path fill="none" d="M50.5 20.5 L10.5 20.5" clip-path="url(#clipPath11)" transform="translate(430,440)"/></g><g stroke-dasharray="8 5" stroke-linecap="butt" stroke-miterlimit="5"><path fill="none" d="M50.5 10.5 L10.5 10.5" clip-path="url(#clipPath12)" transform="translate(850,450)"/></g><g><path fill="none" d="M50.5 20.5 L10.5 20.5" clip-path="url(#clipPath11)" transform="translate(710,440)"/></g><g><path fill="none" d="M50.5 20.5 L10.5 20.5" clip-path="url(#clipPath11)" transform="translate(290,440)"/></g><g stroke-dasharray="8 5" stroke-linecap="butt" stroke-miterlimit="5"><path fill="none" d="M50.5 10.5 L10.5 10.5" clip-path="url(#clipPath12)" transform="translate(150,450)"/></g><g stroke-dasharray="8 5" stroke-linecap="butt" stroke-miterlimit="5"><path fill="none" d="M50.5 10.5 L10.5 10.5" clip-path="url(#clipPath12)" transform="translate(150,280)"/></g><g><path fill="none" d="M50.5 20.5 L10.5 20.5" clip-path="url(#clipPath11)" transform="translate(290,270)"/></g><g stroke-dasharray="8 5" stroke-linecap="butt" stroke-miterlimit="5"><path fill="none" d="M50.5 10.5 L10.5 10.5" clip-path="url(#clipPath12)" transform="translate(710,280)"/></g><g><path fill="none" d="M50.5 20.5 L10.5 20.5" clip-path="url(#clipPath11)" transform="translate(430,270)"/></g><g><path fill="none" d="M50.5 20.5 L10.5 20.5" clip-path="url(#clipPath11)" transform="translate(570,270)"/></g></g></svg>