<svg xmlns="http://www.w3.org/2000/svg" xmlns:xlink="http://www.w3.org/1999/xlink" width="710" height="250" fill="#000" fill-opacity="1" stroke="#000" stroke-dasharray="none" stroke-dashoffset="0" stroke-linecap="square" stroke-linejoin="miter" stroke-miterlimit="10" stroke-opacity="1" stroke-width="1" color-interpolation="auto" color-rendering="auto" font-family="'Dialog'" font-size="12" font-style="normal" font-weight="normal" image-rendering="auto" shape-rendering="auto" text-rendering="auto" viewBox="10 10 710 250"><g><defs id="defs1"><clipPath id="clipPath1" clipPathUnits="userSpaceOnUse"><path d="M0 0 L2147483647 0 L2147483647 2147483647 L0 2147483647 L0 0 Z"/></clipPath><clipPath id="clipPath2" clipPathUnits="userSpaceOnUse"><path d="M0 0 L0 30 L160 30 L160 0 Z"/></clipPath><clipPath id="clipPath3" clipPathUnits="userSpaceOnUse"><path d="M0 0 L0 50 L600 50 L600 0 Z"/></clipPath><clipPath id="clipPath4" clipPathUnits="userSpaceOnUse"><path d="M0 0 L0 40 L140 40 L140 0 Z"/></clipPath><clipPath id="clipPath5" clipPathUnits="userSpaceOnUse"><path d="M0 0 L0 30 L150 30 L150 0 Z"/></clipPath><clipPath id="clipPath6" clipPathUnits="userSpaceOnUse"><path d="M0 0 L0 50 L170 50 L170 0 Z"/></clipPath><clipPath id="clipPath7" clipPathUnits="userSpaceOnUse"><path d="M0 0 L0 30 L30 30 L30 0 Z"/></clipPath><clipPath id="clipPath8" clipPathUnits="userSpaceOnUse"><path d="M0 0 L0 50 L110 50 L110 0 Z"/></clipPath><clipPath id="clipPath9" clipPathUnits="userSpaceOnUse"><path d="M0 0 L0 30 L50 30 L50 0 Z"/></clipPath><clipPath id="clipPath10" clipPathUnits="userSpaceOnUse"><path d="M0 0 L0 60 L100 60 L100 0 Z"/></clipPath><clipPath id="clipPath11" clipPathUnits="userSpaceOnUse"><path d="M0 0 L0 50 L80 50 L80 0 Z"/></clipPath><clipPath id="clipPath12" clipPathUnits="userSpaceOnUse"><path d="M0 0 L0 30 L40 30 L40 0 Z"/></clipPath><clipPath id="clipPath13" clipPathUnits="userSpaceOnUse"><path d="M0 0 L0 50 L290 50 L290 0 Z"/></clipPath><clipPath id="clipPath14" clipPathUnits="userSpaceOnUse"><path d="M0 0 L0 50 L50 50 L50 0 Z"/></clipPath><clipPath id="clipPath15" clipPathUnits="userSpaceOnUse"><path d="M0 0 L0 70 L40 70 L40 0 Z"/></clipPath><clipPath id="clipPath16" clipPathUnits="userSpaceOnUse"><path d="M0 0 L0 90 L500 90 L500 0 Z"/></clipPath><clipPath id="clipPath17" clipPathUnits="userSpaceOnUse"><path d="M0 0 L0 80 L50 80 L50 0 Z"/></clipPath><clipPath id="clipPath18" clipPathUnits="userSpaceOnUse"><path d="M0 0 L0 60 L80 60 L80 0 Z"/></clipPath><clipPath id="clipPath19" clipPathUnits="userSpaceOnUse"><path d="M0 0 L0 60 L30 60 L30 0 Z"/></clipPath></defs><g font-family="sans-serif" font-size="14"><text x="5" y="18.109" stroke="none" clip-path="url(#clipPath2)" transform="translate(40,40)" xml:space="preserve">Memo (object) field</text></g><g fill="#FFF" fill-opacity="0" stroke="#FFF" stroke-opacity="0" transform="translate(40,70)"><rect width="598.5" height="48.5" x=".5" y=".5" stroke="none" clip-path="url(#clipPath3)"/></g><g transform="translate(40,70)"><rect width="598.5" height="48.5" x=".5" y=".5" fill="none" clip-path="url(#clipPath3)"/></g><g font-family="sans-serif" font-size="14"><text x="5" y="18.109" stroke="none" clip-path="url(#clipPath4)" transform="translate(420,120)" xml:space="preserve">Length prefixes</text></g><g font-family="sans-serif" font-size="14"><text x="5" y="18.109" stroke="none" clip-path="url(#clipPath5)" transform="translate(370,30)" xml:space="preserve">MemoData Field ID</text></g><g font-family="sans-serif" font-size="14"><text x="5" y="18.109" stroke="none" clip-path="url(#clipPath6)" transform="translate(260,190)" xml:space="preserve">Object contents in</text><text x="5" y="34.219" stroke="none" clip-path="url(#clipPath6)" transform="translate(260,190)" xml:space="preserve">canonical order</text></g><g fill="#FFF" fill-opacity="0" stroke="#FFF" stroke-opacity="0" transform="translate(390,80)"><rect width="28.5" height="28.5" x=".5" y=".5" stroke="none" clip-path="url(#clipPath7)"/></g><g transform="translate(390,80)"><rect width="28.5" height="28.5" x=".5" y=".5" fill="none" clip-path="url(#clipPath7)"/></g><g fill="#FFF" fill-opacity="0" stroke="#FFF" stroke-opacity="0" transform="translate(420,80)"><rect width="148.5" height="28.5" x=".5" y=".5" stroke="none" clip-path="url(#clipPath5)"/></g><g transform="translate(420,80)"><rect width="148.5" height="28.5" x=".5" y=".5" fill="none" clip-path="url(#clipPath5)"/><text x="4" y="18.109" stroke="none" clip-path="url(#clipPath5)" font-family="sans-serif" font-size="14" xml:space="preserve">MemoData contents</text></g><g font-family="sans-serif" font-size="14"><text x="5" y="18.109" stroke="none" clip-path="url(#clipPath8)" transform="translate(150,140)" xml:space="preserve">MemoType</text><text x="5" y="34.219" stroke="none" clip-path="url(#clipPath8)" transform="translate(150,140)" xml:space="preserve">Field ID</text></g><g fill="#FFF" fill-opacity="0" stroke="#FFF" stroke-opacity="0" transform="translate(150,80)"><rect width="28.5" height="28.5" x=".5" y=".5" stroke="none" clip-path="url(#clipPath7)"/></g><g transform="translate(150,80)"><rect width="28.5" height="28.5" x=".5" y=".5" fill="none" clip-path="url(#clipPath7)"/></g><g fill="#FFF" fill-opacity="0" stroke="#FFF" stroke-opacity="0" transform="translate(340,80)"><rect width="48.5" height="28.5" x=".5" y=".5" stroke="none" clip-path="url(#clipPath9)"/></g><g transform="translate(340,80)"><rect width="48.5" height="28.5" x=".5" y=".5" fill="none" clip-path="url(#clipPath9)"/><text x="7" y="18.109" stroke="none" clip-path="url(#clipPath9)" font-family="sans-serif" font-size="14" xml:space="preserve">0x7d</text></g><g fill="#FFF" fill-opacity="0" stroke="#FFF" stroke-opacity="0" transform="translate(180,80)"><rect width="148.5" height="28.5" x=".5" y=".5" stroke="none" clip-path="url(#clipPath5)"/></g><g transform="translate(180,80)"><rect width="148.5" height="28.5" x=".5" y=".5" fill="none" clip-path="url(#clipPath5)"/><text x="3" y="18.109" stroke="none" clip-path="url(#clipPath5)" font-family="sans-serif" font-size="14" xml:space="preserve">MemoType contents</text></g><g font-family="sans-serif" font-size="14"><text x="5" y="18.109" stroke="none" clip-path="url(#clipPath10)" transform="translate(600,140)" xml:space="preserve">&quot;Object end&quot;</text><text x="5" y="34.219" stroke="none" clip-path="url(#clipPath10)" transform="translate(600,140)" xml:space="preserve">Field ID;</text><text x="5" y="50.328" stroke="none" clip-path="url(#clipPath10)" transform="translate(600,140)" xml:space="preserve">no contents</text></g><g fill="#FFF" fill-opacity="0" stroke="#FFF" stroke-opacity="0" transform="translate(580,80)"><rect width="48.5" height="28.5" x=".5" y=".5" stroke="none" clip-path="url(#clipPath9)"/></g><g transform="translate(580,80)"><rect width="48.5" height="28.5" x=".5" y=".5" fill="none" clip-path="url(#clipPath9)"/><text x="7" y="18.109" stroke="none" clip-path="url(#clipPath9)" font-family="sans-serif" font-size="14" xml:space="preserve">0xe1</text></g><g fill="#FFF" fill-opacity="0" stroke="#FFF" stroke-opacity="0" transform="translate(100,80)"><rect width="48.5" height="28.5" x=".5" y=".5" stroke="none" clip-path="url(#clipPath9)"/></g><g transform="translate(100,80)"><rect width="48.5" height="28.5" x=".5" y=".5" fill="none" clip-path="url(#clipPath9)"/><text x="8" y="18.109" stroke="none" clip-path="url(#clipPath9)" font-family="sans-serif" font-size="14" xml:space="preserve">0x7c</text></g><g font-family="sans-serif" font-size="14"><text x="5" y="18.109" stroke="none" clip-path="url(#clipPath11)" transform="translate(30,140)" xml:space="preserve">Memo</text><text x="5" y="34.219" stroke="none" clip-path="url(#clipPath11)" transform="translate(30,140)" xml:space="preserve">Field ID</text></g><g fill="#FFF" fill-opacity="0" stroke="#FFF" stroke-opacity="0" transform="translate(50,80)"><rect width="38.5" height="28.5" x=".5" y=".5" stroke="none" clip-path="url(#clipPath12)"/></g><g transform="translate(50,80)"><rect width="38.5" height="28.5" x=".5" y=".5" fill="none" clip-path="url(#clipPath12)"/><text x="2" y="18.109" stroke="none" clip-path="url(#clipPath12)" font-family="sans-serif" font-size="14" xml:space="preserve">0xea</text></g><g><path fill="none" d="M10.5 11.5 L10.5 30.5" clip-path="url(#clipPath13)" transform="translate(150,100)"/><path fill="none" d="M10.5 30.5 L270.5 30.5" clip-path="url(#clipPath13)" transform="translate(150,100)"/><path fill="#fff" stroke="none" d="M4 22.2583 L10.5 11 L17 22.2583 Z" clip-path="url(#clipPath13)" transform="translate(150,100)"/><path fill="none" d="M4 22.2583 L10.5 11 L17 22.2583 Z" clip-path="url(#clipPath13)" transform="translate(150,100)"/></g><g><path fill="none" d="M10.5 11.5 L10.5 30.5" clip-path="url(#clipPath14)" transform="translate(390,100)"/><path fill="none" d="M10.5 30.5 L30.5 30.5" clip-path="url(#clipPath14)" transform="translate(390,100)"/><path fill="#fff" stroke="none" d="M4 22.2583 L10.5 11 L17 22.2583 Z" clip-path="url(#clipPath14)" transform="translate(390,100)"/><path fill="none" d="M4 22.2583 L10.5 11 L17 22.2583 Z" clip-path="url(#clipPath14)" transform="translate(390,100)"/></g><g><path fill="none" d="M10.5 49.5 L10.5 10.5" clip-path="url(#clipPath15)" transform="translate(350,30)"/><path fill="none" d="M10.5 10.5 L20.5 10.5" clip-path="url(#clipPath15)" transform="translate(350,30)"/><path fill="#fff" stroke="none" d="M17 38.7417 L10.5 50 L4 38.7417 Z" clip-path="url(#clipPath15)" transform="translate(350,30)"/><path fill="none" d="M17 38.7417 L10.5 50 L4 38.7417 Z" clip-path="url(#clipPath15)" transform="translate(350,30)"/></g><g stroke-dasharray="8 5" stroke-linecap="butt" stroke-miterlimit="5"><path fill="none" d="M10.5 10.5 L10.5 70.5" clip-path="url(#clipPath16)" transform="translate(90,120)"/><path fill="none" d="M10.5 70.5 L480.5 70.5" clip-path="url(#clipPath16)" transform="translate(90,120)"/><path fill="none" d="M480.5 70.5 L480.5 10.5" clip-path="url(#clipPath16)" transform="translate(90,120)"/></g><g><path fill="none" d="M10.5 11.5 L10.5 60.5" clip-path="url(#clipPath17)" transform="translate(120,100)"/><path fill="none" d="M10.5 60.5 L30.5 60.5" clip-path="url(#clipPath17)" transform="translate(120,100)"/><path fill="#fff" stroke="none" d="M4 22.2583 L10.5 11 L17 22.2583 Z" clip-path="url(#clipPath17)" transform="translate(120,100)"/><path fill="none" d="M4 22.2583 L10.5 11 L17 22.2583 Z" clip-path="url(#clipPath17)" transform="translate(120,100)"/></g><g><path fill="none" d="M10.5 11.5 L10.5 30.5" clip-path="url(#clipPath18)" transform="translate(590,100)"/><path fill="none" d="M10.5 30.5 L60.5 30.5" clip-path="url(#clipPath18)" transform="translate(590,100)"/><path fill="none" d="M60.5 30.5 L60.5 40.5" clip-path="url(#clipPath18)" transform="translate(590,100)"/><path fill="#fff" stroke="none" d="M4 22.2583 L10.5 11 L17 22.2583 Z" clip-path="url(#clipPath18)" transform="translate(590,100)"/><path fill="none" d="M4 22.2583 L10.5 11 L17 22.2583 Z" clip-path="url(#clipPath18)" transform="translate(590,100)"/></g><g><path fill="none" d="M10.5 11.5 L10.5 40.5" clip-path="url(#clipPath19)" transform="translate(60,100)"/><path fill="#fff" stroke="none" d="M4 22.2583 L10.5 11 L17 22.2583 Z" clip-path="url(#clipPath19)" transform="translate(60,100)"/><path fill="none" d="M4 22.2583 L10.5 11 L17 22.2583 Z" clip-path="url(#clipPath19)" transform="translate(60,100)"/></g></g></svg>