<svg xmlns="http://www.w3.org/2000/svg" xmlns:xlink="http://www.w3.org/1999/xlink" width="750" height="350" fill="#000" fill-opacity="1" stroke="#000" stroke-dasharray="none" stroke-dashoffset="0" stroke-linecap="square" stroke-linejoin="miter" stroke-miterlimit="10" stroke-opacity="1" stroke-width="1" color-interpolation="auto" color-rendering="auto" font-family="'Dialog'" font-size="12" font-style="normal" font-weight="normal" image-rendering="auto" shape-rendering="auto" text-rendering="auto" viewBox="10 0 750 350"><g><defs id="defs1"><clipPath id="clipPath1" clipPathUnits="userSpaceOnUse"><path d="M0 0 L2147483647 0 L2147483647 2147483647 L0 2147483647 L0 0 Z"/></clipPath><clipPath id="clipPath2" clipPathUnits="userSpaceOnUse"><path d="M0 0 L0 50 L650 50 L650 0 Z"/></clipPath><clipPath id="clipPath3" clipPathUnits="userSpaceOnUse"><path d="M0 0 L0 30 L100 30 L100 0 Z"/></clipPath><clipPath id="clipPath4" clipPathUnits="userSpaceOnUse"><path d="M0 0 L0 30 L180 30 L180 0 Z"/></clipPath><clipPath id="clipPath5" clipPathUnits="userSpaceOnUse"><path d="M0 0 L0 30 L130 30 L130 0 Z"/></clipPath><clipPath id="clipPath6" clipPathUnits="userSpaceOnUse"><path d="M0 0 L0 30 L260 30 L260 0 Z"/></clipPath><clipPath id="clipPath7" clipPathUnits="userSpaceOnUse"><path d="M0 0 L0 30 L40 30 L40 0 Z"/></clipPath><clipPath id="clipPath8" clipPathUnits="userSpaceOnUse"><path d="M0 0 L0 30 L160 30 L160 0 Z"/></clipPath><clipPath id="clipPath9" clipPathUnits="userSpaceOnUse"><path d="M0 0 L0 30 L150 30 L150 0 Z"/></clipPath><clipPath id="clipPath10" clipPathUnits="userSpaceOnUse"><path d="M0 0 L0 60 L60 60 L60 0 Z"/></clipPath><clipPath id="clipPath11" clipPathUnits="userSpaceOnUse"><path d="M0 0 L0 70 L70 70 L70 0 Z"/></clipPath><clipPath id="clipPath12" clipPathUnits="userSpaceOnUse"><path d="M0 0 L0 100 L60 100 L60 0 Z"/></clipPath><clipPath id="clipPath13" clipPathUnits="userSpaceOnUse"><path d="M0 0 L0 50 L390 50 L390 0 Z"/></clipPath><clipPath id="clipPath14" clipPathUnits="userSpaceOnUse"><path d="M0 0 L0 130 L520 130 L520 0 Z"/></clipPath><clipPath id="clipPath15" clipPathUnits="userSpaceOnUse"><path d="M0 0 L0 130 L40 130 L40 0 Z"/></clipPath></defs><g fill="#FFF" fill-opacity="0" stroke="#FFF" stroke-opacity="0" transform="translate(40,200)"><rect width="648.5" height="48.5" x=".5" y=".5" stroke="none" clip-path="url(#clipPath2)"/></g><g transform="translate(40,200)"><rect width="648.5" height="48.5" x=".5" y=".5" fill="none" clip-path="url(#clipPath2)"/></g><g font-family="sans-serif" font-size="14"><text x="5" y="18.109" stroke="none" clip-path="url(#clipPath3)" transform="translate(50,170)" xml:space="preserve">Path</text></g><g font-family="sans-serif" font-size="14"><text x="5" y="18.109" stroke="none" clip-path="url(#clipPath3)" transform="translate(40,30)" xml:space="preserve">PathSet</text></g><g fill="#FFF" fill-opacity="0" stroke="#FFF" stroke-opacity="0" transform="translate(40,60)"><rect width="648.5" height="48.5" x=".5" y=".5" stroke="none" clip-path="url(#clipPath2)"/></g><g transform="translate(40,60)"><rect width="648.5" height="48.5" x=".5" y=".5" fill="none" clip-path="url(#clipPath2)"/></g><g font-family="sans-serif" font-size="14"><text x="5" y="18.109" stroke="none" clip-path="url(#clipPath3)" transform="translate(640,20)" xml:space="preserve">&quot;End&quot; byte</text></g><g font-family="sans-serif" font-size="14"><text x="5" y="18.109" stroke="none" clip-path="url(#clipPath4)" transform="translate(460,20)" xml:space="preserve">&quot;Continue&quot; byte</text></g><g font-family="sans-serif" font-size="14"><text x="5" y="18.109" stroke="none" clip-path="url(#clipPath5)" transform="translate(490,300)" xml:space="preserve">More path steps</text></g><g font-family="sans-serif" font-size="14"><text x="5" y="18.109" stroke="none" clip-path="url(#clipPath4)" transform="translate(490,120)" xml:space="preserve">More paths</text></g><g font-family="sans-serif" font-size="14"><text x="5" y="18.109" stroke="none" clip-path="url(#clipPath6)" transform="translate(80,290)" xml:space="preserve">Path step</text></g><g font-family="sans-serif" font-size="14"><text x="5" y="18.109" stroke="none" clip-path="url(#clipPath7)" transform="translate(640,210)" xml:space="preserve">...</text></g><g fill="#FFF" fill-opacity="0" stroke="#FFF" stroke-opacity="0" transform="translate(460,210)"><rect width="158.5" height="28.5" x=".5" y=".5" stroke="none" clip-path="url(#clipPath8)"/></g><g transform="translate(460,210)"><rect width="158.5" height="28.5" x=".5" y=".5" fill="none" clip-path="url(#clipPath8)"/><text x="15" y="18.109" stroke="none" clip-path="url(#clipPath8)" font-family="sans-serif" font-size="14" xml:space="preserve">Account (160 bits)</text></g><g fill="#FFF" fill-opacity="0" stroke="#FFF" stroke-opacity="0" transform="translate(420,210)"><rect width="38.5" height="28.5" x=".5" y=".5" stroke="none" clip-path="url(#clipPath7)"/></g><g transform="translate(420,210)"><rect width="38.5" height="28.5" x=".5" y=".5" fill="none" clip-path="url(#clipPath7)"/><text x="2" y="18.109" stroke="none" clip-path="url(#clipPath7)" font-family="sans-serif" font-size="14" xml:space="preserve">0x01</text></g><g fill="#FFF" fill-opacity="0" stroke="#FFF" stroke-opacity="0" transform="translate(250,210)"><rect width="158.5" height="28.5" x=".5" y=".5" stroke="none" clip-path="url(#clipPath8)"/></g><g transform="translate(250,210)"><rect width="158.5" height="28.5" x=".5" y=".5" fill="none" clip-path="url(#clipPath8)"/><text x="22" y="18.109" stroke="none" clip-path="url(#clipPath8)" font-family="sans-serif" font-size="14" xml:space="preserve">Issuer (160 bits)</text></g><g fill="#FFF" fill-opacity="0" stroke="#FFF" stroke-opacity="0" transform="translate(90,210)"><rect width="158.5" height="28.5" x=".5" y=".5" stroke="none" clip-path="url(#clipPath8)"/></g><g transform="translate(90,210)"><rect width="158.5" height="28.5" x=".5" y=".5" fill="none" clip-path="url(#clipPath8)"/><text x="12" y="18.109" stroke="none" clip-path="url(#clipPath8)" font-family="sans-serif" font-size="14" xml:space="preserve">Currency (160 bits)</text></g><g fill="#FFF" fill-opacity="0" stroke="#FFF" stroke-opacity="0" transform="translate(640,70)"><rect width="38.5" height="28.5" x=".5" y=".5" stroke="none" clip-path="url(#clipPath7)"/></g><g transform="translate(640,70)"><rect width="38.5" height="28.5" x=".5" y=".5" fill="none" clip-path="url(#clipPath7)"/><text x="2" y="18.109" stroke="none" clip-path="url(#clipPath7)" font-family="sans-serif" font-size="14" xml:space="preserve">0x00</text></g><g fill="#FFF" fill-opacity="0" stroke="#FFF" stroke-opacity="0" transform="translate(490,70)"><rect width="148.5" height="28.5" x=".5" y=".5" stroke="none" clip-path="url(#clipPath9)"/></g><g transform="translate(490,70)"><rect width="148.5" height="28.5" x=".5" y=".5" fill="none" clip-path="url(#clipPath9)"/><text x="42" y="18.109" stroke="none" clip-path="url(#clipPath9)" font-family="sans-serif" font-size="14" xml:space="preserve">Last path</text></g><g font-family="sans-serif" font-size="14"><text x="5" y="18.109" stroke="none" clip-path="url(#clipPath7)" transform="translate(450,70)" xml:space="preserve">...</text></g><g fill="#FFF" fill-opacity="0" stroke="#FFF" stroke-opacity="0" transform="translate(400,70)"><rect width="38.5" height="28.5" x=".5" y=".5" stroke="none" clip-path="url(#clipPath7)"/></g><g transform="translate(400,70)"><rect width="38.5" height="28.5" x=".5" y=".5" fill="none" clip-path="url(#clipPath7)"/><text x="6" y="18.109" stroke="none" clip-path="url(#clipPath7)" font-family="sans-serif" font-size="14" xml:space="preserve">0xff</text></g><g fill="#FFF" fill-opacity="0" stroke="#FFF" stroke-opacity="0" transform="translate(250,70)"><rect width="148.5" height="28.5" x=".5" y=".5" stroke="none" clip-path="url(#clipPath9)"/></g><g transform="translate(250,70)"><rect width="148.5" height="28.5" x=".5" y=".5" fill="none" clip-path="url(#clipPath9)"/><text x="31" y="18.109" stroke="none" clip-path="url(#clipPath9)" font-family="sans-serif" font-size="14" xml:space="preserve">Second path</text></g><g font-family="sans-serif" font-size="14"><text x="5" y="18.109" stroke="none" clip-path="url(#clipPath6)" transform="translate(470,260)" xml:space="preserve">Path step&apos;s type byte</text></g><g fill="#FFF" fill-opacity="0" stroke="#FFF" stroke-opacity="0" transform="translate(50,70)"><rect width="148.5" height="28.5" x=".5" y=".5" stroke="none" clip-path="url(#clipPath9)"/></g><g transform="translate(50,70)"><rect width="148.5" height="28.5" x=".5" y=".5" fill="none" clip-path="url(#clipPath9)"/><text x="41" y="18.109" stroke="none" clip-path="url(#clipPath9)" font-family="sans-serif" font-size="14" xml:space="preserve">First path</text></g><g fill="#FFF" fill-opacity="0" stroke="#FFF" stroke-opacity="0" transform="translate(200,70)"><rect width="38.5" height="28.5" x=".5" y=".5" stroke="none" clip-path="url(#clipPath7)"/></g><g transform="translate(200,70)"><rect width="38.5" height="28.5" x=".5" y=".5" fill="none" clip-path="url(#clipPath7)"/><text x="6" y="18.109" stroke="none" clip-path="url(#clipPath7)" font-family="sans-serif" font-size="14" xml:space="preserve">0xff</text></g><g fill="#FFF" fill-opacity="0" stroke="#FFF" stroke-opacity="0" transform="translate(50,210)"><rect width="38.5" height="28.5" x=".5" y=".5" stroke="none" clip-path="url(#clipPath7)"/></g><g transform="translate(50,210)"><rect width="38.5" height="28.5" x=".5" y=".5" fill="none" clip-path="url(#clipPath7)"/><text x="2" y="18.109" stroke="none" clip-path="url(#clipPath7)" font-family="sans-serif" font-size="14" xml:space="preserve">0x30</text></g><g><path fill="none" d="M11.5 40.5 L40.5 40.5" clip-path="url(#clipPath10)" transform="translate(670,40)"/><path fill="none" d="M40.5 40.5 L40.5 10.5" clip-path="url(#clipPath10)" transform="translate(670,40)"/><path fill="#fff" stroke="none" d="M22.2583 47 L11 40.5 L22.2583 34 Z" clip-path="url(#clipPath10)" transform="translate(670,40)"/><path fill="none" d="M22.2583 47 L11 40.5 L22.2583 34 Z" clip-path="url(#clipPath10)" transform="translate(670,40)"/></g><g><path fill="none" d="M10.5 49.5 L10.5 10.5" clip-path="url(#clipPath11)" transform="translate(410,20)"/><path fill="none" d="M10.5 10.5 L50.5 10.5" clip-path="url(#clipPath11)" transform="translate(410,20)"/><path fill="#fff" stroke="none" d="M17 38.7417 L10.5 50 L4 38.7417 Z" clip-path="url(#clipPath11)" transform="translate(410,20)"/><path fill="none" d="M17 38.7417 L10.5 50 L4 38.7417 Z" clip-path="url(#clipPath11)" transform="translate(410,20)"/></g><g><path fill="none" d="M40.5 11.5 L40.5 80.5" clip-path="url(#clipPath12)" transform="translate(610,230)"/><path fill="none" d="M40.5 80.5 L10.5 80.5" clip-path="url(#clipPath12)" transform="translate(610,230)"/><path fill="#fff" stroke="none" d="M34 22.2583 L40.5 11 L47 22.2583 Z" clip-path="url(#clipPath12)" transform="translate(610,230)"/><path fill="none" d="M34 22.2583 L40.5 11 L47 22.2583 Z" clip-path="url(#clipPath12)" transform="translate(610,230)"/></g><g><path fill="none" d="M10.5 11.5 L10.5 40.5" clip-path="url(#clipPath10)" transform="translate(450,90)"/><path fill="none" d="M10.5 40.5 L40.5 40.5" clip-path="url(#clipPath10)" transform="translate(450,90)"/><path fill="#fff" stroke="none" d="M4 22.2583 L10.5 11 L17 22.2583 Z" clip-path="url(#clipPath10)" transform="translate(450,90)"/><path fill="none" d="M4 22.2583 L10.5 11 L17 22.2583 Z" clip-path="url(#clipPath10)" transform="translate(450,90)"/></g><g stroke-dasharray="8 5" stroke-linecap="butt" stroke-miterlimit="5"><path fill="none" d="M10.5 10.5 L10.5 30.5" clip-path="url(#clipPath13)" transform="translate(40,250)"/><path fill="none" d="M10.5 30.5 L370.5 30.5" clip-path="url(#clipPath13)" transform="translate(40,250)"/><path fill="none" d="M370.5 30.5 L370.5 10.5" clip-path="url(#clipPath13)" transform="translate(40,250)"/></g><g stroke-dasharray="1 2" stroke-linecap="butt" stroke-miterlimit="5"><path fill="none" d="M500.5 110.5 L10.5 10.5" clip-path="url(#clipPath14)" transform="translate(190,90)"/></g><g stroke-dasharray="1 2" stroke-linecap="butt" stroke-miterlimit="5"><path fill="none" d="M10.5 110.5 L20.5 10.5" clip-path="url(#clipPath15)" transform="translate(30,90)"/></g><g><path fill="none" d="M10.5 11.5 L10.5 40.5" clip-path="url(#clipPath10)" transform="translate(430,230)"/><path fill="none" d="M10.5 40.5 L40.5 40.5" clip-path="url(#clipPath10)" transform="translate(430,230)"/><path fill="#fff" stroke="none" d="M4 22.2583 L10.5 11 L17 22.2583 Z" clip-path="url(#clipPath10)" transform="translate(430,230)"/><path fill="none" d="M4 22.2583 L10.5 11 L17 22.2583 Z" clip-path="url(#clipPath10)" transform="translate(430,230)"/></g></g></svg>