<svg xmlns="http://www.w3.org/2000/svg" xmlns:xlink="http://www.w3.org/1999/xlink" width="900" height="620" fill="#000" fill-opacity="1" stroke="#000" stroke-dasharray="none" stroke-dashoffset="0" stroke-linecap="square" stroke-linejoin="miter" stroke-miterlimit="10" stroke-opacity="1" stroke-width="1" color-interpolation="auto" color-rendering="auto" font-family="'Dialog'" font-size="12" font-style="normal" font-weight="normal" image-rendering="auto" shape-rendering="auto" text-rendering="auto" viewBox="0 0 900 620"><g><defs id="defs1"><clipPath id="clipPath1" clipPathUnits="userSpaceOnUse"><path d="M0 0 L2147483647 0 L2147483647 2147483647 L0 2147483647 L0 0 Z"/></clipPath><clipPath id="clipPath2" clipPathUnits="userSpaceOnUse"><path d="M0 0 L0 50 L620 50 L620 0 Z"/></clipPath><clipPath id="clipPath3" clipPathUnits="userSpaceOnUse"><path d="M0 0 L0 30 L240 30 L240 0 Z"/></clipPath><clipPath id="clipPath4" clipPathUnits="userSpaceOnUse"><path d="M0 0 L0 50 L850 50 L850 0 Z"/></clipPath><clipPath id="clipPath5" clipPathUnits="userSpaceOnUse"><path d="M0 0 L0 30 L160 30 L160 0 Z"/></clipPath><clipPath id="clipPath6" clipPathUnits="userSpaceOnUse"><path d="M0 0 L0 30 L540 30 L540 0 Z"/></clipPath><clipPath id="clipPath7" clipPathUnits="userSpaceOnUse"><path d="M0 0 L0 60 L160 60 L160 0 Z"/></clipPath><clipPath id="clipPath8" clipPathUnits="userSpaceOnUse"><path d="M0 0 L0 30 L260 30 L260 0 Z"/></clipPath><clipPath id="clipPath9" clipPathUnits="userSpaceOnUse"><path d="M0 0 L0 30 L20 30 L20 0 Z"/></clipPath><clipPath id="clipPath10" clipPathUnits="userSpaceOnUse"><path d="M0 0 L0 30 L130 30 L130 0 Z"/></clipPath><clipPath id="clipPath11" clipPathUnits="userSpaceOnUse"><path d="M0 0 L0 30 L150 30 L150 0 Z"/></clipPath><clipPath id="clipPath12" clipPathUnits="userSpaceOnUse"><path d="M0 0 L0 30 L180 30 L180 0 Z"/></clipPath><clipPath id="clipPath13" clipPathUnits="userSpaceOnUse"><path d="M0 0 L0 30 L220 30 L220 0 Z"/></clipPath><clipPath id="clipPath14" clipPathUnits="userSpaceOnUse"><path d="M0 0 L0 40 L300 40 L300 0 Z"/></clipPath><clipPath id="clipPath15" clipPathUnits="userSpaceOnUse"><path d="M0 0 L0 30 L200 30 L200 0 Z"/></clipPath><clipPath id="clipPath16" clipPathUnits="userSpaceOnUse"><path d="M0 0 L0 30 L190 30 L190 0 Z"/></clipPath><clipPath id="clipPath17" clipPathUnits="userSpaceOnUse"><path d="M0 0 L0 90 L50 90 L50 0 Z"/></clipPath><clipPath id="clipPath18" clipPathUnits="userSpaceOnUse"><path d="M0 0 L0 60 L50 60 L50 0 Z"/></clipPath><clipPath id="clipPath19" clipPathUnits="userSpaceOnUse"><path d="M0 0 L0 230 L40 230 L40 0 Z"/></clipPath><clipPath id="clipPath20" clipPathUnits="userSpaceOnUse"><path d="M0 0 L0 230 L460 230 L460 0 Z"/></clipPath><clipPath id="clipPath21" clipPathUnits="userSpaceOnUse"><path d="M0 0 L0 50 L40 50 L40 0 Z"/></clipPath><clipPath id="clipPath22" clipPathUnits="userSpaceOnUse"><path d="M0 0 L0 70 L60 70 L60 0 Z"/></clipPath></defs><g fill="#FFF" fill-opacity="0" stroke="#FFF" stroke-opacity="0" transform="translate(30,500)"><rect width="618.5" height="48.5" x=".5" y=".5" stroke="none" clip-path="url(#clipPath2)"/></g><g transform="translate(30,500)"><rect width="618.5" height="48.5" x=".5" y=".5" fill="none" clip-path="url(#clipPath2)"/></g><g font-family="sans-serif" font-size="14"><text x="5" y="18.109" stroke="none" clip-path="url(#clipPath3)" transform="translate(90,470)" xml:space="preserve">Issued Currency Code Format</text></g><g fill="#FFF" fill-opacity="0" stroke="#FFF" stroke-opacity="0" transform="translate(30,260)"><rect width="848.5" height="48.5" x=".5" y=".5" stroke="none" clip-path="url(#clipPath4)"/></g><g transform="translate(30,260)"><rect width="848.5" height="48.5" x=".5" y=".5" fill="none" clip-path="url(#clipPath4)"/></g><g font-family="sans-serif" font-size="14"><text x="5" y="18.109" stroke="none" clip-path="url(#clipPath3)" transform="translate(30,230)" xml:space="preserve">Issued Currency Amount Format</text></g><g font-family="sans-serif" font-size="14"><text x="5" y="18.109" stroke="none" clip-path="url(#clipPath5)" transform="translate(30,20)" xml:space="preserve">XRP Amount Format</text></g><g fill="#FFF" fill-opacity="0" stroke="#FFF" stroke-opacity="0" transform="translate(30,50)"><rect width="618.5" height="48.5" x=".5" y=".5" stroke="none" clip-path="url(#clipPath2)"/></g><g transform="translate(30,50)"><rect width="618.5" height="48.5" x=".5" y=".5" fill="none" clip-path="url(#clipPath2)"/></g><g fill="#FFF" fill-opacity="0" stroke="#FFF" stroke-opacity="0" transform="translate(100,60)"><rect width="538.5" height="28.5" x=".5" y=".5" stroke="none" clip-path="url(#clipPath6)"/></g><g transform="translate(100,60)"><rect width="538.5" height="28.5" x=".5" y=".5" fill="none" clip-path="url(#clipPath6)"/><text x="191" y="18.109" stroke="none" clip-path="url(#clipPath6)" font-family="sans-serif" font-size="14" xml:space="preserve">integer drops (62 bits)</text></g><g font-family="sans-serif" font-size="14"><text x="5" y="18.109" stroke="none" clip-path="url(#clipPath7)" transform="translate(80,140)" xml:space="preserve">&quot;Not XRP&quot; bit</text><text x="5" y="34.219" stroke="none" clip-path="url(#clipPath7)" transform="translate(80,140)" xml:space="preserve">(0=XRP, 1=not XRP)</text></g><g font-family="sans-serif" font-size="14"><text x="5" y="18.109" stroke="none" clip-path="url(#clipPath8)" transform="translate(100,110)" xml:space="preserve">Sign bit (always 1 for positive)</text></g><g fill="#FFF" fill-opacity="0" stroke="#FFF" stroke-opacity="0" transform="translate(70,60)"><rect width="18.5" height="28.5" x=".5" y=".5" stroke="none" clip-path="url(#clipPath9)"/></g><g transform="translate(70,60)"><rect width="18.5" height="28.5" x=".5" y=".5" fill="none" clip-path="url(#clipPath9)"/><text x="5" y="18.109" stroke="none" clip-path="url(#clipPath9)" font-family="sans-serif" font-size="14" xml:space="preserve">1</text></g><g fill="#FFF" fill-opacity="0" stroke="#FFF" stroke-opacity="0" transform="translate(40,60)"><rect width="18.5" height="28.5" x=".5" y=".5" stroke="none" clip-path="url(#clipPath9)"/></g><g transform="translate(40,60)"><rect width="18.5" height="28.5" x=".5" y=".5" fill="none" clip-path="url(#clipPath9)"/><text x="5" y="18.109" stroke="none" clip-path="url(#clipPath9)" font-family="sans-serif" font-size="14" xml:space="preserve">0</text></g><g font-family="sans-serif" font-size="14"><text x="5" y="18.109" stroke="none" clip-path="url(#clipPath10)" transform="translate(330,550)" xml:space="preserve">3 chars of ASCII</text></g><g fill="#FFF" fill-opacity="0" stroke="#FFF" stroke-opacity="0" transform="translate(300,510)"><rect width="148.5" height="28.5" x=".5" y=".5" stroke="none" clip-path="url(#clipPath11)"/></g><g transform="translate(300,510)"><rect width="148.5" height="28.5" x=".5" y=".5" fill="none" clip-path="url(#clipPath11)"/><text x="12" y="18.109" stroke="none" clip-path="url(#clipPath11)" font-family="sans-serif" font-size="14" xml:space="preserve">ISO code (24 bits)</text></g><g fill="#FFF" fill-opacity="0" stroke="#FFF" stroke-opacity="0" transform="translate(460,510)"><rect width="178.5" height="28.5" x=".5" y=".5" stroke="none" clip-path="url(#clipPath12)"/></g><g transform="translate(460,510)"><rect width="178.5" height="28.5" x=".5" y=".5" fill="none" clip-path="url(#clipPath12)"/><text x="25" y="18.109" stroke="none" clip-path="url(#clipPath12)" font-family="sans-serif" font-size="14" xml:space="preserve">Reserved (40 bits)</text></g><g fill="#FFF" fill-opacity="0" stroke="#FFF" stroke-opacity="0" transform="translate(70,510)"><rect width="218.5" height="28.5" x=".5" y=".5" stroke="none" clip-path="url(#clipPath13)"/></g><g transform="translate(70,510)"><rect width="218.5" height="28.5" x=".5" y=".5" fill="none" clip-path="url(#clipPath13)"/><text x="45" y="18.109" stroke="none" clip-path="url(#clipPath13)" font-family="sans-serif" font-size="14" xml:space="preserve">Reserved (88 bits)</text></g><g font-family="sans-serif" font-size="14"><text x="5" y="18.109" stroke="none" clip-path="url(#clipPath14)" transform="translate(80,560)" xml:space="preserve">Type code (8 bits)</text><text x="5" y="34.219" stroke="none" clip-path="url(#clipPath14)" transform="translate(80,560)" xml:space="preserve">0x00 for ISO 4217/pseudo-ISO currency</text></g><g fill="#FFF" fill-opacity="0" stroke="#FFF" stroke-opacity="0" transform="translate(40,510)"><rect width="18.5" height="28.5" x=".5" y=".5" stroke="none" clip-path="url(#clipPath9)"/></g><g transform="translate(40,510)"><rect width="18.5" height="28.5" x=".5" y=".5" fill="none" clip-path="url(#clipPath9)"/><text x="1" y="18.109" stroke="none" clip-path="url(#clipPath9)" font-family="sans-serif" font-size="14" xml:space="preserve">00</text></g><g fill="#FFF" fill-opacity="0" stroke="#FFF" stroke-opacity="0" transform="translate(670,270)"><rect width="198.5" height="28.5" x=".5" y=".5" stroke="none" clip-path="url(#clipPath15)"/></g><g transform="translate(670,270)"><rect width="198.5" height="28.5" x=".5" y=".5" fill="none" clip-path="url(#clipPath15)"/><text x="5" y="18.109" stroke="none" clip-path="url(#clipPath15)" font-family="sans-serif" font-size="14" xml:space="preserve">issuer AccountID (160 bits)</text></g><g fill="#FFF" fill-opacity="0" stroke="#FFF" stroke-opacity="0" transform="translate(460,270)"><rect width="198.5" height="28.5" x=".5" y=".5" stroke="none" clip-path="url(#clipPath15)"/></g><g transform="translate(460,270)"><rect width="198.5" height="28.5" x=".5" y=".5" fill="none" clip-path="url(#clipPath15)"/><text x="14" y="18.109" stroke="none" clip-path="url(#clipPath15)" font-family="sans-serif" font-size="14" xml:space="preserve">currency code (160 bits)</text></g><g font-family="sans-serif" font-size="14"><text x="5" y="18.109" stroke="none" clip-path="url(#clipPath7)" transform="translate(80,350)" xml:space="preserve">&quot;Not XRP&quot; bit</text><text x="5" y="34.219" stroke="none" clip-path="url(#clipPath7)" transform="translate(80,350)" xml:space="preserve">(0=XRP, 1=not XRP)</text></g><g font-family="sans-serif" font-size="14"><text x="5" y="18.109" stroke="none" clip-path="url(#clipPath8)" transform="translate(100,320)" xml:space="preserve">Sign bit (0=negative, 1=positive)</text></g><g fill="#FFF" fill-opacity="0" stroke="#FFF" stroke-opacity="0" transform="translate(260,270)"><rect width="188.5" height="28.5" x=".5" y=".5" stroke="none" clip-path="url(#clipPath16)"/></g><g transform="translate(260,270)"><rect width="188.5" height="28.5" x=".5" y=".5" fill="none" clip-path="url(#clipPath16)"/><text x="31" y="18.109" stroke="none" clip-path="url(#clipPath16)" font-family="sans-serif" font-size="14" xml:space="preserve">mantissa (54 bits)</text></g><g fill="#FFF" fill-opacity="0" stroke="#FFF" stroke-opacity="0" transform="translate(100,270)"><rect width="148.5" height="28.5" x=".5" y=".5" stroke="none" clip-path="url(#clipPath11)"/></g><g transform="translate(100,270)"><rect width="148.5" height="28.5" x=".5" y=".5" fill="none" clip-path="url(#clipPath11)"/><text x="14" y="18.109" stroke="none" clip-path="url(#clipPath11)" font-family="sans-serif" font-size="14" xml:space="preserve">exponent (8 bits)</text></g><g fill="#FFF" fill-opacity="0" stroke="#FFF" stroke-opacity="0" transform="translate(70,270)"><rect width="18.5" height="28.5" x=".5" y=".5" stroke="none" clip-path="url(#clipPath9)"/></g><g transform="translate(70,270)"><rect width="18.5" height="28.5" x=".5" y=".5" fill="none" clip-path="url(#clipPath9)"/></g><g fill="#FFF" fill-opacity="0" stroke="#FFF" stroke-opacity="0" transform="translate(40,270)"><rect width="18.5" height="28.5" x=".5" y=".5" stroke="none" clip-path="url(#clipPath9)"/></g><g transform="translate(40,270)"><rect width="18.5" height="28.5" x=".5" y=".5" fill="none" clip-path="url(#clipPath9)"/><text x="5" y="18.109" stroke="none" clip-path="url(#clipPath9)" font-family="sans-serif" font-size="14" xml:space="preserve">1</text></g><g><path fill="none" d="M10.5 11.5 L10.5 70.5" clip-path="url(#clipPath17)" transform="translate(40,80)"/><path fill="none" d="M10.5 70.5 L30.5 70.5" clip-path="url(#clipPath17)" transform="translate(40,80)"/><path fill="#fff" stroke="none" d="M4 22.2583 L10.5 11 L17 22.2583 Z" clip-path="url(#clipPath17)" transform="translate(40,80)"/><path fill="none" d="M4 22.2583 L10.5 11 L17 22.2583 Z" clip-path="url(#clipPath17)" transform="translate(40,80)"/></g><g><path fill="none" d="M10.5 11.5 L10.5 40.5" clip-path="url(#clipPath18)" transform="translate(70,80)"/><path fill="none" d="M10.5 40.5 L30.5 40.5" clip-path="url(#clipPath18)" transform="translate(70,80)"/><path fill="#fff" stroke="none" d="M4 22.2583 L10.5 11 L17 22.2583 Z" clip-path="url(#clipPath18)" transform="translate(70,80)"/><path fill="none" d="M4 22.2583 L10.5 11 L17 22.2583 Z" clip-path="url(#clipPath18)" transform="translate(70,80)"/></g><g stroke-dasharray="1 2" stroke-linecap="butt" stroke-miterlimit="5"><path fill="none" d="M10.5 210.5 L20.5 10.5" clip-path="url(#clipPath19)" transform="translate(640,290)"/></g><g stroke-dasharray="1 2" stroke-linecap="butt" stroke-miterlimit="5"><path fill="none" d="M10.5 210.5 L440.5 10.5" clip-path="url(#clipPath20)" transform="translate(20,290)"/></g><g><path fill="none" d="M10.5 11.5 L10.5 30.5" clip-path="url(#clipPath21)" transform="translate(310,530)"/><path fill="none" d="M10.5 30.5 L20.5 30.5" clip-path="url(#clipPath21)" transform="translate(310,530)"/><path fill="#fff" stroke="none" d="M4 22.2583 L10.5 11 L17 22.2583 Z" clip-path="url(#clipPath21)" transform="translate(310,530)"/><path fill="none" d="M4 22.2583 L10.5 11 L17 22.2583 Z" clip-path="url(#clipPath21)" transform="translate(310,530)"/></g><g><path fill="none" d="M10.5 11.5 L10.5 50.5" clip-path="url(#clipPath22)" transform="translate(40,520)"/><path fill="none" d="M10.5 50.5 L40.5 50.5" clip-path="url(#clipPath22)" transform="translate(40,520)"/><path fill="#fff" stroke="none" d="M4 22.2583 L10.5 11 L17 22.2583 Z" clip-path="url(#clipPath22)" transform="translate(40,520)"/><path fill="none" d="M4 22.2583 L10.5 11 L17 22.2583 Z" clip-path="url(#clipPath22)" transform="translate(40,520)"/></g><g><path fill="none" d="M10.5 11.5 L10.5 70.5" clip-path="url(#clipPath17)" transform="translate(40,290)"/><path fill="none" d="M10.5 70.5 L30.5 70.5" clip-path="url(#clipPath17)" transform="translate(40,290)"/><path fill="#fff" stroke="none" d="M4 22.2583 L10.5 11 L17 22.2583 Z" clip-path="url(#clipPath17)" transform="translate(40,290)"/><path fill="none" d="M4 22.2583 L10.5 11 L17 22.2583 Z" clip-path="url(#clipPath17)" transform="translate(40,290)"/></g><g><path fill="none" d="M10.5 11.5 L10.5 40.5" clip-path="url(#clipPath18)" transform="translate(70,290)"/><path fill="none" d="M10.5 40.5 L30.5 40.5" clip-path="url(#clipPath18)" transform="translate(70,290)"/><path fill="#fff" stroke="none" d="M4 22.2583 L10.5 11 L17 22.2583 Z" clip-path="url(#clipPath18)" transform="translate(70,290)"/><path fill="none" d="M4 22.2583 L10.5 11 L17 22.2583 Z" clip-path="url(#clipPath18)" transform="translate(70,290)"/></g></g></svg>