<svg xmlns="http://www.w3.org/2000/svg" xmlns:xlink="http://www.w3.org/1999/xlink" width="700" height="220" fill="#000" fill-opacity="1" stroke="#000" stroke-dasharray="none" stroke-dashoffset="0" stroke-linecap="square" stroke-linejoin="miter" stroke-miterlimit="10" stroke-opacity="1" stroke-width="1" color-interpolation="auto" color-rendering="auto" font-family="'Dialog'" font-size="12" font-style="normal" font-weight="normal" image-rendering="auto" shape-rendering="auto" text-rendering="auto" viewBox="10 20 700 220"><g><defs id="defs1"><clipPath id="clipPath1" clipPathUnits="userSpaceOnUse"><path d="M0 0 L2147483647 0 L2147483647 2147483647 L0 2147483647 L0 0 Z"/></clipPath><clipPath id="clipPath2" clipPathUnits="userSpaceOnUse"><path d="M0 0 L0 30 L210 30 L210 0 Z"/></clipPath><clipPath id="clipPath3" clipPathUnits="userSpaceOnUse"><path d="M0 0 L0 50 L600 50 L600 0 Z"/></clipPath><clipPath id="clipPath4" clipPathUnits="userSpaceOnUse"><path d="M0 0 L0 30 L180 30 L180 0 Z"/></clipPath><clipPath id="clipPath5" clipPathUnits="userSpaceOnUse"><path d="M0 0 L0 30 L50 30 L50 0 Z"/></clipPath><clipPath id="clipPath6" clipPathUnits="userSpaceOnUse"><path d="M0 0 L0 50 L110 50 L110 0 Z"/></clipPath><clipPath id="clipPath7" clipPathUnits="userSpaceOnUse"><path d="M0 0 L0 60 L100 60 L100 0 Z"/></clipPath><clipPath id="clipPath8" clipPathUnits="userSpaceOnUse"><path d="M0 0 L0 30 L40 30 L40 0 Z"/></clipPath><clipPath id="clipPath9" clipPathUnits="userSpaceOnUse"><path d="M0 0 L0 80 L100 80 L100 0 Z"/></clipPath><clipPath id="clipPath10" clipPathUnits="userSpaceOnUse"><path d="M0 0 L0 80 L30 80 L30 0 Z"/></clipPath></defs><g font-family="sans-serif" font-size="14"><text x="5" y="18.109" stroke="none" clip-path="url(#clipPath2)" transform="translate(80,40)" xml:space="preserve">SignerEntries (array) field</text></g><g fill="#FFF" fill-opacity="0" stroke="#FFF" stroke-opacity="0" transform="translate(80,70)"><rect width="598.5" height="48.5" x=".5" y=".5" stroke="none" clip-path="url(#clipPath3)"/></g><g transform="translate(80,70)"><rect width="598.5" height="48.5" x=".5" y=".5" fill="none" clip-path="url(#clipPath3)"/></g><g fill="#FFF" fill-opacity="0" stroke="#FFF" stroke-opacity="0" transform="translate(430,80)"><rect width="178.5" height="28.5" x=".5" y=".5" stroke="none" clip-path="url(#clipPath4)"/></g><g transform="translate(430,80)"><rect width="178.5" height="28.5" x=".5" y=".5" fill="none" clip-path="url(#clipPath4)"/><text x="9" y="18.109" stroke="none" clip-path="url(#clipPath4)" font-family="sans-serif" font-size="14" xml:space="preserve">(SignerEntry Contents)</text></g><g fill="#FFF" fill-opacity="0" stroke="#FFF" stroke-opacity="0" transform="translate(380,80)"><rect width="48.5" height="28.5" x=".5" y=".5" stroke="none" clip-path="url(#clipPath5)"/></g><g transform="translate(380,80)"><rect width="48.5" height="28.5" x=".5" y=".5" fill="none" clip-path="url(#clipPath5)"/><text x="7" y="18.109" stroke="none" clip-path="url(#clipPath5)" font-family="sans-serif" font-size="14" xml:space="preserve">0xeb</text></g><g font-family="sans-serif" font-size="14"><text x="5" y="18.109" stroke="none" clip-path="url(#clipPath6)" transform="translate(250,140)" xml:space="preserve">SignerEntry</text><text x="5" y="34.219" stroke="none" clip-path="url(#clipPath6)" transform="translate(250,140)" xml:space="preserve">Field ID</text></g><g fill="#FFF" fill-opacity="0" stroke="#FFF" stroke-opacity="0" transform="translate(190,80)"><rect width="178.5" height="28.5" x=".5" y=".5" stroke="none" clip-path="url(#clipPath4)"/></g><g transform="translate(190,80)"><rect width="178.5" height="28.5" x=".5" y=".5" fill="none" clip-path="url(#clipPath4)"/><text x="9" y="18.109" stroke="none" clip-path="url(#clipPath4)" font-family="sans-serif" font-size="14" xml:space="preserve">(SignerEntry Contents)</text></g><g font-family="sans-serif" font-size="14"><text x="5" y="18.109" stroke="none" clip-path="url(#clipPath7)" transform="translate(590,160)" xml:space="preserve">Array end</text><text x="5" y="34.219" stroke="none" clip-path="url(#clipPath7)" transform="translate(590,160)" xml:space="preserve">Field ID;</text><text x="5" y="50.328" stroke="none" clip-path="url(#clipPath7)" transform="translate(590,160)" xml:space="preserve">no contents</text></g><g fill="#FFF" fill-opacity="0" stroke="#FFF" stroke-opacity="0" transform="translate(620,80)"><rect width="48.5" height="28.5" x=".5" y=".5" stroke="none" clip-path="url(#clipPath5)"/></g><g transform="translate(620,80)"><rect width="48.5" height="28.5" x=".5" y=".5" fill="none" clip-path="url(#clipPath5)"/><text x="9" y="18.109" stroke="none" clip-path="url(#clipPath5)" font-family="sans-serif" font-size="14" xml:space="preserve">0xf1</text></g><g fill="#FFF" fill-opacity="0" stroke="#FFF" stroke-opacity="0" transform="translate(140,80)"><rect width="48.5" height="28.5" x=".5" y=".5" stroke="none" clip-path="url(#clipPath5)"/></g><g transform="translate(140,80)"><rect width="48.5" height="28.5" x=".5" y=".5" fill="none" clip-path="url(#clipPath5)"/><text x="7" y="18.109" stroke="none" clip-path="url(#clipPath5)" font-family="sans-serif" font-size="14" xml:space="preserve">0xeb</text></g><g font-family="sans-serif" font-size="14"><text x="5" y="18.109" stroke="none" clip-path="url(#clipPath6)" transform="translate(30,160)" xml:space="preserve">SignerEntries</text><text x="5" y="34.219" stroke="none" clip-path="url(#clipPath6)" transform="translate(30,160)" xml:space="preserve">Field ID</text></g><g fill="#FFF" fill-opacity="0" stroke="#FFF" stroke-opacity="0" transform="translate(90,80)"><rect width="38.5" height="28.5" x=".5" y=".5" stroke="none" clip-path="url(#clipPath8)"/></g><g transform="translate(90,80)"><rect width="38.5" height="28.5" x=".5" y=".5" fill="none" clip-path="url(#clipPath8)"/><text x="4" y="18.109" stroke="none" clip-path="url(#clipPath8)" font-family="sans-serif" font-size="14" xml:space="preserve">0xf4</text></g><g><path fill="none" d="M10.5 11.5 L10.5 60.5" clip-path="url(#clipPath9)" transform="translate(160,100)"/><path fill="none" d="M10.5 60.5 L80.5 60.5" clip-path="url(#clipPath9)" transform="translate(160,100)"/><path fill="#fff" stroke="none" d="M4 22.2583 L10.5 11 L17 22.2583 Z" clip-path="url(#clipPath9)" transform="translate(160,100)"/><path fill="none" d="M4 22.2583 L10.5 11 L17 22.2583 Z" clip-path="url(#clipPath9)" transform="translate(160,100)"/></g><g><path fill="none" d="M10.5 11.5 L10.5 60.5" clip-path="url(#clipPath10)" transform="translate(630,100)"/><path fill="#fff" stroke="none" d="M4 22.2583 L10.5 11 L17 22.2583 Z" clip-path="url(#clipPath10)" transform="translate(630,100)"/><path fill="none" d="M4 22.2583 L10.5 11 L17 22.2583 Z" clip-path="url(#clipPath10)" transform="translate(630,100)"/></g><g><path fill="none" d="M10.5 11.5 L10.5 60.5" clip-path="url(#clipPath10)" transform="translate(100,100)"/><path fill="#fff" stroke="none" d="M4 22.2583 L10.5 11 L17 22.2583 Z" clip-path="url(#clipPath10)" transform="translate(100,100)"/><path fill="none" d="M4 22.2583 L10.5 11 L17 22.2583 Z" clip-path="url(#clipPath10)" transform="translate(100,100)"/></g></g></svg>