<svg xmlns="http://www.w3.org/2000/svg" xmlns:xlink="http://www.w3.org/1999/xlink" width="860" height="250" fill="#000" fill-opacity="1" stroke="#000" stroke-dasharray="none" stroke-dashoffset="0" stroke-linecap="square" stroke-linejoin="miter" stroke-miterlimit="10" stroke-opacity="1" stroke-width="1" color-interpolation="auto" color-rendering="auto" font-family="'Dialog'" font-size="12" font-style="normal" font-weight="normal" image-rendering="auto" shape-rendering="auto" text-rendering="auto" viewBox="20 10 860 250"><g><defs id="defs1"><clipPath id="clipPath1" clipPathUnits="userSpaceOnUse"><path d="M0 0 L2147483647 0 L2147483647 2147483647 L0 2147483647 L0 0 Z"/></clipPath><clipPath id="clipPath2" clipPathUnits="userSpaceOnUse"><path d="M0 0 L0 30 L80 30 L80 0 Z"/></clipPath><clipPath id="clipPath3" clipPathUnits="userSpaceOnUse"><path d="M0 0 L0 50 L120 50 L120 0 Z"/></clipPath><clipPath id="clipPath4" clipPathUnits="userSpaceOnUse"><path d="M0 0 L0 60 L120 60 L120 0 Z"/></clipPath><clipPath id="clipPath5" clipPathUnits="userSpaceOnUse"><path d="M0 0 L0 30 L70 30 L70 0 Z"/></clipPath><clipPath id="clipPath6" clipPathUnits="userSpaceOnUse"><path d="M0 0 L0 30 L120 30 L120 0 Z"/></clipPath><clipPath id="clipPath7" clipPathUnits="userSpaceOnUse"><path d="M0 0 L0 80 L130 80 L130 0 Z"/></clipPath><clipPath id="clipPath8" clipPathUnits="userSpaceOnUse"><path d="M0 0 L0 100 L150 100 L150 0 Z"/></clipPath><clipPath id="clipPath9" clipPathUnits="userSpaceOnUse"><path d="M0 0 L0 80 L120 80 L120 0 Z"/></clipPath><clipPath id="clipPath10" clipPathUnits="userSpaceOnUse"><path d="M0 0 L0 80 L630 80 L630 0 Z"/></clipPath><clipPath id="clipPath11" clipPathUnits="userSpaceOnUse"><path d="M0 0 L0 80 L110 80 L110 0 Z"/></clipPath><clipPath id="clipPath12" clipPathUnits="userSpaceOnUse"><path d="M0 0 L0 90 L140 90 L140 0 Z"/></clipPath></defs><g fill="#00f" stroke="#00f" font-family="sans-serif" font-size="14"><text x="5" y="18.109" stroke="none" clip-path="url(#clipPath2)" transform="translate(570,30)" xml:space="preserve">+$0.20</text></g><g fill="#00f" stroke="#00f" font-family="sans-serif" font-size="14"><text x="5" y="18.109" stroke="none" clip-path="url(#clipPath2)" transform="translate(660,170)" xml:space="preserve">+$100.00</text></g><g fill="#00f" stroke="#00f" font-family="sans-serif" font-size="14"><text x="5" y="18.109" stroke="none" clip-path="url(#clipPath2)" transform="translate(300,170)" xml:space="preserve">+90,18 €</text></g><g fill="#FFF" fill-opacity="0" stroke="#FFF" stroke-opacity="0" transform="translate(740,170)"><ellipse cx="59.75" cy="24.75" stroke="none" clip-path="url(#clipPath3)" rx="59.25" ry="24.25"/></g><g transform="translate(740,170)"><ellipse cx="59.75" cy="24.75" fill="none" clip-path="url(#clipPath3)" rx="59.25" ry="24.25"/><text x="42" y="30.055" stroke="none" clip-path="url(#clipPath3)" font-family="sans-serif" font-size="14" xml:space="preserve">Rosa</text></g><g fill="#FFF" fill-opacity="0" stroke="#FFF" stroke-opacity="0" transform="translate(550,60)"><ellipse cx="59.75" cy="29.75" stroke="none" clip-path="url(#clipPath4)" rx="59.25" ry="29.25"/></g><g transform="translate(550,60)"><ellipse cx="59.75" cy="29.75" fill="none" clip-path="url(#clipPath4)" rx="59.25" ry="29.25"/><text x="34" y="17.852" stroke="none" clip-path="url(#clipPath4)" font-family="sans-serif" font-size="11" xml:space="preserve">WayGate</text><path fill="none" d="M2.4919 23.8516 L118.0081 23.8516" clip-path="url(#clipPath4)"/><text x="37" y="36.148" stroke="none" clip-path="url(#clipPath4)" font-family="sans-serif" font-size="11" xml:space="preserve">Transfer</text><text x="32" y="49.445" stroke="none" clip-path="url(#clipPath4)" font-family="sans-serif" font-size="11" xml:space="preserve">Fee: 0.2%</text></g><g fill="#00f" stroke="#00f" font-family="sans-serif" font-size="14"><text x="5" y="18.109" stroke="none" clip-path="url(#clipPath5)" transform="translate(230,30)" xml:space="preserve">+0,90 €</text></g><g fill="#00f" stroke="#00f" font-family="sans-serif" font-size="14"><text x="5" y="18.109" stroke="none" clip-path="url(#clipPath2)" transform="translate(510,170)" xml:space="preserve">-$100.20</text></g><g fill="#00f" stroke="#00f" font-family="sans-serif" font-size="14"><text x="5" y="18.109" stroke="none" clip-path="url(#clipPath6)" transform="translate(40,210)" xml:space="preserve">-91,08 €</text></g><g fill="#FFF" fill-opacity="0" stroke="#FFF" stroke-opacity="0" transform="translate(380,160)"><ellipse cx="64.75" cy="39.75" stroke="none" clip-path="url(#clipPath7)" rx="64.25" ry="39.25"/></g><g transform="translate(380,160)"><ellipse cx="64.75" cy="39.75" fill="none" clip-path="url(#clipPath7)" rx="64.25" ry="39.25"/><text x="41" y="27.852" stroke="none" clip-path="url(#clipPath7)" font-family="sans-serif" font-size="11" xml:space="preserve">FXMaker</text><path fill="none" d="M1.9041 33.8516 L128.5959 33.8516" clip-path="url(#clipPath7)"/><text x="49" y="46.148" stroke="none" clip-path="url(#clipPath7)" font-family="sans-serif" font-size="11" xml:space="preserve">Offer:</text><text x="20" y="59.445" stroke="none" clip-path="url(#clipPath7)" font-family="sans-serif" font-size="11" xml:space="preserve">0.9 EUR / 1 USD</text></g><g fill="#FFF" fill-opacity="0" stroke="#FFF" stroke-opacity="0" transform="translate(200,60)"><ellipse cx="59.75" cy="29.75" stroke="none" clip-path="url(#clipPath4)" rx="59.25" ry="29.25"/></g><g transform="translate(200,60)"><ellipse cx="59.75" cy="29.75" fill="none" clip-path="url(#clipPath4)" rx="59.25" ry="29.25"/><text x="44" y="17.852" stroke="none" clip-path="url(#clipPath4)" font-family="sans-serif" font-size="11" xml:space="preserve">ACME</text><path fill="none" d="M2.4919 23.8516 L118.0081 23.8516" clip-path="url(#clipPath4)"/><text x="37" y="36.148" stroke="none" clip-path="url(#clipPath4)" font-family="sans-serif" font-size="11" xml:space="preserve">Transfer</text><text x="37" y="49.445" stroke="none" clip-path="url(#clipPath4)" font-family="sans-serif" font-size="11" xml:space="preserve">Fee: 1%</text></g><g fill="#FFF" fill-opacity="0" stroke="#FFF" stroke-opacity="0" transform="translate(40,160)"><ellipse cx="59.75" cy="24.75" stroke="none" clip-path="url(#clipPath3)" rx="59.25" ry="24.25"/></g><g transform="translate(40,160)"><ellipse cx="59.75" cy="24.75" fill="none" clip-path="url(#clipPath3)" rx="59.25" ry="24.25"/><text x="34" y="30.055" stroke="none" clip-path="url(#clipPath3)" font-family="sans-serif" font-size="14" xml:space="preserve">Salazar</text></g><g><path fill="none" d="M11.3884 18.959 L130.5 80.5" clip-path="url(#clipPath8)" transform="translate(650,90)"/><path stroke="none" d="M17.9628 29.6721 L10.9442 18.7295 L23.93 18.1225 Z" clip-path="url(#clipPath8)" transform="translate(650,90)"/><path fill="none" d="M17.9628 29.6721 L10.9442 18.7295 L23.93 18.1225 Z" clip-path="url(#clipPath8)" transform="translate(650,90)"/></g><g><path fill="none" d="M99.6258 10.9856 L10.5 60.5" clip-path="url(#clipPath9)" transform="translate(460,100)"/><path stroke="none" d="M87.0647 10.5283 L100.0629 10.7428 L93.3781 21.8924 Z" clip-path="url(#clipPath9)" transform="translate(460,100)"/><path fill="none" d="M87.0647 10.5283 L100.0629 10.7428 L93.3781 21.8924 Z" clip-path="url(#clipPath9)" transform="translate(460,100)"/></g><g fill="#00f" stroke="#00f" stroke-dasharray="8 5" stroke-linecap="butt" stroke-miterlimit="5"><path fill="none" d="M10.5 50.5 L70.5 10.5" clip-path="url(#clipPath10)" transform="translate(140,120)"/><path fill="none" d="M70.5 10.5 L180.5 10.5" clip-path="url(#clipPath10)" transform="translate(140,120)"/><path fill="none" d="M180.5 10.5 L250.5 50.5" clip-path="url(#clipPath10)" transform="translate(140,120)"/><path fill="none" d="M250.5 50.5 L350.5 50.5" clip-path="url(#clipPath10)" transform="translate(140,120)"/><path fill="none" d="M350.5 50.5 L420.5 10.5" clip-path="url(#clipPath10)" transform="translate(140,120)"/><path fill="none" d="M420.5 10.5 L530.5 10.5" clip-path="url(#clipPath10)" transform="translate(140,120)"/><path fill="none" d="M530.5 10.5 L609.6192 53.0266" clip-path="url(#clipPath10)" transform="translate(140,120)"/><path fill="none" stroke-dasharray="none" stroke-linecap="square" stroke-miterlimit="10" d="M597.0656 53.6585 L610.0596 53.2633 L603.2203 42.2077" clip-path="url(#clipPath10)" transform="translate(140,120)"/></g><g><path fill="none" d="M89.652 11.03 L10.5 60.5" clip-path="url(#clipPath11)" transform="translate(120,100)"/><path stroke="none" d="M77.084 11.2199 L90.076 10.765 L83.9739 22.2439 Z" clip-path="url(#clipPath11)" transform="translate(120,100)"/><path fill="none" d="M77.084 11.2199 L90.076 10.765 L83.9739 22.2439 Z" clip-path="url(#clipPath11)" transform="translate(120,100)"/></g><g><path fill="none" d="M11.3729 18.9878 L112.5 75.5" clip-path="url(#clipPath12)" transform="translate(300,90)"/><path stroke="none" d="M17.5935 29.9101 L10.9365 18.7439 L23.9352 18.5618 Z" clip-path="url(#clipPath12)" transform="translate(300,90)"/><path fill="none" d="M17.5935 29.9101 L10.9365 18.7439 L23.9352 18.5618 Z" clip-path="url(#clipPath12)" transform="translate(300,90)"/></g></g></svg>