<svg xmlns="http://www.w3.org/2000/svg" xmlns:xlink="http://www.w3.org/1999/xlink" width="980" height="300" fill="#000" fill-opacity="1" stroke="#000" stroke-dasharray="none" stroke-dashoffset="0" stroke-linecap="square" stroke-linejoin="miter" stroke-miterlimit="10" stroke-opacity="1" stroke-width="1" color-interpolation="auto" color-rendering="auto" font-family="'Dialog'" font-size="12" font-style="normal" font-weight="normal" image-rendering="auto" shape-rendering="auto" text-rendering="auto" viewBox="20 30 980 300"><g><defs id="defs1"><clipPath id="clipPath1" clipPathUnits="userSpaceOnUse"><path d="M0 0 L2147483647 0 L2147483647 2147483647 L0 2147483647 L0 0 Z"/></clipPath><clipPath id="clipPath2" clipPathUnits="userSpaceOnUse"><path d="M0 0 L0 30 L210 30 L210 0 Z"/></clipPath><clipPath id="clipPath3" clipPathUnits="userSpaceOnUse"><path d="M0 0 L0 60 L230 60 L230 0 Z"/></clipPath><clipPath id="clipPath4" clipPathUnits="userSpaceOnUse"><path d="M0 0 L0 30 L70 30 L70 0 Z"/></clipPath><clipPath id="clipPath5" clipPathUnits="userSpaceOnUse"><path d="M0 0 L0 20 L70 20 L70 0 Z"/></clipPath><clipPath id="clipPath6" clipPathUnits="userSpaceOnUse"><path d="M0 0 L0 70 L180 70 L180 0 Z"/></clipPath><clipPath id="clipPath7" clipPathUnits="userSpaceOnUse"><path d="M0 0 L0 30 L100 30 L100 0 Z"/></clipPath><clipPath id="clipPath8" clipPathUnits="userSpaceOnUse"><path d="M0 0 L0 20 L100 20 L100 0 Z"/></clipPath><clipPath id="clipPath9" clipPathUnits="userSpaceOnUse"><path d="M0 0 L0 60 L100 60 L100 0 Z"/></clipPath><clipPath id="clipPath10" clipPathUnits="userSpaceOnUse"><path d="M0 0 L0 180 L210 180 L210 0 Z"/></clipPath><clipPath id="clipPath11" clipPathUnits="userSpaceOnUse"><path d="M0 0 L0 40 L100 40 L100 0 Z"/></clipPath><clipPath id="clipPath12" clipPathUnits="userSpaceOnUse"><path d="M0 0 L0 70 L100 70 L100 0 Z"/></clipPath><clipPath id="clipPath13" clipPathUnits="userSpaceOnUse"><path d="M0 0 L0 260 L230 260 L230 0 Z"/></clipPath></defs><g fill="#0f0" stroke="#0f0" transform="translate(700,130)"><rect width="208.5" height="28.5" x=".5" y=".5" stroke="none" clip-path="url(#clipPath2)"/><rect width="208.5" height="28.5" x=".5" y=".5" fill="none" stroke="#000" clip-path="url(#clipPath2)"/></g><g font-family="sans-serif" font-size="14"><text x="5" y="20.055" stroke="none" clip-path="url(#clipPath2)" transform="translate(700,130)" xml:space="preserve">- ACME (XRPL)</text></g><g fill="#0f0" stroke="#0f0" transform="translate(40,130)"><rect width="208.5" height="28.5" x=".5" y=".5" stroke="none" clip-path="url(#clipPath2)"/><rect width="208.5" height="28.5" x=".5" y=".5" fill="none" stroke="#000" clip-path="url(#clipPath2)"/></g><g font-family="sans-serif" font-size="14"><text x="5" y="20.055" stroke="none" clip-path="url(#clipPath2)" transform="translate(40,130)" xml:space="preserve">- ACME (XRPL)</text></g><g fill="#0f0" stroke="#0f0" transform="translate(360,200)"><rect width="228.5" height="58.5" x=".5" y=".5" stroke="none" clip-path="url(#clipPath3)"/><rect width="228.5" height="58.5" x=".5" y=".5" fill="none" stroke="#000" clip-path="url(#clipPath3)"/></g><g font-family="sans-serif" font-size="14"><text x="5" y="18.109" stroke="none" clip-path="url(#clipPath3)" transform="translate(360,200)" xml:space="preserve">- Alice (XRPL)</text><text x="5" y="34.219" stroke="none" clip-path="url(#clipPath3)" transform="translate(360,200)" xml:space="preserve">- Charlie (XRPL)</text></g><g fill="#00f" stroke="#00f" font-family="sans-serif" font-size="14"><text x="5" y="20.055" stroke="none" clip-path="url(#clipPath4)" transform="translate(590,270)" xml:space="preserve">+0,02 €</text></g><g fill="#00f" stroke="#00f" font-family="sans-serif" font-size="14"><text x="5" y="15.055" stroke="none" clip-path="url(#clipPath5)" transform="translate(590,180)" xml:space="preserve">- 0,02 €</text></g><g font-family="sans-serif" font-size="14"><text x="5" y="18.109" stroke="none" clip-path="url(#clipPath6)" transform="translate(360,130)" xml:space="preserve">- Bob</text><text x="5" y="34.219" stroke="none" clip-path="url(#clipPath6)" transform="translate(360,130)" xml:space="preserve">- Charlie</text><text x="5" y="50.328" stroke="none" clip-path="url(#clipPath6)" transform="translate(360,130)" xml:space="preserve">- Alice</text><text x="5" y="66.438" stroke="none" clip-path="url(#clipPath6)" transform="translate(360,130)" xml:space="preserve">- XRP Ledger (Subtotal)</text></g><g fill="#00f" stroke="#00f" font-family="sans-serif" font-size="14"><text x="5" y="18.109" stroke="none" clip-path="url(#clipPath4)" transform="translate(910,130)" xml:space="preserve">+2,00 €</text></g><g font-family="sans-serif" font-size="14"><text x="50" y="18.109" stroke="none" clip-path="url(#clipPath7)" transform="translate(810,130)" xml:space="preserve">4,00 €</text></g><g font-family="sans-serif" font-size="14" font-weight="bold"><text x="6" y="20.055" stroke="none" clip-path="url(#clipPath4)" transform="translate(840,190)" xml:space="preserve">14,00 €</text></g><g font-family="sans-serif" font-size="14" font-weight="bold"><text x="45" y="15.055" stroke="none" clip-path="url(#clipPath8)" transform="translate(810,160)" xml:space="preserve">0,00 €</text></g><g font-family="sans-serif" font-size="14" font-weight="bold"><text x="45" y="18.109" stroke="none" clip-path="url(#clipPath9)" transform="translate(810,70)" xml:space="preserve">4,00 €</text><text x="50" y="34.219" stroke="none" clip-path="url(#clipPath9)" font-weight="normal" transform="translate(810,70)" xml:space="preserve">8,00 €</text><text x="50" y="50.328" stroke="none" clip-path="url(#clipPath9)" font-weight="normal" transform="translate(810,70)" xml:space="preserve">2,00 €</text></g><g fill="#FFF" fill-opacity="0" stroke="#FFF" stroke-opacity="0" transform="translate(700,50)"><rect width="208.5" height="178.5" x=".5" y=".5" stroke="none" clip-path="url(#clipPath10)"/></g><g transform="translate(700,50)"><rect width="208.5" height="178.5" x=".5" y=".5" fill="none" clip-path="url(#clipPath10)"/><text x="80" y="18.109" stroke="none" clip-path="url(#clipPath10)" font-family="sans-serif" font-size="14" xml:space="preserve">Charlie</text><path fill="none" d="M1 24.1094 L209 24.1094" clip-path="url(#clipPath10)"/><text x="5" y="39.219" stroke="none" clip-path="url(#clipPath10)" font-family="sans-serif" font-size="14" font-weight="bold" xml:space="preserve">Assets:</text><text x="5" y="55.328" stroke="none" clip-path="url(#clipPath10)" font-family="sans-serif" font-size="14" xml:space="preserve">- Cash:</text><text x="5" y="71.438" stroke="none" clip-path="url(#clipPath10)" font-family="sans-serif" font-size="14" xml:space="preserve">- ACME:</text><path fill="none" d="M1 109.6562 L209 109.6562" clip-path="url(#clipPath10)"/><text x="5" y="124.766" stroke="none" clip-path="url(#clipPath10)" font-family="sans-serif" font-size="14" font-weight="bold" xml:space="preserve">Liabilities:</text><path fill="none" d="M1 146.875 L209 146.875" clip-path="url(#clipPath10)"/><text x="5" y="161.984" stroke="none" clip-path="url(#clipPath10)" font-family="sans-serif" font-size="14" font-weight="bold" xml:space="preserve">Equity:</text></g><g fill="#00f" stroke="#00f" font-family="sans-serif" font-size="14"><text x="5" y="18.109" stroke="none" clip-path="url(#clipPath4)" transform="translate(250,130)" xml:space="preserve">- 2,02 €</text></g><g font-family="sans-serif" font-size="14"><text x="50" y="18.109" stroke="none" clip-path="url(#clipPath7)" transform="translate(150,130)" xml:space="preserve">0,98 €</text></g><g font-family="sans-serif" font-size="14"><text x="50" y="18.109" stroke="none" clip-path="url(#clipPath11)" transform="translate(490,200)" xml:space="preserve">0,98 €</text><text x="50" y="34.219" stroke="none" clip-path="url(#clipPath11)" transform="translate(490,200)" xml:space="preserve">4,00 €</text></g><g font-family="sans-serif" font-size="14"><text x="50" y="18.109" stroke="none" clip-path="url(#clipPath12)" transform="translate(490,130)" xml:space="preserve">1,00 €</text><text x="50" y="34.219" stroke="none" clip-path="url(#clipPath12)" transform="translate(490,130)" xml:space="preserve">2,00 €</text><text x="50" y="50.328" stroke="none" clip-path="url(#clipPath12)" transform="translate(490,130)" xml:space="preserve">2,00 €</text><text x="50" y="66.438" stroke="none" clip-path="url(#clipPath12)" transform="translate(490,130)" xml:space="preserve">4,98 €</text></g><g font-family="sans-serif" font-size="14" font-weight="bold"><text x="15" y="20.055" stroke="none" clip-path="url(#clipPath4)" transform="translate(520,270)" xml:space="preserve">2,02 €</text></g><g font-family="sans-serif" font-size="14" font-weight="bold"><text x="45" y="15.055" stroke="none" clip-path="url(#clipPath8)" transform="translate(490,110)" xml:space="preserve">8,00 €</text></g><g font-family="sans-serif" font-size="14" font-weight="bold"><text x="36" y="18.109" stroke="none" clip-path="url(#clipPath11)" transform="translate(490,70)" xml:space="preserve">10,00 €</text></g><g fill="#FFF" fill-opacity="0" stroke="#FFF" stroke-opacity="0" transform="translate(360,50)"><rect width="228.5" height="258.5" x=".5" y=".5" stroke="none" clip-path="url(#clipPath13)"/></g><g transform="translate(360,50)"><rect width="228.5" height="258.5" x=".5" y=".5" fill="none" clip-path="url(#clipPath13)"/><text x="94" y="18.109" stroke="none" clip-path="url(#clipPath13)" font-family="sans-serif" font-size="14" xml:space="preserve">ACME</text><path fill="none" d="M1 24.1094 L229 24.1094" clip-path="url(#clipPath13)"/><text x="5" y="39.219" stroke="none" clip-path="url(#clipPath13)" font-family="sans-serif" font-size="14" font-weight="bold" xml:space="preserve">Assets:</text><text x="5" y="55.328" stroke="none" clip-path="url(#clipPath13)" font-family="sans-serif" font-size="14" xml:space="preserve">- Cash:</text><path fill="none" d="M1 61.3281 L229 61.3281" clip-path="url(#clipPath13)"/><text x="5" y="76.438" stroke="none" clip-path="url(#clipPath13)" font-family="sans-serif" font-size="14" font-weight="bold" xml:space="preserve">Liabilities:</text><path fill="none" d="M1 211.3125 L229 211.3125" clip-path="url(#clipPath13)"/><text x="5" y="226.422" stroke="none" clip-path="url(#clipPath13)" font-family="sans-serif" font-size="14" font-weight="bold" xml:space="preserve">Equity:</text></g><g font-family="sans-serif" font-size="14" font-weight="bold"><text x="15" y="20.055" stroke="none" clip-path="url(#clipPath4)" transform="translate(180,190)" xml:space="preserve">3,98 €</text></g><g font-family="sans-serif" font-size="14" font-weight="bold"><text x="45" y="15.055" stroke="none" clip-path="url(#clipPath8)" transform="translate(150,160)" xml:space="preserve">0,00 €</text></g><g font-family="sans-serif" font-size="14" font-weight="bold"><text x="45" y="18.109" stroke="none" clip-path="url(#clipPath9)" transform="translate(150,70)" xml:space="preserve">3,98 €</text><text x="50" y="34.219" stroke="none" clip-path="url(#clipPath9)" font-weight="normal" transform="translate(150,70)" xml:space="preserve">1,00 €</text><text x="50" y="50.328" stroke="none" clip-path="url(#clipPath9)" font-weight="normal" transform="translate(150,70)" xml:space="preserve">2,00 €</text></g><g fill="#FFF" fill-opacity="0" stroke="#FFF" stroke-opacity="0" transform="translate(40,50)"><rect width="208.5" height="178.5" x=".5" y=".5" stroke="none" clip-path="url(#clipPath10)"/></g><g transform="translate(40,50)"><rect width="208.5" height="178.5" x=".5" y=".5" fill="none" clip-path="url(#clipPath10)"/><text x="88" y="18.109" stroke="none" clip-path="url(#clipPath10)" font-family="sans-serif" font-size="14" xml:space="preserve">Alice</text><path fill="none" d="M1 24.1094 L209 24.1094" clip-path="url(#clipPath10)"/><text x="5" y="39.219" stroke="none" clip-path="url(#clipPath10)" font-family="sans-serif" font-size="14" font-weight="bold" xml:space="preserve">Assets:</text><text x="5" y="55.328" stroke="none" clip-path="url(#clipPath10)" font-family="sans-serif" font-size="14" xml:space="preserve">- Cash:</text><text x="5" y="71.438" stroke="none" clip-path="url(#clipPath10)" font-family="sans-serif" font-size="14" xml:space="preserve">- ACME:</text><path fill="none" d="M1 109.6562 L209 109.6562" clip-path="url(#clipPath10)"/><text x="5" y="124.766" stroke="none" clip-path="url(#clipPath10)" font-family="sans-serif" font-size="14" font-weight="bold" xml:space="preserve">Liabilities:</text><path fill="none" d="M1 146.875 L209 146.875" clip-path="url(#clipPath10)"/><text x="5" y="161.984" stroke="none" clip-path="url(#clipPath10)" font-family="sans-serif" font-size="14" font-weight="bold" xml:space="preserve">Equity:</text></g></g></svg>