<svg xmlns="http://www.w3.org/2000/svg" xmlns:xlink="http://www.w3.org/1999/xlink" width="520" height="250" fill="#000" fill-opacity="1" stroke="#000" stroke-dasharray="none" stroke-dashoffset="0" stroke-linecap="square" stroke-linejoin="miter" stroke-miterlimit="10" stroke-opacity="1" stroke-width="1" color-interpolation="auto" color-rendering="auto" font-family="'Dialog'" font-size="12" font-style="normal" font-weight="normal" image-rendering="auto" shape-rendering="auto" text-rendering="auto" viewBox="0 10 520 250"><g><defs id="defs1"><clipPath id="clipPath1" clipPathUnits="userSpaceOnUse"><path d="M0 0 L2147483647 0 L2147483647 2147483647 L0 2147483647 L0 0 Z"/></clipPath><clipPath id="clipPath2" clipPathUnits="userSpaceOnUse"><path d="M0 0 L0 30 L70 30 L70 0 Z"/></clipPath><clipPath id="clipPath3" clipPathUnits="userSpaceOnUse"><path d="M0 0 L0 50 L120 50 L120 0 Z"/></clipPath><clipPath id="clipPath4" clipPathUnits="userSpaceOnUse"><path d="M0 0 L0 60 L120 60 L120 0 Z"/></clipPath><clipPath id="clipPath5" clipPathUnits="userSpaceOnUse"><path d="M0 0 L0 70 L270 70 L270 0 Z"/></clipPath><clipPath id="clipPath6" clipPathUnits="userSpaceOnUse"><path d="M0 0 L0 80 L140 80 L140 0 Z"/></clipPath><clipPath id="clipPath7" clipPathUnits="userSpaceOnUse"><path d="M0 0 L0 90 L130 90 L130 0 Z"/></clipPath></defs><g fill="#00f" stroke="#00f" font-family="sans-serif" font-size="14"><text x="5" y="18.109" stroke="none" clip-path="url(#clipPath2)" transform="translate(230,30)" xml:space="preserve">+0,02 €</text></g><g fill="#00f" stroke="#00f" font-family="sans-serif" font-size="14"><text x="5" y="18.109" stroke="none" clip-path="url(#clipPath2)" transform="translate(410,210)" xml:space="preserve">+2,00 €</text></g><g fill="#00f" stroke="#00f" font-family="sans-serif" font-size="14"><text x="5" y="18.109" stroke="none" clip-path="url(#clipPath2)" transform="translate(50,210)" xml:space="preserve">-2,02 €</text></g><g fill="#FFF" fill-opacity="0" stroke="#FFF" stroke-opacity="0" transform="translate(380,160)"><ellipse cx="59.75" cy="24.75" stroke="none" clip-path="url(#clipPath3)" rx="59.25" ry="24.25"/></g><g transform="translate(380,160)"><ellipse cx="59.75" cy="24.75" fill="none" clip-path="url(#clipPath3)" rx="59.25" ry="24.25"/><text x="35" y="30.055" stroke="none" clip-path="url(#clipPath3)" font-family="sans-serif" font-size="14" xml:space="preserve">Charlie</text></g><g fill="#FFF" fill-opacity="0" stroke="#FFF" stroke-opacity="0" transform="translate(200,60)"><ellipse cx="59.75" cy="29.75" stroke="none" clip-path="url(#clipPath4)" rx="59.25" ry="29.25"/></g><g transform="translate(200,60)"><ellipse cx="59.75" cy="29.75" fill="none" clip-path="url(#clipPath4)" rx="59.25" ry="29.25"/><text x="39" y="16.445" stroke="none" clip-path="url(#clipPath4)" font-family="sans-serif" font-size="14" xml:space="preserve">ACME</text><path fill="none" d="M3.203 22.4453 L117.297 22.4453" clip-path="url(#clipPath4)"/><text x="30" y="37.555" stroke="none" clip-path="url(#clipPath4)" font-family="sans-serif" font-size="14" xml:space="preserve">Transfer</text><text x="31" y="53.664" stroke="none" clip-path="url(#clipPath4)" font-family="sans-serif" font-size="14" xml:space="preserve">Fee: 1%</text></g><g fill="#FFF" fill-opacity="0" stroke="#FFF" stroke-opacity="0" transform="translate(20,160)"><ellipse cx="59.75" cy="24.75" stroke="none" clip-path="url(#clipPath3)" rx="59.25" ry="24.25"/></g><g transform="translate(20,160)"><ellipse cx="59.75" cy="24.75" fill="none" clip-path="url(#clipPath3)" rx="59.25" ry="24.25"/><text x="43" y="30.055" stroke="none" clip-path="url(#clipPath3)" font-family="sans-serif" font-size="14" xml:space="preserve">Alice</text></g><g fill="#00f" stroke="#00f" stroke-dasharray="8 5" stroke-linecap="butt" stroke-miterlimit="5"><path fill="none" d="M10.5 50.5 L90.5 10.5" clip-path="url(#clipPath5)" transform="translate(130,120)"/><path fill="none" d="M90.5 10.5 L180.5 10.5" clip-path="url(#clipPath5)" transform="translate(130,120)"/><path fill="none" d="M180.5 10.5 L249.6318 50.0039" clip-path="url(#clipPath5)" transform="translate(130,120)"/><path fill="none" stroke-dasharray="none" stroke-linecap="square" stroke-miterlimit="10" d="M237.066 50.3098 L250.0659 50.2519 L243.5158 39.0227" clip-path="url(#clipPath5)" transform="translate(130,120)"/></g><g><path fill="none" d="M119.5896 10.9138 L10.5 60.5" clip-path="url(#clipPath6)" transform="translate(90,100)"/><path stroke="none" d="M107.1059 9.4482 L120.0448 10.7069 L112.4853 21.283 Z" clip-path="url(#clipPath6)" transform="translate(90,100)"/><path fill="none" d="M107.1059 9.4482 L120.0448 10.7069 L112.4853 21.283 Z" clip-path="url(#clipPath6)" transform="translate(90,100)"/></g><g><path fill="none" d="M11.3872 18.9614 L110.5 70.5" clip-path="url(#clipPath7)" transform="translate(310,90)"/><path stroke="none" d="M17.9334 29.6916 L10.9436 18.7307 L23.931 18.1578 Z" clip-path="url(#clipPath7)" transform="translate(310,90)"/><path fill="none" d="M17.9334 29.6916 L10.9436 18.7307 L23.931 18.1578 Z" clip-path="url(#clipPath7)" transform="translate(310,90)"/></g></g></svg>